<svg width="102" height="143" viewBox="0 0 102 143" fill="none" xmlns="http://www.w3.org/2000/svg">
<path d="M94.7979 97.0296L73.666 84.718C71.2106 83.287 67.9617 82.498 64.5217 82.498C61.0818 82.498 57.8835 83.275 55.443 84.688L12.4901 109.533C9.83478 111.069 8.3699 113.187 8.36691 115.5L8.35499 122.487C8.352 124.8 9.80793 126.924 12.4573 128.469L33.5891 140.78C36.0475 142.211 39.2935 143 42.7335 143C46.1734 143 49.3717 142.223 51.8151 140.81L94.7711 115.968C97.4264 114.432 98.8883 112.314 98.8942 110.001L98.9032 103.014C98.9092 100.702 97.4532 98.5776 94.8009 97.0326L94.7979 97.0296Z" fill="#818181"/>
<path d="M13.0629 120.453L34.1948 132.764C38.8907 135.5 46.5344 135.512 51.2393 132.791L54.9597 130.64L94.1952 107.946C96.5462 106.587 97.7247 104.796 97.7277 103.005C97.7277 101.214 96.5582 99.4204 94.2102 98.0524L73.0783 85.7407C68.3823 83.0048 60.7357 82.9928 56.0337 85.7138L16.8011 108.405L13.0808 110.556C10.7298 111.915 9.55132 113.706 9.54834 115.497C9.54834 117.288 10.7179 119.082 13.0658 120.45L13.0629 120.453Z" fill="white"/>
<path d="M42.7453 135.224C39.4396 135.224 36.3338 134.474 33.9918 133.11L12.8599 120.798C10.4612 119.4 9.14253 117.519 9.14551 115.5C9.14551 113.481 10.4732 111.603 12.8748 110.214L55.8308 85.3689C58.1549 84.0249 61.2428 83.2839 64.5187 83.2839C67.7945 83.2839 70.9301 84.0339 73.2692 85.3989L94.4011 97.7105C96.7998 99.1085 98.1185 100.989 98.1125 103.008C98.1125 105.027 96.7848 106.905 94.3832 108.294L51.4302 133.14C49.1061 134.483 46.0182 135.224 42.7423 135.224H42.7453ZM64.5216 84.0789C61.3801 84.0789 58.4324 84.7809 56.2276 86.0589L13.2716 110.904C11.1235 112.146 9.93911 113.781 9.93613 115.503C9.93613 117.225 11.1116 118.863 13.2567 120.111L34.3886 132.423C36.6083 133.716 39.5769 134.429 42.7453 134.429C45.9138 134.429 48.8316 133.728 51.0394 132.45L93.9923 107.604C96.1404 106.362 97.3249 104.73 97.3278 103.005C97.3278 101.28 96.1523 99.6455 94.0072 98.3945L72.8753 86.0828C70.6556 84.7899 67.6901 84.0759 64.5216 84.0759V84.0789Z" fill="#989898"/>
<path d="M30.1642 122.832C28.8574 122.07 26.7869 122.019 25.3876 122.679C25.2892 122.724 25.2027 122.772 25.1132 122.823C25.0147 122.88 24.9282 122.937 24.8417 122.997C24.3225 123.372 24.063 123.831 24.063 124.287C24.063 124.818 24.4091 125.349 25.1072 125.754C26.405 126.51 28.4517 126.564 29.8539 125.916C29.9613 125.868 30.0627 125.817 30.1582 125.763C30.2477 125.712 30.3253 125.658 30.4058 125.604C30.9369 125.226 31.2054 124.761 31.2054 124.299C31.2054 123.768 30.8593 123.237 30.1612 122.832H30.1642Z" fill="white"/>
<path d="M27.637 126.765C26.6137 126.765 25.6411 126.531 24.9071 126.102C24.1046 125.634 23.663 124.992 23.666 124.287C23.666 123.69 24.0002 123.117 24.6088 122.676C24.7073 122.604 24.8057 122.541 24.9131 122.478C25.0116 122.421 25.11 122.37 25.2174 122.319C26.6942 121.623 28.9945 121.692 30.3609 122.487C31.1605 122.955 31.602 123.597 31.5991 124.299C31.5991 124.905 31.256 125.484 30.6324 125.928C30.5041 126.012 30.4325 126.06 30.352 126.108C30.2446 126.171 30.1312 126.228 30.0089 126.282C29.3376 126.591 28.4933 126.762 27.634 126.762L27.637 126.765ZM27.6251 122.619C26.8643 122.619 26.1304 122.769 25.5516 123.042C25.4651 123.084 25.3845 123.126 25.3069 123.171C25.2204 123.222 25.1428 123.273 25.0653 123.327C24.6744 123.609 24.4566 123.954 24.4566 124.29C24.4566 124.695 24.758 125.094 25.304 125.415C25.9215 125.775 26.748 125.97 27.637 125.97C28.3829 125.97 29.1138 125.823 29.6867 125.559C29.7851 125.517 29.8746 125.472 29.9582 125.421C30.0238 125.382 30.0835 125.343 30.1461 125.304C30.5847 124.992 30.8084 124.644 30.8084 124.302C30.8084 123.894 30.5071 123.498 29.9611 123.177C29.3436 122.817 28.5142 122.619 27.6221 122.619H27.6251Z" fill="#989898"/>
<path d="M76.7447 91.5936L84.1437 95.9045C84.7314 96.2465 85.6832 96.2495 86.2739 95.9075C86.5693 95.7365 86.7155 95.5145 86.7155 95.2895C86.7155 95.0645 86.5693 94.8425 86.2769 94.6715L78.8779 90.3606C78.2902 90.0186 77.3354 90.0186 76.7477 90.3576C76.4523 90.5286 76.3062 90.7506 76.3062 90.9756C76.3062 91.2006 76.4523 91.4226 76.7477 91.5936H76.7447Z" fill="white"/>
<path d="M85.2151 96.5585C84.7437 96.5585 84.2932 96.4475 83.9471 96.2465L76.5481 91.9356C76.1424 91.6986 75.9097 91.3476 75.9097 90.9696C75.9097 90.5946 76.1424 90.2467 76.5481 90.0097C77.2343 89.6107 78.3859 89.6137 79.0751 90.0127L86.4741 94.3235C86.8799 94.5605 87.1126 94.9115 87.1096 95.2895C87.1096 95.6615 86.8769 96.0125 86.4711 96.2495C86.128 96.4475 85.6805 96.5555 85.2121 96.5555L85.2151 96.5585ZM77.8101 90.4986C77.482 90.4986 77.1657 90.5706 76.9449 90.6996C76.7659 90.8046 76.7003 90.9096 76.7003 90.9726C76.7003 91.0536 76.7957 91.1616 76.9449 91.2486L84.3469 95.5625C84.5707 95.6915 84.8869 95.7665 85.2181 95.7665C85.5463 95.7665 85.8595 95.6915 86.0803 95.5655C86.2593 95.4605 86.3249 95.3555 86.3249 95.2925C86.3249 95.2295 86.2623 95.1215 86.0833 95.0165L78.6843 90.7056C78.4635 90.5766 78.1443 90.5016 77.8131 90.5016L77.8101 90.4986Z" fill="#989898"/>
<path d="M89.9436 100.521L68.8117 88.2098C66.4637 86.8418 62.6419 86.8388 60.2879 88.1978L28.7348 106.449L21.0523 110.892C19.8769 111.573 19.2861 112.467 19.2861 113.364C19.2861 114.261 19.8709 115.155 21.0434 115.839L42.1753 128.151C44.5233 129.519 48.3481 129.525 50.702 128.166L88.0849 106.545L89.9376 105.474C91.1131 104.793 91.7008 103.899 91.7038 103.002C91.7038 102.105 91.1191 101.208 89.9465 100.524L89.9436 100.521Z" fill="white"/>
<path d="M46.4539 129.576C44.7652 129.576 43.178 129.192 41.9757 128.493L20.8438 116.181C19.5818 115.446 18.8896 114.444 18.8896 113.361C18.8896 112.278 19.5908 111.276 20.8558 110.544L60.0883 87.8527C61.2817 87.1627 62.86 86.7817 64.5337 86.7817C66.2074 86.7817 67.8066 87.1657 69.0059 87.8647L90.1378 100.179C91.3998 100.914 92.095 101.916 92.092 103.002C92.092 104.088 91.3909 105.087 90.1288 105.816L50.8963 128.508C49.7059 129.198 48.1246 129.576 46.4509 129.576H46.4539ZM64.5397 87.5737C63.0032 87.5737 61.5622 87.9157 60.4881 88.5367L21.2555 111.228C20.2441 111.813 19.6862 112.569 19.6833 113.358C19.6833 114.147 20.2352 114.903 21.2436 115.488L42.3755 127.8C43.4555 128.43 44.9055 128.775 46.4569 128.775C47.9963 128.775 49.4344 128.433 50.5084 127.812L89.741 105.12C90.7524 104.535 91.3073 103.779 91.3103 102.99C91.3103 102.201 90.7554 101.445 89.747 100.857L68.6151 88.5457C67.5351 87.9157 66.0881 87.5707 64.5397 87.5707V87.5737Z" fill="#989898"/>
<path d="M94.1921 107.949L54.9565 130.64L51.2361 132.791C46.5312 135.512 38.8876 135.5 34.1916 132.764L13.0597 120.453C10.7117 119.085 9.53922 117.291 9.5422 115.5L9.53027 122.487C9.53027 124.277 10.6998 126.071 13.0478 127.439L34.1797 139.751C38.8756 142.487 46.5193 142.499 51.2242 139.778L54.9446 137.627L94.1802 114.936C96.5311 113.577 97.7096 111.786 97.7126 109.995L97.7245 103.008C97.7245 104.799 96.5431 106.59 94.1921 107.949V107.949Z" fill="white"/>
<path d="M42.7335 142.211C39.4308 142.211 36.3221 141.461 33.983 140.096L12.8511 127.785C10.4524 126.387 9.13374 124.506 9.13672 122.487L9.14866 115.5C9.14866 115.281 9.32468 115.104 9.54247 115.104C9.76026 115.104 9.93629 115.284 9.93629 115.503C9.93629 117.225 11.1118 118.863 13.2569 120.111L34.3888 132.422C36.6085 133.715 39.577 134.429 42.7425 134.429C45.9079 134.429 48.8317 133.727 51.0365 132.449L93.9895 107.604C96.1376 106.362 97.322 104.73 97.325 103.008C97.325 102.789 97.501 102.612 97.7188 102.612C97.9366 102.612 98.1156 102.789 98.1126 103.011L98.1037 109.998C98.1007 112.017 96.7761 113.895 94.3744 115.284L51.4184 140.126C49.0943 141.473 46.0064 142.211 42.7276 142.211H42.7335ZM9.93629 118.125L9.92734 122.487C9.92734 124.209 11.1058 125.847 13.2479 127.095L34.3798 139.406C36.5995 140.699 39.5681 141.413 42.7335 141.413C45.899 141.413 48.8228 140.711 51.0276 139.433L93.9835 114.591C96.1316 113.349 97.3161 111.717 97.319 109.992L97.325 105.63C96.6955 106.626 95.705 107.532 94.3893 108.291L51.4363 133.136C49.1122 134.48 46.0243 135.221 42.7455 135.221C39.4666 135.221 36.334 134.471 33.995 133.106L12.8631 120.795C11.5503 120.03 10.5598 119.121 9.93629 118.122V118.125Z" fill="#989898"/>
<path d="M9.01425 43.8829C0.230926 59.1824 0.230926 75.877 9.01425 80.9768L24.224 89.8086L26.6257 91.2005L52.0687 105.972C53.7931 106.974 56.1351 106.74 58.5756 105.324C61.0161 103.908 63.3551 101.424 65.0796 98.4183L90.5196 54.1096L92.9213 49.9307C101.708 34.6311 101.708 17.9366 92.9213 12.8367H92.9183L77.7086 4.00499C68.9223 -1.09487 54.5479 7.25089 45.7616 22.5505L43.3629 26.7323L50.6336 30.9532L40.9582 25.3374C32.1719 20.2375 17.7976 28.5803 9.01127 43.8829H9.01425ZM61.2219 30.9742C68.8536 17.9426 80.519 10.0888 89.1651 11.5138C80.519 10.0888 68.8536 17.9426 61.2219 30.9742ZM55.0581 33.6442C55.431 33.8061 55.8129 33.9561 56.1679 34.1631L58.5756 35.5611L56.1739 34.1661C55.8159 33.9591 55.434 33.8091 55.0581 33.6442V33.6442ZM18.0005 70.1681C18.7881 64.6303 20.8646 58.5705 24.2269 52.7116C30.4027 41.9539 39.3442 34.6341 47.1638 33.0082C39.3472 34.6341 30.4057 41.9539 24.2269 52.7116C20.8646 58.5705 18.7881 64.6303 18.0005 70.1681Z" fill="white"/>
<path d="M50.8246 108.135L7.77019 83.1397C-2.22443 77.3378 -2.63017 59.1673 6.86023 42.6318C14.1757 29.8942 25.5367 21.3354 35.1316 21.3354C37.7272 21.3354 40.108 21.9534 42.2054 23.1684L42.453 23.3123L43.6106 21.2964C50.923 8.55876 62.2841 0 71.8819 0C74.4775 0 76.8583 0.617978 78.9557 1.83294L94.1684 10.6647C99.2194 13.5956 102 19.5925 102 27.5542C102 35.012 99.5416 43.3998 95.0784 51.1726L67.2366 99.6662C65.2855 103.065 62.6511 105.843 59.8197 107.484C57.9969 108.546 56.1948 109.083 54.4644 109.083C53.1338 109.083 51.9106 108.762 50.8276 108.132L50.8246 108.135ZM88.7624 13.9796C88.2253 13.8926 87.6615 13.8476 87.0827 13.8476C79.627 13.8506 70.1067 21.1074 63.7549 31.5921C63.743 31.6101 63.734 31.6251 63.7251 31.6371V31.6461C63.6386 31.7811 63.561 31.9131 63.4805 32.0481C63.4805 32.0481 63.4745 32.0541 63.4715 32.0601C63.4536 32.0931 63.4327 32.1291 63.4118 32.1621L61.222 30.9741L63.3641 32.2431L61.222 30.9741L63.3641 32.2431L61.222 30.9741L59.1425 29.5942C59.1902 29.5162 59.235 29.4382 59.2827 29.3602C59.2827 29.3602 59.2976 29.3362 59.3036 29.3242C59.3036 29.3242 59.3185 29.3002 59.3245 29.2882C59.3334 29.2702 59.3454 29.2522 59.3543 29.2342C59.3663 29.2132 59.3782 29.1892 59.3931 29.1712C65.4675 19.0525 74.1463 11.7147 82.2465 9.52473L76.4615 6.16783C75.1309 5.39685 73.5884 5.00386 71.8759 5.00386C64.1189 5.00386 54.2675 12.7346 47.9127 23.7983L46.7551 25.8143L51.8748 28.7842C52.6714 29.2492 53.1189 30.0892 53.1189 30.9531C53.1189 31.3791 53.0115 31.8081 52.7877 32.2011C52.1403 33.3201 50.7679 33.7551 49.6223 33.2361C49.5238 34.304 48.7392 35.231 47.6412 35.459C47.6323 35.459 47.6174 35.465 47.6174 35.465C47.6114 35.468 47.6054 35.468 47.5995 35.471C40.2631 37.028 31.9333 44.2818 26.3751 53.9625C23.2753 59.3593 21.2316 65.0862 20.4559 70.522C20.259 71.893 18.991 72.832 17.6425 72.643C16.4043 72.466 15.5093 71.395 15.5093 70.168C15.5093 70.051 15.5183 69.931 15.5362 69.811C16.3596 64.0272 18.454 57.9854 21.6075 52.2795C21.7597 52.0065 21.9118 51.7336 22.0699 51.4606C22.0699 51.4606 22.0849 51.4336 22.0938 51.4216C28.1532 40.8859 37.0052 33.1221 45.4752 30.8421L42.1159 28.8922C42.1159 28.8922 42.1129 28.8922 42.1099 28.8922L39.7142 27.5032C38.3835 26.7322 36.8411 26.3393 35.1286 26.3393C27.3716 26.3393 17.5172 34.07 11.1654 45.1337C3.18162 59.0413 2.76393 74.4639 10.2554 78.8108L53.3128 103.809C53.632 103.992 54.0169 104.088 54.4614 104.088C55.2968 104.088 56.2873 103.767 57.3315 103.161C59.3871 101.967 61.4278 99.7832 62.9285 97.1703L90.7702 48.6796C94.8039 41.6538 97.0266 34.154 97.0266 27.5602C97.0266 21.4644 95.1261 17.0065 91.6772 15.0026L89.8304 13.9286C89.4903 14.0216 89.1293 14.0516 88.7683 13.9856L88.7624 13.9796ZM57.3285 37.7269L54.9239 36.329C54.8194 36.272 54.7121 36.218 54.6047 36.17L54.0646 35.939C53.996 35.909 53.9304 35.879 53.8677 35.843L53.8588 35.837L53.8498 35.831C52.7519 35.222 52.3551 33.887 52.8653 32.6961C53.4053 31.4301 54.9597 30.8841 56.2217 31.4271L56.6274 31.6041H56.6334C56.896 31.7241 57.1525 31.8501 57.4031 31.9941L59.8078 33.3921C60.9952 34.082 61.404 35.612 60.7178 36.809C60.2553 37.6099 59.42 38.0599 58.5607 38.0599C58.14 38.0599 57.7134 37.9519 57.3196 37.7269H57.3285Z" fill="#FF671D"/>
<path d="M9.01425 43.883C17.8006 28.5804 32.1749 20.2346 40.9612 25.3375L56.1709 34.1662C47.3846 29.0664 33.0103 37.4121 24.224 52.7117C15.4406 68.0143 15.4406 84.7058 24.224 89.8057L9.01425 80.9739C0.230926 75.8741 0.230926 59.1795 9.01425 43.88V43.883Z" fill="white"/>
<path d="M23.9136 90.3486L8.70393 81.5168C4.25558 78.9339 1.80615 73.513 1.80615 66.2532C1.80615 59.1194 4.17503 51.0617 8.47719 43.5679C15.4674 31.3912 26.1811 23.2104 35.1315 23.2104C37.3989 23.2104 39.4635 23.7444 41.2714 24.7914L56.4841 33.6232C56.7825 33.7971 56.8839 34.1811 56.7109 34.4781C56.5408 34.7751 56.1619 34.8771 55.8606 34.7091H55.8546C54.2376 33.7701 52.3849 33.2932 50.3412 33.2932C41.8174 33.2932 31.5394 41.2219 24.7609 53.0266C16.1298 68.0652 16.0254 84.3187 24.5282 89.2626H24.5342C24.8325 89.4396 24.934 89.8206 24.7609 90.1206C24.6476 90.3216 24.4357 90.4326 24.2239 90.4326C24.1165 90.4326 24.0121 90.4056 23.9136 90.3486V90.3486ZM51.3317 32.0782L40.6509 25.8804C39.0338 24.9414 37.1781 24.4644 35.1315 24.4644C26.6077 24.4644 16.3297 32.3962 9.55123 44.1979C5.35647 51.5057 3.04728 59.3384 3.04728 66.2562C3.04728 73.051 5.27593 78.0849 9.32449 80.4339L20.0113 86.6377C15.0468 79.2399 16.2581 65.3473 23.6869 52.4026C30.6801 40.226 41.3908 32.0452 50.3442 32.0452C50.6753 32.0452 51.0065 32.0572 51.3317 32.0812V32.0782Z" fill="#FF4D00"/>
<path d="M45.7614 22.5473C54.5478 7.2447 68.9221 -1.10107 77.7084 4.00178L92.9211 12.8335C84.1348 7.73068 69.7604 16.0764 60.9741 31.379L58.5754 35.5609L43.3657 26.7292L45.7644 22.5473H45.7614Z" fill="white"/>
<path d="M58.2626 36.104L43.0529 27.2722C42.7545 27.0982 42.6531 26.7142 42.8261 26.4172L45.2278 22.2354C52.2181 10.0587 62.9317 1.87793 71.8821 1.87793C74.1495 1.87793 76.2141 2.41191 78.0221 3.46188L93.2229 12.2876L93.2348 12.2936C93.5331 12.4676 93.6346 12.8516 93.4615 13.1486C93.2915 13.4456 92.9155 13.5446 92.6142 13.3766C90.9972 12.4376 89.1415 11.9606 87.0948 11.9606C78.571 11.9606 68.293 19.8894 61.5146 31.6941L59.1159 35.876C59.0323 36.02 58.8981 36.125 58.737 36.167C58.6833 36.182 58.6296 36.188 58.5759 36.188C58.4685 36.188 58.3581 36.158 58.2656 36.104H58.2626ZM88.0793 10.7427L77.3985 4.54485C75.7815 3.60588 73.9258 3.12889 71.8791 3.12889C63.3554 3.12889 53.0773 11.0577 46.2989 22.8623L44.2105 26.5012L58.3431 34.709L60.4316 31.0671C67.4248 18.8904 78.1354 10.7097 87.0888 10.7097C87.42 10.7097 87.7512 10.7217 88.0764 10.7427H88.0793Z" fill="#FF4D00"/>
<path d="M24.2238 52.7144C33.0101 37.4118 47.3844 29.069 56.1707 34.1689L58.5724 35.5639L60.9711 31.382C69.7574 16.0794 84.1318 7.73365 92.9181 12.8365C101.704 17.9364 101.704 34.6309 92.9181 49.9305L90.5164 54.1123L65.0764 98.4211C63.3519 101.427 61.0129 103.911 58.5724 105.327C56.132 106.743 53.7929 106.977 52.0655 105.975L26.6225 91.2033L24.2208 89.8113C15.4375 84.7115 15.4375 68.017 24.2208 52.7174L24.2238 52.7144Z" fill="white"/>
<path d="M51.7586 106.515L23.9139 90.3484C19.4655 87.7655 17.0161 82.3446 17.0161 75.0878C17.0161 67.954 19.385 59.8963 23.6871 52.4025C30.6804 40.2258 41.391 32.0451 50.3444 32.0451C52.6089 32.0451 54.6734 32.579 56.4844 33.629L58.3461 34.712L60.4345 31.0701C67.4277 18.8934 78.1384 10.7126 87.0918 10.7126C89.3562 10.7126 91.4238 11.2436 93.2318 12.2936C97.6801 14.8765 100.133 20.2974 100.133 27.5572C100.133 34.691 97.7636 42.7458 93.4615 50.2395L65.6198 98.7302C63.8297 101.85 61.4399 104.382 58.8861 105.864C57.3705 106.743 55.84 107.208 54.4586 107.208C53.4621 107.208 52.5552 106.974 51.7586 106.512V106.515ZM61.5115 31.6941L59.1128 35.8759C59.0323 36.0199 58.895 36.1249 58.7369 36.1669C58.5758 36.2119 58.4087 36.1849 58.2655 36.1069L55.8638 34.712C54.2468 33.773 52.3911 33.296 50.3474 33.296C41.8236 33.296 31.5456 41.2248 24.7672 53.0295C20.5724 60.3373 18.2632 68.17 18.2632 75.0878C18.2632 81.8826 20.4919 86.9165 24.5404 89.2654L52.3851 105.432C52.9908 105.783 53.6889 105.963 54.4616 105.963C55.6251 105.963 56.9409 105.555 58.2685 104.784C60.5986 103.431 62.8869 101.001 64.5487 98.1092L92.3904 49.6156C96.5852 42.3108 98.8944 34.475 98.8944 27.5602C98.8944 20.7654 96.6657 15.7285 92.6172 13.3796C91.0001 12.4406 89.1444 11.9636 87.0977 11.9636C78.574 11.9636 68.2959 19.8924 61.5175 31.6971L61.5115 31.6941Z" fill="#FF4D00"/>
</svg>
