<svg width="203" height="207" viewBox="0 0 203 207" fill="none" xmlns="http://www.w3.org/2000/svg">
<path d="M105.58 71.5103L105.803 71.0626C106.044 70.5787 106.177 70.066 106.203 69.5353C106.26 68.3474 106.087 67.1847 105.695 66.0727C105.328 65.0364 104.778 64.0868 104.062 63.2455C104.044 63.2238 104.026 63.2058 104.008 63.1877L84.5597 43.0259L82.5736 35.9021L82.5664 35.8768C81.8575 33.5299 78.7452 31.8906 74.9995 31.8906C71.2538 31.8906 68.3717 33.4143 67.519 35.6204C67.4686 35.7107 67.429 35.8082 67.4002 35.9093C66.7022 38.4476 65.8782 41.4264 65.0435 44.3293C64.8024 44.8745 63.5754 47.6511 57.1455 62.2165C57.0736 62.379 57.0376 62.5523 57.0376 62.7292V114.177C57.0376 118.766 59.4915 123.049 63.4423 125.36L84.2251 137.506C85.1606 138.051 86.2257 138.34 87.3087 138.34C88.3162 138.34 89.3165 138.087 90.2016 137.61L103.054 130.7C104.965 129.671 106.152 127.681 106.152 125.508V76.688C106.152 75.9803 105.958 75.2834 105.587 74.6804C105.454 74.4638 105.389 74.2183 105.397 73.9655L105.436 72.0663C105.44 71.8714 105.487 71.68 105.573 71.5067L105.58 71.5103Z" fill="white"/>
<path d="M87.3123 139.394C86.0458 139.394 84.7972 139.055 83.6998 138.416L62.917 126.27C58.646 123.775 55.9941 119.142 55.9941 114.181V62.733C55.9941 62.4081 56.0625 62.0903 56.192 61.7942L56.2244 61.7148C62.4024 47.7271 63.7553 44.6545 64.0612 43.9685C64.9067 41.0222 65.7523 37.9676 66.3928 35.6315C66.4359 35.4726 66.4971 35.321 66.5727 35.1765C67.6161 32.5805 70.9912 30.8438 74.9995 30.8438C79.2705 30.8438 82.7139 32.7466 83.5667 35.5773L83.5918 35.6604L85.4953 42.4881L104.86 62.5669C105.656 63.5021 106.271 64.5636 106.681 65.719C107.12 66.9575 107.311 68.2573 107.246 69.5824C107.214 70.2576 107.041 70.9111 106.735 71.5286L106.512 71.9763C106.494 72.0088 106.483 72.0521 106.483 72.0918L106.44 73.9946C106.44 74.0452 106.451 74.0957 106.48 74.1427C106.947 74.9117 107.196 75.7963 107.196 76.699V125.519C107.196 128.082 105.796 130.425 103.547 131.635L90.6946 138.546C89.6547 139.105 88.4853 139.398 87.3087 139.398L87.3123 139.394ZM75.0031 32.9379C71.8655 32.9379 69.1921 34.1944 68.4977 35.9961L68.4293 36.137C67.76 38.5453 66.9073 41.6396 66.0509 44.6148L66.0006 44.752C65.7595 45.2936 64.5361 48.0629 58.135 62.5597L58.0991 62.6391C58.0883 62.668 58.0811 62.6969 58.0811 62.7294V114.178C58.0811 118.395 60.3371 122.33 63.9676 124.453L84.7504 136.6C86.2473 137.473 88.1795 137.51 89.7087 136.69L102.561 129.779C104.134 128.934 105.109 127.299 105.109 125.511V76.6918C105.109 76.1755 104.968 75.67 104.699 75.2295C104.465 74.8431 104.342 74.399 104.353 73.9441L104.396 72.0413C104.403 71.6946 104.49 71.3444 104.645 71.0339L104.868 70.5862C105.044 70.2359 105.141 69.8604 105.159 69.4777C105.209 68.427 105.058 67.398 104.709 66.4195C104.385 65.506 103.9 64.6647 103.266 63.9209L83.6242 43.5605L81.5661 36.1839C80.9976 34.2991 78.2378 32.9379 74.9959 32.9379H75.0031Z" fill="#FF4D00"/>
<path d="M105.58 71.5103L105.803 71.0626C106.044 70.5787 106.177 70.066 106.203 69.5353C106.26 68.3474 106.087 67.1847 105.695 66.0727C105.328 65.0364 104.778 64.0868 104.062 63.2455C104.044 63.2238 104.026 63.2058 104.008 63.1877L84.5597 43.0259L82.5736 35.9021C82.5736 35.9021 82.57 35.884 82.5664 35.8768C81.8575 33.5299 78.7452 31.8906 74.9995 31.8906C71.2538 31.8906 68.3717 33.4143 67.519 35.6204C67.4686 35.7107 67.429 35.8082 67.4002 35.9093C66.7022 38.4476 65.8782 41.4264 65.0435 44.3293C64.8024 44.8745 63.5754 47.6511 57.1455 62.2165C57.0736 62.379 57.0376 62.5523 57.0376 62.7292V114.177C57.0376 118.766 59.4915 123.049 63.4423 125.36L84.2251 137.506C85.1606 138.051 86.2257 138.34 87.3087 138.34C88.3162 138.34 89.3165 138.087 90.2016 137.61L103.054 130.7C104.965 129.671 106.152 127.681 106.152 125.508V76.688C106.152 75.9803 105.958 75.2834 105.587 74.6804C105.454 74.4638 105.389 74.2183 105.397 73.9655L105.436 72.0663C105.44 71.8714 105.487 71.68 105.573 71.5067L105.58 71.5103ZM90.1512 107.563C90.1908 107.61 90.2448 107.642 90.3132 107.642C90.3887 107.642 90.4535 107.599 90.4931 107.537C90.7845 107.501 91.0544 107.415 91.2919 107.281L104.896 99.6373V102.042C102.712 103.277 100.464 104.551 98.2183 105.826C95.9263 107.126 93.6306 108.426 91.407 109.686C90.6766 110.097 89.7375 109.881 89.3165 109.202C89.2913 109.162 89.2697 109.119 89.2445 109.075C89.1546 108.902 88.9495 108.494 89.0934 108.144C89.2301 107.815 89.6439 107.592 90.1548 107.559L90.1512 107.563ZM89.3705 80.7644C89.41 81.5515 89.6943 82.5336 89.885 83.1257C89.0502 83.021 88.2334 82.743 87.4886 82.2881L69.9765 71.5897C68.7387 70.8351 67.9723 69.4594 67.9723 68.008C67.9723 67.4266 68.271 66.9103 68.7747 66.6215C69.2749 66.3326 69.8721 66.3362 70.3723 66.6287L88.1579 77.0635C88.7192 77.392 89.3309 77.587 89.957 77.6556C89.518 78.6919 89.3201 79.7354 89.3705 80.7644ZM89.7914 80.7427C89.7411 79.7317 89.9462 78.7063 90.4031 77.6845C91.2055 77.6917 92.0115 77.4895 92.7311 77.0743L104.853 70.0408C104.81 70.1996 104.752 70.3513 104.677 70.4993L104.454 70.947C104.285 71.29 104.191 71.6655 104.184 72.0483L104.144 73.9475C104.134 74.4421 104.263 74.9296 104.522 75.352C104.619 75.5145 104.702 75.6878 104.76 75.8647L93.7134 82.3459C92.6735 82.9561 91.5041 83.2269 90.3491 83.1691C90.1692 82.6311 89.8382 81.5587 89.795 80.7463L89.7914 80.7427ZM90.6478 83.5988C91.7776 83.5988 92.911 83.3027 93.9257 82.7069L104.864 76.2908C104.886 76.4244 104.896 76.5616 104.896 76.6988V80.212L91.0868 87.9712C90.8961 88.0796 90.6766 88.1482 90.4391 88.1771L90.4787 83.5951C90.5362 83.5951 90.5902 83.6024 90.6478 83.6024V83.5988ZM90.2304 88.6139C90.6262 88.6031 90.986 88.5128 91.2919 88.3395L104.896 80.6958V83.1005C102.712 84.3353 100.464 85.6099 98.2183 86.8844C95.9263 88.1843 93.6306 89.4841 91.407 90.7442C90.6766 91.1558 89.7375 90.9392 89.3165 90.2604C89.2913 90.2207 89.2697 90.1773 89.2445 90.134C89.1546 89.9607 88.9495 89.5527 89.0934 89.2025C89.2373 88.8595 89.6835 88.6248 90.2304 88.6139V88.6139ZM90.6118 91.3761C90.9536 91.3761 91.299 91.293 91.6121 91.1125C93.8393 89.8524 96.1314 88.5526 98.4234 87.2527C100.6 86.0179 102.774 84.7866 104.896 83.5879V86.527L91.0868 94.2863C90.9212 94.3801 90.7305 94.4415 90.5255 94.4776V91.3725C90.5542 91.3725 90.583 91.3761 90.6118 91.3761V91.3761ZM90.2304 94.929C90.6262 94.9181 90.986 94.8279 91.2919 94.6546L104.896 87.0108V89.4155C102.702 90.6576 100.446 91.9357 98.1859 93.2175C95.9047 94.5101 93.6198 95.8064 91.4034 97.0593C90.673 97.4709 89.7339 97.2542 89.3129 96.5754C89.2877 96.5357 89.2661 96.4924 89.2409 96.4491C89.151 96.2757 88.9459 95.8677 89.0898 95.5175C89.2337 95.1745 89.6799 94.9398 90.2268 94.929H90.2304ZM90.6118 97.6911C90.9536 97.6911 91.299 97.6081 91.6121 97.4275C93.8285 96.1746 96.1098 94.8784 98.3946 93.5858C100.582 92.3473 102.766 91.1053 104.896 89.9029V92.842L91.0868 100.601C90.9212 100.695 90.7305 100.757 90.5255 100.793V97.6875C90.5542 97.6875 90.583 97.6911 90.6118 97.6911V97.6911ZM90.2304 101.244C90.2304 101.244 90.2592 101.244 90.2736 101.244C90.288 101.244 90.2988 101.251 90.3132 101.251C90.3419 101.251 90.3707 101.244 90.3959 101.233C90.727 101.204 91.0256 101.118 91.2883 100.97L104.893 93.3258V95.7305C102.687 96.9762 100.42 98.2652 98.1499 99.5506C95.8795 100.84 93.6055 102.125 91.3998 103.374C90.6694 103.786 89.7303 103.569 89.3093 102.89C89.2841 102.851 89.2625 102.807 89.2373 102.764C89.1474 102.591 88.9423 102.183 89.0862 101.833C89.2301 101.49 89.6763 101.255 90.2232 101.244H90.2304ZM90.6118 104.006C90.95 104.006 91.299 103.923 91.6121 103.743C93.8177 102.493 96.0918 101.208 98.3622 99.9189C100.561 98.6732 102.756 97.4275 104.896 96.218V99.157L91.0868 106.916C90.9212 107.01 90.7305 107.072 90.5255 107.108V104.003C90.5542 104.003 90.583 104.006 90.6118 104.006V104.006ZM90.6118 110.321C90.9536 110.321 91.299 110.238 91.6121 110.058C93.8393 108.797 96.1314 107.498 98.4234 106.198C100.6 104.963 102.774 103.732 104.896 102.533V105.472L91.0868 113.231C90.9212 113.325 90.7305 113.387 90.5255 113.423V110.318C90.5542 110.318 90.583 110.321 90.6118 110.321V110.321ZM90.2304 113.874C90.6262 113.863 90.986 113.773 91.2919 113.6L104.896 105.956V108.361C102.702 109.603 100.446 110.881 98.1859 112.163C95.9047 113.455 93.6198 114.751 91.4034 116.004C90.673 116.416 89.7339 116.199 89.3129 115.52C89.2877 115.481 89.2661 115.437 89.2409 115.394C89.151 115.221 88.9459 114.813 89.0898 114.463C89.2337 114.12 89.6799 113.885 90.2268 113.874H90.2304ZM90.6118 116.636C90.9536 116.636 91.299 116.553 91.6121 116.373C93.8285 115.12 96.1098 113.824 98.3946 112.531C100.582 111.292 102.766 110.05 104.896 108.848V111.787L91.0868 119.546C90.9212 119.64 90.7305 119.702 90.5255 119.738V116.633C90.5542 116.633 90.583 116.636 90.6118 116.636V116.636ZM90.2088 120.189C90.2412 120.207 90.2772 120.222 90.3168 120.222C90.3671 120.222 90.4139 120.2 90.4499 120.167C90.7593 120.135 91.0436 120.048 91.2919 119.907L104.896 112.264V114.668C102.691 115.914 100.424 117.203 98.1535 118.488C95.8831 119.777 93.6091 121.063 91.4034 122.312C90.673 122.724 89.7339 122.507 89.3129 121.828C89.2877 121.789 89.2661 121.745 89.2409 121.702C89.151 121.529 88.9459 121.121 89.0898 120.77C89.2301 120.431 89.6655 120.204 90.2052 120.182L90.2088 120.189ZM90.6118 122.948C90.95 122.948 91.299 122.865 91.6121 122.684C93.8177 121.435 96.0918 120.149 98.3622 118.86C100.561 117.615 102.756 116.369 104.896 115.159V118.099L91.0868 125.858C90.9212 125.952 90.7305 126.013 90.5255 126.049V122.944C90.5542 122.944 90.583 122.948 90.6118 122.948V122.948ZM90.2304 126.5C90.6262 126.49 90.986 126.399 91.2919 126.226L104.896 118.582V120.987C102.712 122.222 100.464 123.496 98.2183 124.771C95.9263 126.071 93.6306 127.371 91.407 128.631C90.6766 129.042 89.7375 128.826 89.3165 128.147C89.2913 128.107 89.2697 128.064 89.2445 128.021C89.1546 127.847 88.9495 127.439 89.0934 127.089C89.2373 126.746 89.6835 126.511 90.2304 126.5ZM90.5255 129.255C90.5542 129.255 90.583 129.259 90.6118 129.259C90.9536 129.259 91.299 129.176 91.6121 128.995C93.8393 127.735 96.1314 126.435 98.4234 125.136C100.6 123.901 102.774 122.67 104.896 121.471V124.41L91.0868 132.169C90.9212 132.263 90.7305 132.324 90.5255 132.361V129.255V129.255ZM83.5667 43.8166C83.7969 44.6182 84.0236 45.4197 84.2575 46.2177C84.2575 46.3657 84.2359 46.5138 84.2071 46.6582C83.6782 44.7229 83.1565 42.7767 82.6419 40.827L83.4371 43.6794L83.5667 43.813V43.8166ZM83.6602 47.745C82.865 44.5496 82.0806 41.3108 81.3286 38.1154C81.3718 38.0576 81.4114 37.9998 81.451 37.9385C82.2569 41.0617 83.0989 44.2138 83.9481 47.3189C83.8653 47.4634 83.7718 47.6078 83.6602 47.745V47.745ZM82.7967 48.5574C82.0878 45.3114 81.3898 42.0221 80.7169 38.7653C80.8141 38.6823 80.9004 38.5992 80.9868 38.509C81.7388 41.7008 82.5196 44.9323 83.3184 48.1169C83.1637 48.2685 82.9874 48.413 82.7967 48.5574V48.5574ZM81.6129 49.2651C81.0228 45.983 80.4399 42.6504 79.8786 39.3574C80.0441 39.2636 80.1988 39.1625 80.3463 39.0578C81.0156 42.3074 81.7136 45.5858 82.4189 48.8174C82.1706 48.9762 81.9007 49.1243 81.6093 49.2651H81.6129ZM80.0477 49.8717C79.6087 46.5499 79.1769 43.192 78.7631 39.881C79.0186 39.7871 79.2597 39.6824 79.49 39.5669C80.0477 42.8526 80.6306 46.1744 81.2207 49.4456C80.8573 49.6009 80.4651 49.7453 80.0477 49.8717ZM70.7861 49.9944C71.2251 46.6871 71.6568 43.3328 72.0706 40.0182C72.4052 40.1265 72.7615 40.2132 73.1285 40.2854C72.8982 43.6216 72.6571 46.9976 72.4124 50.3338C71.8439 50.2436 71.3006 50.128 70.7861 49.9908V49.9944ZM69.2029 49.4528C69.7966 46.1671 70.3759 42.8453 70.9336 39.5633C71.1639 39.6788 71.4086 39.7835 71.664 39.8774C71.2502 43.1992 70.8149 46.5607 70.3759 49.8753C69.9621 49.7489 69.5663 49.6081 69.2029 49.4492V49.4528ZM67.9975 48.8282C68.7064 45.5894 69.4044 42.3037 70.0736 39.0506C70.2212 39.1553 70.3795 39.2564 70.545 39.3538C69.9873 42.6431 69.4008 45.9794 68.8071 49.2759C68.5157 49.1351 68.2458 48.9871 67.9975 48.8282ZM67.098 48.1349C67.8968 44.9431 68.6812 41.7044 69.4332 38.5053C69.5195 38.592 69.6095 38.6786 69.703 38.7617C69.0302 42.0221 68.3321 45.3222 67.6197 48.5718C67.429 48.431 67.2527 48.2866 67.098 48.1349ZM66.4647 47.337C67.3175 44.2246 68.1594 41.0617 68.9726 37.9276C69.0122 37.989 69.0518 38.0468 69.095 38.1046C68.3429 41.3108 67.555 44.5568 66.7562 47.7594C66.6446 47.6222 66.5475 47.4814 66.4647 47.3334V47.337ZM66.1445 46.2177C66.3136 45.6364 66.4827 45.0551 66.6518 44.4665L68.6128 37.09C68.6344 37.1766 68.656 37.2597 68.6848 37.3463C67.8824 40.4551 67.0476 43.5927 66.2021 46.6871C66.1661 46.5318 66.1445 46.3766 66.1409 46.2177H66.1445ZM73.5422 40.3612C74.01 40.4334 74.4993 40.4731 75.0031 40.484V50.5505C74.2511 50.5432 73.5243 50.4927 72.8262 50.3988C73.0709 47.0662 73.312 43.6938 73.5422 40.3612V40.3612ZM75.4241 40.484C75.9242 40.4731 76.4136 40.4334 76.8813 40.3612C77.1152 43.7119 77.3527 47.0842 77.5974 50.3952C76.9029 50.4855 76.1761 50.5396 75.4241 50.5505V40.4876V40.484ZM79.6375 49.9908C79.1266 50.1316 78.5832 50.2472 78.0147 50.3374C77.7701 47.0229 77.5326 43.6469 77.2987 40.2926C77.6657 40.2204 78.0183 40.1301 78.353 40.0254L79.6375 49.9908ZM81.361 36.2523L81.4546 36.5917C81.415 38.5126 78.63 40.0724 75.2118 40.0724C74.5677 40.0724 73.9452 40.0182 73.3623 39.9135C72.4268 39.751 71.5849 39.4658 70.8976 39.0903C70.8832 39.0794 70.8724 39.0758 70.8544 39.0686C70.5738 38.9133 70.3183 38.7436 70.0916 38.5631C70.0736 38.5414 70.0521 38.5234 70.0269 38.509C69.8254 38.3393 69.6491 38.1587 69.5015 37.971C69.4908 37.9529 69.48 37.9385 69.4656 37.924C69.1453 37.5016 68.969 37.0358 68.969 36.5484C68.969 36.3642 68.9942 36.1801 69.0446 35.9995C69.1453 35.6385 69.2928 35.3893 69.3936 35.2341C69.5951 34.9236 69.8398 34.678 70.0808 34.4831C71.2646 33.6779 73.0313 33.1652 75.0031 33.1652C78.1874 33.1652 80.8357 34.4975 81.361 36.2523V36.2523ZM65.9142 45.4956C65.853 45.7086 65.7919 45.9216 65.7271 46.1346C65.7199 46.1527 65.7199 46.1744 65.7199 46.196C65.7199 46.6112 65.8242 47.012 66.0221 47.3948C66.0221 47.4706 66.0581 47.5356 66.1229 47.5753C66.2704 47.8208 66.4539 48.0591 66.677 48.2902C66.6986 48.3335 66.731 48.3624 66.7742 48.3841C67.0116 48.6152 67.2815 48.839 67.5873 49.0448C67.6161 49.0845 67.6593 49.117 67.7133 49.1279H67.7205C68.0551 49.3445 68.4257 49.5503 68.8287 49.7345C68.8575 49.7597 68.8899 49.7814 68.9294 49.785C68.9366 49.785 68.9474 49.785 68.9546 49.785C69.4116 49.9872 69.9117 50.1713 70.4407 50.3266C70.4658 50.341 70.4946 50.3555 70.5234 50.3591C70.5342 50.3591 70.5414 50.3591 70.5522 50.3591C71.1783 50.536 71.8511 50.6805 72.5564 50.7852C72.5672 50.7852 72.5744 50.7924 72.5815 50.7924C72.5851 50.7924 72.5923 50.7924 72.5959 50.7924H72.6031C73.3947 50.9043 74.2295 50.9693 75.0895 50.9729C75.1218 50.9946 75.1614 51.0126 75.2046 51.0126C75.2478 51.0126 75.2873 50.9946 75.3233 50.9729C76.1509 50.9657 76.9533 50.9079 77.7161 50.7996C77.7485 50.8177 77.7809 50.8285 77.8168 50.8285C77.8204 50.8285 77.8276 50.8285 77.8312 50.8285C77.8852 50.8249 77.932 50.7996 77.9644 50.7635C78.5976 50.666 79.2057 50.5324 79.7778 50.3735C79.8066 50.388 79.8354 50.3952 79.8642 50.3952C79.875 50.3952 79.8822 50.3952 79.893 50.3952C79.9577 50.388 80.0081 50.3483 80.0405 50.2977C80.5154 50.1533 80.9616 49.9908 81.379 49.8103C81.4006 49.8175 81.4258 49.8247 81.451 49.8247C81.4617 49.8247 81.4761 49.8247 81.4869 49.8247C81.5589 49.8103 81.6165 49.7597 81.6417 49.6947C81.9907 49.5286 82.3145 49.3517 82.6132 49.164C82.6275 49.164 82.6419 49.1712 82.6563 49.1712C82.6707 49.1712 82.6851 49.1712 82.7031 49.1676C82.7895 49.1495 82.8506 49.0809 82.865 48.9979C83.1169 48.821 83.3472 48.6368 83.5523 48.4455C83.5523 48.4455 83.5882 48.4455 83.6026 48.4382C83.6962 48.413 83.7574 48.3299 83.7574 48.236C83.9373 48.0447 84.0956 47.8425 84.2251 47.6367C84.2323 47.6367 84.2359 47.6367 84.2431 47.6367C84.3547 47.6042 84.4194 47.4886 84.3906 47.3767L84.3834 47.355C84.5669 46.9831 84.6677 46.5932 84.6677 46.1924C84.6677 46.1708 84.6677 46.1527 84.6605 46.131C84.4986 45.5786 84.3403 45.0226 84.1819 44.4665C90.4859 51.0018 96.7934 57.5407 103.097 64.076C103.518 64.5706 104.101 65.3794 104.501 66.5059C104.914 67.6758 104.972 68.7301 104.936 69.4811C104.936 69.4883 104.936 69.4955 104.936 69.5028L92.5116 76.7132C91.8855 77.0743 91.1875 77.2584 90.4895 77.2657C90.565 76.3341 90.4751 75.4315 90.216 74.5793C89.6763 72.8137 88.5429 71.7197 88.0571 71.2503C86.4236 69.6761 85.0491 68.3329 83.8329 67.145C78.1119 61.5593 76.5755 60.0573 72.9701 58.6708C70.0125 57.5335 67.2167 56.4611 63.9856 57.5407C61.5641 58.3495 59.9017 60.0284 58.8367 61.516C60.3659 58.057 64.6944 48.2469 65.9106 45.4919L65.9142 45.4956ZM102.46 129.598L89.6079 136.509C88.8883 136.896 88.1003 137.087 87.3123 137.087C86.4668 137.087 85.6176 136.867 84.862 136.423L64.0792 124.276C60.5026 122.186 58.3005 118.344 58.3005 114.188V62.74L58.3833 62.5559C58.3833 62.5559 58.3941 62.5667 58.4013 62.5739C58.4984 62.6353 58.6316 62.6064 58.6927 62.5053C59.6642 60.9311 61.3949 58.8586 64.1223 57.9487C67.2095 56.916 69.9369 57.9631 72.8226 59.0716C76.3452 60.4256 77.8708 61.9132 83.5415 67.4519C84.7576 68.6398 86.1321 69.983 87.7693 71.5608C88.2298 72.0049 89.3093 73.0448 89.8166 74.7093C90.0613 75.5145 90.1476 76.3702 90.0721 77.2548C89.4784 77.2007 88.8955 77.0201 88.3666 76.7096L70.581 66.2748C69.9513 65.903 69.1957 65.903 68.5588 66.2676C67.9256 66.6323 67.5478 67.2894 67.5478 68.0224C67.5478 69.6219 68.3933 71.1348 69.757 71.9652L87.2691 82.6636C88.1255 83.1871 89.0754 83.4904 90.0361 83.5843L90.0541 83.6312L90.0145 88.224C89.3848 88.2926 88.8919 88.5995 88.7012 89.0581C88.4817 89.5888 88.7624 90.1376 88.8667 90.3434C88.8955 90.3976 88.9243 90.4481 88.9531 90.4987C89.2157 90.9211 89.6331 91.2064 90.1009 91.3255V94.5282C89.4316 94.5751 88.8991 94.8892 88.7012 95.3695C88.4817 95.9002 88.7624 96.449 88.8667 96.6549C88.8955 96.709 88.9243 96.7596 88.9567 96.8101C89.2193 97.2326 89.6367 97.5178 90.1045 97.6369V100.84C89.4352 100.887 88.9027 101.201 88.7048 101.681C88.4853 102.212 88.766 102.76 88.8703 102.966C88.8991 103.02 88.9279 103.071 88.9603 103.122C89.2229 103.548 89.6439 103.829 90.1117 103.948C90.1117 103.956 90.1117 103.959 90.1117 103.966V107.155C89.4424 107.202 88.9099 107.516 88.712 107.996C88.4925 108.527 88.7732 109.075 88.8775 109.281C88.9063 109.335 88.9351 109.386 88.9639 109.437C89.2265 109.859 89.6439 110.144 90.1117 110.263V113.466C89.4424 113.513 88.9099 113.827 88.712 114.307C88.4925 114.838 88.7732 115.387 88.8775 115.593C88.9063 115.647 88.9351 115.697 88.9675 115.748C89.2301 116.17 89.6475 116.456 90.1153 116.575V119.777C89.446 119.824 88.9135 120.139 88.7156 120.619C88.4961 121.15 88.7768 121.698 88.8811 121.904C88.9099 121.958 88.9387 122.009 88.9711 122.059C89.2337 122.482 89.6511 122.767 90.1189 122.886V126.089C89.4496 126.136 88.9171 126.45 88.7192 126.93C88.4997 127.461 88.7804 128.01 88.8847 128.216C88.9135 128.27 88.9423 128.32 88.9711 128.371C89.2337 128.793 89.6511 129.078 90.1189 129.198V132.4C89.4496 132.447 88.9171 132.761 88.7192 133.242C88.4997 133.772 88.7804 134.321 88.8847 134.527C88.9135 134.581 88.9423 134.632 88.9747 134.682C89.3309 135.256 89.9713 135.574 90.6298 135.574C90.9716 135.574 91.317 135.491 91.6301 135.31C93.8681 134.047 95.9371 132.873 98.006 131.696C99.9454 130.599 101.888 129.497 103.968 128.32C103.576 128.837 103.076 129.273 102.482 129.591L102.46 129.598ZM104.299 127.786C104.234 127.739 104.144 127.728 104.072 127.771C101.863 129.021 99.8194 130.18 97.7757 131.339C95.7068 132.512 93.6378 133.686 91.3998 134.949C90.6694 135.361 89.7303 135.144 89.3093 134.466C89.2841 134.426 89.2625 134.383 89.2373 134.339C89.1474 134.166 88.9423 133.758 89.0862 133.408C89.2301 133.065 89.6763 132.83 90.2232 132.819C90.619 132.808 90.9788 132.718 91.2847 132.545L104.889 124.901V125.522C104.889 126.331 104.677 127.103 104.296 127.786H104.299Z" fill="#FF671D"/>
<path d="M153.14 184.549C152.662 184.6 152.136 184.379 151.755 184.08L105.645 157.466C105.055 157.123 104.652 156.53 104.558 155.852L98.8802 115.726C98.7542 114.831 99.1824 113.946 99.9632 113.491L115.705 104.335L115.475 103.837C113.528 99.6302 115.079 94.7088 119.08 92.3908L146.016 76.7856C148.142 75.558 150.758 75.2619 153.122 76.0057C155.486 76.7603 157.44 78.4826 158.483 80.7392L170.645 107.01L201.891 125.046C202.748 125.54 203.172 126.54 202.935 127.501L195.001 159.769C194.857 160.354 194.483 160.856 193.961 161.159L154.281 184.242C154.255 184.257 154.23 184.271 154.201 184.285C153.878 184.459 153.521 184.545 153.165 184.545H153.144L153.14 184.549ZM155.263 173.786C156.27 174.035 156.947 174.941 156.947 175.938C156.947 176.115 156.925 176.291 156.882 176.472L156.558 177.786L190.928 157.794L198.239 128.068L167.828 110.516C167.432 110.285 167.115 109.942 166.925 109.527L165.78 107.061C165.698 107.176 165.6 107.285 165.492 107.382C164.78 108.036 163.729 108.151 162.895 107.671L140.762 94.893L122.516 105.508C121.98 105.819 121.34 105.887 120.742 105.707C120.735 105.707 120.732 105.703 120.724 105.7C120.599 106.299 120.232 106.837 119.67 107.166L103.471 116.589L108.789 154.158L151.719 178.938L152.586 175.414C152.834 174.4 153.737 173.724 154.73 173.724C154.907 173.724 155.083 173.742 155.263 173.789V173.786ZM141.86 90.3977L159.052 100.32L151.496 83.996C151.359 83.7 151.1 83.4761 150.798 83.3786C150.492 83.2775 150.146 83.3172 149.866 83.4797L122.93 99.085C122.444 99.3666 122.236 99.919 122.401 100.435L139.647 90.4013C139.989 90.2028 140.374 90.1017 140.755 90.1017C141.137 90.1017 141.518 90.1991 141.856 90.3977H141.86Z" fill="#818181"/>
<path d="M161.099 150.064L153.166 182.328L106.75 155.537L101.072 115.412L161.099 150.064Z" fill="white"/>
<path d="M152.888 182.812L106.472 156.021C106.325 155.938 106.224 155.786 106.199 155.617L100.521 115.492C100.492 115.282 100.582 115.073 100.758 114.954C100.935 114.834 101.161 114.827 101.345 114.932L161.373 149.58C161.585 149.702 161.693 149.955 161.635 150.193L153.701 182.462C153.658 182.632 153.543 182.772 153.381 182.837C153.313 182.87 153.237 182.884 153.165 182.884C153.072 182.884 152.975 182.859 152.888 182.812V182.812ZM101.777 116.466L107.257 155.194L152.798 181.487L160.459 150.342L101.773 116.47L101.777 116.466Z" fill="#989898"/>
<path d="M192.853 159.242L153.166 182.328L161.099 150.064L200.787 126.977L192.853 159.242Z" fill="white"/>
<path d="M152.834 182.776C152.654 182.643 152.575 182.415 152.629 182.198L160.563 149.934C160.599 149.786 160.692 149.659 160.822 149.587L200.509 126.497C200.704 126.378 200.941 126.399 201.117 126.533C201.297 126.667 201.377 126.894 201.323 127.111L193.389 159.375C193.353 159.524 193.259 159.65 193.13 159.722L153.442 182.812C153.356 182.863 153.259 182.888 153.165 182.888C153.046 182.888 152.931 182.852 152.834 182.776V182.776ZM199.941 128.111L161.581 150.425L154.014 181.195L192.374 158.881L199.941 128.111Z" fill="#989898"/>
<path d="M200.786 126.977L161.099 150.064L101.071 115.412L140.762 92.3257L200.786 126.977Z" fill="white"/>
<path d="M160.826 150.544L100.798 115.893C100.625 115.792 100.521 115.611 100.521 115.412C100.521 115.214 100.625 115.03 100.798 114.932L140.489 91.8421C140.658 91.7446 140.871 91.741 141.043 91.8421L201.071 126.49C201.244 126.591 201.348 126.771 201.348 126.97C201.348 127.169 201.244 127.353 201.071 127.45L161.383 150.54C161.297 150.591 161.204 150.616 161.106 150.616C161.009 150.616 160.916 150.591 160.829 150.544H160.826ZM140.763 92.965L102.18 115.409L161.099 149.417L199.682 126.974L140.763 92.965V92.965Z" fill="#989898"/>
<path d="M141.421 97.4131L192.007 126.612L165.035 142.304L146.728 131.725L141.421 97.4131Z" fill="white"/>
<path d="M164.762 142.785L146.455 132.206C146.311 132.123 146.21 131.975 146.185 131.808L140.878 97.4964C140.845 97.287 140.935 97.0776 141.111 96.9548C141.288 96.8321 141.514 96.8248 141.702 96.9295L192.284 126.125C192.457 126.226 192.561 126.407 192.561 126.605C192.561 126.804 192.457 126.988 192.284 127.086L165.316 142.778C165.23 142.828 165.136 142.853 165.039 142.853C164.942 142.853 164.848 142.828 164.762 142.781V142.785ZM142.148 98.4713L147.236 131.375L165.039 141.662L190.902 126.613L142.148 98.4713V98.4713Z" fill="#989898"/>
<path d="M165.036 142.304L160.441 144.976L142.173 134.433L146.729 131.725L165.036 142.304Z" fill="white"/>
<path d="M160.164 145.46L141.9 134.917C141.731 134.819 141.623 134.639 141.623 134.44C141.623 134.242 141.724 134.058 141.893 133.96L146.448 131.248C146.617 131.144 146.833 131.144 147.006 131.245L165.313 141.824C165.486 141.925 165.59 142.106 165.59 142.304C165.59 142.503 165.486 142.687 165.317 142.784L160.718 145.46C160.632 145.51 160.538 145.536 160.441 145.536C160.344 145.536 160.251 145.51 160.164 145.464V145.46ZM146.732 132.368L143.271 134.429L160.438 144.337L163.931 142.304L146.732 132.368V132.368Z" fill="#989898"/>
<path d="M141.422 97.4131L146.729 131.725L142.174 134.433L109.855 115.777L141.422 97.4131Z" fill="white"/>
<path d="M141.9 134.917L109.578 116.261C109.405 116.159 109.301 115.979 109.301 115.78C109.301 115.582 109.405 115.398 109.578 115.3L141.144 96.9364C141.303 96.8461 141.497 96.8353 141.659 96.9147C141.824 96.9942 141.939 97.1494 141.968 97.33L147.275 131.642C147.311 131.866 147.207 132.09 147.009 132.205L142.454 134.917C142.368 134.967 142.27 134.996 142.173 134.996C142.076 134.996 141.983 134.971 141.896 134.924L141.9 134.917ZM141 98.3012L110.96 115.777L142.17 133.794L146.124 131.44L141 98.3012Z" fill="#989898"/>
<path d="M132.17 132.375C132.4 132.375 132.634 132.325 132.861 132.22C133.681 131.837 134.037 130.859 133.656 130.036L120.454 101.515C119.713 99.9156 120.303 98.0453 121.825 97.1607L148.761 81.5555C149.578 81.0825 150.563 80.9741 151.463 81.2594C152.363 81.5446 153.107 82.2018 153.503 83.0575L166.331 110.766C166.712 111.589 167.691 111.943 168.507 111.564C169.328 111.181 169.684 110.202 169.303 109.379L156.475 81.6674C155.691 79.974 154.226 78.6814 152.449 78.1181C150.675 77.5585 148.732 77.7679 147.12 78.703L120.184 94.3083C117.184 96.0486 116.018 99.7387 117.479 102.894L130.68 131.415C130.957 132.014 131.551 132.368 132.166 132.368L132.17 132.375Z" fill="white"/>
<path d="M130.18 131.656L116.979 103.136C115.396 99.7166 116.655 95.716 119.908 93.8313L146.843 78.226C148.567 77.2295 150.708 76.9912 152.615 77.5942C154.536 78.208 156.126 79.6089 156.972 81.4395L169.799 109.148C170.307 110.249 169.832 111.56 168.734 112.069C167.669 112.571 166.316 112.065 165.823 111L152.996 83.2918C152.665 82.5733 152.043 82.0244 151.291 81.7861C150.546 81.5514 149.707 81.6417 149.035 82.0353L122.099 97.6405C120.825 98.3771 120.332 99.9405 120.951 101.28L134.153 129.801C134.401 130.335 134.426 130.931 134.221 131.483C134.02 132.036 133.617 132.472 133.084 132.722C132.793 132.859 132.483 132.927 132.163 132.927C131.314 132.927 130.533 132.429 130.173 131.656H130.18ZM151.629 80.7318C152.676 81.064 153.539 81.8295 154.004 82.826L166.831 110.534C167.076 111.061 167.748 111.303 168.274 111.065C168.817 110.812 169.055 110.162 168.803 109.617L155.975 81.9089C155.256 80.3599 153.914 79.172 152.287 78.6521C150.675 78.143 148.858 78.3416 147.401 79.1901L120.465 94.7953C117.713 96.3876 116.648 99.7744 117.986 102.667L131.188 131.187C131.432 131.714 132.091 131.963 132.631 131.718C132.893 131.595 133.095 131.378 133.192 131.104C133.293 130.83 133.278 130.537 133.156 130.27L119.954 101.749C119.091 99.8863 119.778 97.7091 121.552 96.6801L148.488 81.0748C149.081 80.7318 149.761 80.5477 150.449 80.5477C150.852 80.5477 151.247 80.6091 151.632 80.7282L151.629 80.7318Z" fill="#989898"/>
<path d="M168.274 94.5031C166.28 94.5031 164.453 94.0301 162.848 93.0985L150.28 85.8158C146.422 83.5808 144.296 79.0314 144.296 73.0089C144.296 62.8521 150.593 50.5362 159.099 43.8131C158.253 39.7728 156.627 35.5881 154.356 31.6452C150.862 25.5721 146.246 20.6689 141.36 17.8381C139.586 16.8091 137.862 16.105 136.225 15.7403C136.117 16.0978 136.02 16.4733 135.93 16.8632L145.775 22.5681C145.933 22.6367 146.084 22.7269 146.217 22.8316C149.92 25.1389 151.942 29.6088 151.942 35.4834C151.942 47.0519 143.821 61.1695 133.836 66.9538C128.669 69.947 123.599 70.3659 119.793 68.1598L107.224 60.8771C103.367 58.6421 101.244 54.0927 101.244 48.0701C101.244 37.137 108.458 23.9293 117.781 17.6106C119.005 13.202 121.379 9.87302 124.675 7.96299C124.675 7.96299 124.679 7.96299 124.682 7.95938L135.257 1.8321C140.295 -1.08891 146.962 -0.503986 153.86 3.493C160.451 7.30946 166.626 13.8375 171.246 21.8712C174.891 28.2079 177.237 34.8948 178.064 41.2785L189.021 47.626H189.024C192.878 49.8646 195.001 54.414 195.001 60.433C195.001 72.0015 186.88 86.1191 176.895 91.9034C173.908 93.6329 171.008 94.5103 168.277 94.5103L168.274 94.5031ZM164.769 89.7659C165.784 90.3544 166.964 90.6541 168.274 90.6541C170.292 90.6541 172.61 89.932 174.97 88.5635C183.893 83.3931 191.154 70.7702 191.154 60.4293C191.154 55.8402 189.712 52.4751 187.092 50.9586C187.034 50.9261 186.977 50.8936 186.916 50.8611C186.916 50.8611 186.912 50.8611 186.909 50.8575C186.696 50.7456 186.473 50.6409 186.243 50.5506H186.236C186.236 50.5506 186.225 50.5434 186.221 50.5398C186.2 50.5325 186.178 50.5253 186.157 50.5145C185.495 50.2654 184.768 50.1173 184.001 50.0776C183.782 50.0668 183.577 50.0198 183.386 49.944C183.195 50.0307 182.987 50.0848 182.767 50.1065C182.037 50.1715 181.209 50.3484 180.313 50.63C180.155 50.6806 179.997 50.7095 179.838 50.7167C179.705 50.8178 179.554 50.9008 179.392 50.9622C178.478 51.3197 177.654 51.7132 176.881 52.161C175.963 52.6953 174.786 52.3776 174.258 51.4533C174.081 51.15 173.998 50.8178 173.998 50.4928C173.998 49.8249 174.344 49.1786 174.959 48.8211C175.902 48.2759 176.895 47.7993 177.996 47.3696C178.19 47.2938 178.392 47.2505 178.593 47.2396C178.759 47.1133 178.949 47.0158 179.162 46.9508C179.388 46.8786 179.615 46.8136 179.838 46.7522L175.297 44.12C174.765 43.8131 174.412 43.2679 174.347 42.6541C173.7 36.5088 171.473 29.9843 167.907 23.7849C163.618 16.3289 157.944 10.3027 151.927 6.81841C146.318 3.56883 140.968 2.95141 137.164 5.15751L135.002 6.41041C136.06 6.60538 137.136 6.89062 138.226 7.26613L137.672 9.11117L137.038 10.9309C137.038 10.9309 137.031 10.9309 137.024 10.9273C137.017 10.9273 137.01 10.9237 137.006 10.9201C136.966 10.9057 136.923 10.8912 136.884 10.8804C135.056 10.263 133.354 9.95968 131.771 9.95968C129.849 9.95968 128.104 10.4074 126.586 11.2848C124.035 12.7615 122.207 15.5201 121.304 19.2571C121.185 19.7409 120.886 20.1634 120.465 20.4306C111.83 25.9296 105.069 38.065 105.069 48.0593C105.069 52.6484 106.512 56.0099 109.131 57.53L115.486 61.2092C115.673 60.9312 115.939 60.7001 116.263 60.5485C117.223 60.1008 118.364 60.5196 118.814 61.4837C119.336 62.6138 120.023 63.5345 120.858 64.2241C121.124 64.4444 121.408 64.643 121.707 64.8163C124.283 66.3075 128.014 65.867 131.911 63.6103C140.834 58.4399 148.095 45.8207 148.095 35.4761C148.095 30.887 146.653 27.5219 144.033 26.0054C144.033 26.0054 144.026 26.0018 144.022 25.9982C144.022 25.9982 144.015 25.9946 144.012 25.991C144.008 25.991 144.004 25.9874 144.001 25.9837C144.001 25.9837 143.994 25.9765 143.99 25.9765C143.99 25.9765 143.986 25.9765 143.983 25.9765C143.979 25.9765 143.972 25.9693 143.968 25.9693C142.957 25.406 141.806 25.1244 140.536 25.1244C138.647 25.1244 136.499 25.7563 134.297 26.9586C134.153 27.038 134.009 27.1175 133.861 27.2005C132.76 27.8396 131.684 28.5906 130.634 29.4464C129.597 30.2913 128.579 31.2481 127.604 32.2916C125.193 34.8659 123.034 37.9855 121.361 41.3109C119.31 45.3802 118.055 49.5685 117.734 53.4247C117.644 54.4862 116.705 55.2697 115.662 55.1831C114.658 55.1 113.902 54.2587 113.902 53.2658C113.902 53.2117 113.902 53.1575 113.91 53.1033C114.273 48.7561 115.665 44.0767 117.936 39.5706C119.775 35.9239 122.149 32.4937 124.805 29.6558C125.895 28.4895 127.043 27.41 128.212 26.4567C129.418 25.471 130.666 24.6009 131.918 23.8787C133.573 22.9219 135.196 22.2287 136.772 21.7954L132.839 19.5171C132.156 19.1199 131.785 18.3436 131.9 17.5601C132.167 15.7764 132.613 14.1733 133.224 12.7977C133.563 12.0358 134.347 11.5736 135.178 11.6675C137.78 11.9419 140.503 12.8951 143.281 14.5019C144.537 15.2312 145.778 16.0761 146.987 17.0329C146.581 16.6755 146.17 16.3289 145.757 15.9931C144.317 14.8268 142.839 13.805 141.363 12.9493C140.748 12.5918 140.403 11.9455 140.403 11.2776C140.403 10.9526 140.485 10.6204 140.662 10.3171C141.191 9.39641 142.364 9.07868 143.285 9.61305C144.933 10.5663 146.577 11.7036 148.167 12.9926C149.736 14.26 151.28 15.697 152.751 17.2568C153.104 17.6287 153.277 18.1053 153.277 18.5819C153.277 18.7227 153.262 18.8671 153.23 19.0044C153.838 18.9394 154.479 19.1704 154.903 19.6832C157.015 22.2142 158.955 25.0089 160.667 27.9877C163.283 32.5371 165.233 37.2779 166.457 42.0836C166.496 42.2425 166.518 42.405 166.518 42.5638C166.518 43.4232 165.942 44.2067 165.075 44.4306C164.24 44.6436 163.406 44.2789 162.974 43.5929C163.021 43.8276 163.064 44.0623 163.103 44.297C163.229 45.0227 162.931 45.7557 162.337 46.1889C154.241 52.0562 148.139 63.5851 148.139 73.0089C148.139 77.598 149.581 80.9631 152.201 82.4796L163.053 88.7657C163.362 88.8235 163.665 88.9571 163.927 89.1737C164.194 89.394 164.478 89.5926 164.776 89.7659H164.769ZM150.701 20.3945C150.985 20.6869 151.265 20.983 151.542 21.2863C151.521 21.1671 151.506 21.0408 151.506 20.9216C151.506 20.7808 151.521 20.6364 151.553 20.4992C151.265 20.5317 150.974 20.4956 150.697 20.3945H150.701ZM158.789 82.2196C157.728 82.2196 156.871 81.3567 156.871 80.2915C156.871 73.9765 159.26 66.6866 163.424 60.2921C163.672 59.9094 164.032 59.6458 164.431 59.5159C164.431 59.487 164.431 59.4617 164.431 59.4364C164.431 59.0392 164.553 58.6385 164.805 58.2955C166.259 56.3132 167.849 54.5079 169.526 52.93C170.3 52.2007 171.516 52.2404 172.239 53.0203C172.584 53.3922 172.757 53.8652 172.757 54.3346C172.757 54.8509 172.552 55.3636 172.149 55.7427C170.641 57.1617 169.209 58.7865 167.896 60.581C167.651 60.9168 167.317 61.1479 166.95 61.2706C166.95 61.2959 166.95 61.3248 166.95 61.3501C166.95 61.7111 166.849 62.0758 166.637 62.4008C162.869 68.185 160.711 74.7059 160.711 80.2915C160.711 81.3567 159.851 82.2196 158.789 82.2196V82.2196Z" fill="#FF4D00"/>
<path d="M132.426 17.058C129.324 15.2599 125.035 15.5199 120.3 18.264C110.83 23.7485 103.155 37.0935 103.155 48.0663C103.155 53.5509 105.073 57.407 108.178 59.2051L120.75 66.4878C117.648 64.6897 115.727 60.8335 115.727 55.349C115.727 44.3762 123.401 31.0348 132.872 25.5466C137.607 22.8025 141.892 22.5426 144.994 24.3407L132.422 17.058H132.426Z" fill="white"/>
<path d="M120.75 66.9681C120.671 66.9681 120.588 66.9464 120.513 66.9031L107.941 59.6204C104.548 57.6526 102.68 53.5509 102.68 48.0663C102.68 36.9564 110.481 23.402 120.066 17.8488C124.769 15.1228 129.31 14.7003 132.671 16.6428L145.235 23.9219H145.243C145.473 24.0591 145.552 24.3552 145.419 24.5827C145.286 24.8137 144.994 24.8932 144.764 24.7596C141.706 22.9867 137.517 23.4164 133.12 25.9655C123.798 31.3671 116.216 44.5459 116.216 55.349C116.216 60.4364 117.889 64.224 120.926 66.0293C121.121 66.0907 121.265 66.2748 121.265 66.4879C121.265 66.755 121.056 66.9392 120.775 66.9717H120.761L120.75 66.9681ZM127.961 16.3937C125.654 16.3937 123.161 17.1628 120.545 18.6792C111.222 24.0808 103.637 37.2596 103.637 48.0627C103.637 53.1898 105.336 56.9991 108.419 58.7827L117.497 64.0434C116.029 61.8554 115.252 58.891 115.252 55.349C115.252 44.239 123.053 30.6846 132.638 25.1315C135.682 23.3695 138.618 22.5535 141.277 22.7412L132.188 17.4769C130.951 16.7584 129.529 16.3973 127.961 16.3973V16.3937Z" fill="#FF671D"/>
<path d="M150.021 35.4835C150.021 46.4563 142.346 59.7976 132.876 65.2858C128.141 68.0299 123.855 68.2899 120.75 66.4918C117.648 64.6937 115.727 60.8411 115.727 55.3529C115.727 44.3801 123.402 31.0388 132.872 25.5506C137.607 22.8065 141.893 22.5465 144.994 24.3446C148.096 26.1427 150.017 29.9989 150.017 35.4835H150.021Z" fill="white"/>
<path d="M125.219 68.113C123.481 68.113 121.898 67.705 120.512 66.9034C117.119 64.9356 115.252 60.8339 115.252 55.3457C115.252 44.2357 123.053 30.6814 132.638 25.1282C137.345 22.4021 141.885 21.9761 145.242 23.9222C148.635 25.89 150.503 29.9917 150.503 35.4799C150.503 46.5899 142.702 60.1443 133.117 65.6974C130.353 67.3006 127.694 68.113 125.219 68.113V68.113ZM140.536 23.6767C138.23 23.6767 135.736 24.4458 133.117 25.9622C123.794 31.3638 116.213 44.5426 116.213 55.3457C116.213 60.4728 117.911 64.2821 120.995 66.0657C124.053 67.8385 128.241 67.4089 132.638 64.8598C141.961 59.4582 149.546 46.2794 149.546 35.4763C149.546 30.3492 147.847 26.5399 144.764 24.7527C143.526 24.0341 142.105 23.6731 140.536 23.6731V23.6767Z" fill="#FF671D"/>
<path d="M142.573 39.7982C142.573 46.0049 138.23 53.5512 132.876 56.6528C130.199 58.2053 127.774 58.3498 126.018 57.3352C124.262 56.317 123.179 54.1397 123.179 51.0346C123.179 44.8279 127.522 37.2816 132.876 34.1801C135.553 32.6275 137.978 32.4831 139.734 33.4977C141.49 34.5159 142.573 36.6967 142.573 39.7982Z" fill="white"/>
<path d="M128.543 58.4615C127.525 58.4615 126.593 58.2232 125.776 57.7502C123.79 56.5984 122.696 54.2118 122.696 51.0344C122.696 44.6869 127.154 36.9384 132.634 33.7611C135.365 32.1796 138.01 31.9413 139.971 33.0787C141.957 34.2305 143.051 36.6171 143.051 39.7945C143.051 46.142 138.593 53.8904 133.113 57.0678C131.515 57.9921 129.979 58.4615 128.543 58.4615V58.4615ZM137.208 33.3278C135.959 33.3278 134.545 33.7647 133.116 34.5915C127.903 37.6136 123.661 44.9866 123.661 51.0308C123.661 53.8543 124.585 55.9413 126.262 56.9126C127.91 57.8694 130.238 57.6202 132.638 56.2301C137.852 53.208 142.094 45.8351 142.094 39.7909C142.094 36.9673 141.169 34.8804 139.492 33.9091C138.823 33.5228 138.057 33.3242 137.208 33.3242V33.3278Z" fill="#FF671D"/>
<path d="M175.482 42.0043C172.38 40.2062 168.091 40.4662 163.359 43.2103C153.889 48.6948 146.214 62.0398 146.214 73.0126C146.214 78.4971 148.132 82.3533 151.237 84.1514L163.809 91.4341C160.708 89.636 158.786 85.7798 158.786 80.2952C158.786 69.3225 166.461 55.9811 175.931 50.4929C180.666 47.7488 184.952 47.4889 188.053 49.287L175.482 42.0043V42.0043Z" fill="white"/>
<path d="M163.805 91.9141C163.726 91.9141 163.643 91.8924 163.568 91.8491H163.561L150.996 84.5664C147.603 82.5986 145.735 78.4969 145.735 73.0087C145.735 61.9024 153.536 48.3444 163.122 42.7912C167.828 40.0651 172.369 39.6427 175.726 41.5852L188.291 48.8643C188.291 48.8643 188.294 48.8643 188.298 48.8679C188.528 49.0015 188.607 49.294 188.474 49.525C188.344 49.7561 188.049 49.8356 187.819 49.702C184.761 47.9291 180.572 48.3588 176.176 50.9079C166.853 56.3095 159.272 69.4919 159.272 80.2914C159.272 85.3788 160.945 89.1664 163.982 90.9717C164.176 91.0331 164.32 91.2172 164.32 91.4302C164.32 91.6974 164.068 91.8852 163.83 91.9105H163.816L163.805 91.9141ZM171.016 41.3397C168.709 41.3397 166.216 42.1088 163.597 43.6252C154.274 49.0268 146.692 62.2093 146.692 73.0087C146.692 78.1358 148.391 81.9451 151.474 83.7323L160.552 88.9931C159.084 86.805 158.307 83.8407 158.307 80.295C158.307 69.1886 166.108 55.6306 175.693 50.0775C178.737 48.3119 181.674 47.5031 184.333 47.6908L175.244 42.4265C174.006 41.708 172.585 41.3469 171.016 41.3469V41.3397Z" fill="#FF671D"/>
<path d="M193.076 60.4259C193.076 71.3986 185.401 84.74 175.931 90.2282C171.196 92.9723 166.91 93.2322 163.809 91.4341C160.707 89.636 158.786 85.7799 158.786 80.2953C158.786 69.3225 166.46 55.9812 175.931 50.493C180.666 47.7489 184.951 47.4889 188.053 49.287C191.154 51.0851 193.076 54.9413 193.076 60.4259Z" fill="white"/>
<path d="M168.274 93.0587C166.536 93.0587 164.953 92.6507 163.568 91.8491C160.175 89.8813 158.307 85.7796 158.307 80.2914C158.307 69.1851 166.108 55.6271 175.693 50.0739C180.4 47.3479 184.941 46.9254 188.298 48.8679C191.691 50.8321 193.558 54.9374 193.558 60.4256C193.558 71.5356 185.757 85.09 176.172 90.6432C173.405 92.2463 170.749 93.0587 168.274 93.0587V93.0587ZM183.591 48.6224C181.285 48.6224 178.791 49.3915 176.172 50.908C166.849 56.3095 159.268 69.492 159.268 80.2914C159.268 85.4185 160.966 89.2278 164.05 91.015C167.108 92.7879 171.296 92.3582 175.693 89.8091C185.016 84.4076 192.597 71.2251 192.597 60.4256C192.597 55.2985 190.899 51.4893 187.815 49.7056C186.578 48.9871 185.156 48.626 183.588 48.626L183.591 48.6224Z" fill="#FF671D"/>
<path d="M133.53 21.2503C133.53 21.2503 131.558 21.6908 128.597 23.4167C125.636 25.1462 122.955 27.3776 122.955 27.3776C122.959 21.6403 124.848 16.997 128.619 14.8089L139.193 8.68164C135.423 10.8661 133.534 15.513 133.53 21.2503V21.2503Z" fill="white"/>
<path d="M122.951 27.8578C122.883 27.8578 122.811 27.8434 122.746 27.8109C122.577 27.7314 122.469 27.5617 122.469 27.374C122.476 21.2034 124.571 16.5926 128.374 14.3901L138.952 8.26282C139.186 8.12922 139.478 8.21227 139.607 8.43974C139.74 8.67082 139.661 8.96328 139.431 9.09688C135.937 11.1225 134.012 15.4372 134.008 21.2467C134.008 21.4706 133.854 21.6655 133.634 21.7161C133.616 21.7197 131.688 22.1674 128.838 23.8283C125.945 25.5181 123.286 27.7206 123.261 27.7423C123.174 27.8145 123.063 27.8542 122.955 27.8542L122.951 27.8578ZM135.728 11.2452L128.852 15.2278C125.567 17.1306 123.667 21.0662 123.452 26.363C124.481 25.5614 126.359 24.1641 128.352 23.0015C130.63 21.6728 132.332 21.0915 133.051 20.8784C133.109 16.932 134.037 13.6427 135.732 11.2452H135.728Z" fill="#FF671D"/>
<path d="M169.576 22.8278C165.121 15.083 159.195 8.80766 152.891 5.1573C146.587 1.50693 140.665 0.91478 136.207 3.4964L125.632 9.62367C130.09 7.04205 136.012 7.6342 142.316 11.2846C148.617 14.9349 154.543 21.2102 159.001 28.9551C163.452 36.6963 165.906 44.9683 165.913 52.2654C165.913 52.2654 168.64 49.7416 171.411 48.2287C174.53 46.5245 176.491 46.1382 176.491 46.1382C176.484 38.8411 174.034 30.5654 169.579 22.8278H169.576Z" fill="white"/>
<path d="M165.913 52.7459C165.848 52.7459 165.784 52.7315 165.722 52.7062C165.546 52.6304 165.435 52.4571 165.435 52.2657C165.427 45.0516 162.995 36.8591 158.587 29.1937C154.176 21.521 148.311 15.3107 142.079 11.7001C135.952 8.15078 130.162 7.55503 125.877 10.0392C125.646 10.1728 125.355 10.0933 125.222 9.86223C125.089 9.63115 125.168 9.33508 125.398 9.2051C125.402 9.2051 125.405 9.20149 125.413 9.19787L135.973 3.07782C140.564 0.420386 146.703 1.01253 153.136 4.73872C159.512 8.43241 165.499 14.7691 169.997 22.5862C174.488 30.3924 176.967 38.7583 176.974 46.1348C176.974 46.3659 176.812 46.5609 176.589 46.6078C176.571 46.6078 174.649 47.0122 171.645 48.6514C168.961 50.1174 166.273 52.5943 166.244 52.6195C166.154 52.7026 166.036 52.7459 165.917 52.7459H165.913ZM131.778 7.55503C135.142 7.55503 138.769 8.67072 142.558 10.8624C148.934 14.5561 154.921 20.8928 159.419 28.7098C163.7 36.1514 166.151 44.0948 166.377 51.215C167.396 50.3448 169.267 48.85 171.181 47.8029C173.563 46.5031 175.276 45.9543 176.006 45.7557C175.916 38.6355 173.494 30.5946 169.162 23.0628C164.747 15.3901 158.886 9.17621 152.654 5.56917C146.526 2.0199 140.741 1.42414 136.448 3.90827L129.957 7.67057C130.551 7.59475 131.155 7.55503 131.778 7.55503V7.55503Z" fill="#FF671D"/>
<path d="M128.618 14.8089C132.278 12.6895 137.142 13.1733 142.32 16.1701C147.494 19.167 152.359 24.323 156.022 30.6813C159.678 37.0325 161.689 43.8313 161.696 49.8178L165.917 52.2622C165.91 44.9651 163.459 36.6895 159.005 28.9518C154.55 21.207 148.624 14.9317 142.32 11.2813C136.016 7.63095 130.094 7.0388 125.636 9.62042C121.041 12.2815 118.742 17.9394 118.734 24.9296L122.955 27.374C122.959 21.6367 124.848 16.9934 128.618 14.8053V14.8089Z" fill="white"/>
<path d="M165.913 52.746C165.831 52.746 165.748 52.7243 165.672 52.681L161.452 50.2366C161.304 50.1499 161.211 49.9911 161.211 49.8214C161.207 43.9107 159.214 37.2022 155.601 30.9269C151.981 24.6371 147.178 19.5461 142.076 16.5926C137.074 13.6968 132.354 13.2058 128.856 15.2313C125.366 17.2533 123.437 21.5717 123.434 27.3812C123.434 27.5545 123.344 27.7134 123.193 27.7964C123.045 27.8831 122.862 27.8831 122.714 27.7964L118.494 25.352C118.346 25.2653 118.252 25.1065 118.252 24.9332C118.26 17.4555 120.793 11.8698 125.391 9.20879C129.979 6.55135 136.117 7.13989 142.554 10.8697C148.93 14.5634 154.917 20.9001 159.415 28.7171C163.877 36.4728 166.349 44.7737 166.388 52.1178C166.403 52.1647 166.413 52.2152 166.413 52.2694C166.413 52.5402 166.216 52.7929 165.921 52.7496H165.91L165.913 52.746ZM162.171 49.5397L165.424 51.4245C165.237 44.4198 162.826 36.5631 158.588 29.1937C154.176 21.5211 148.311 15.3108 142.079 11.7001C135.952 8.15086 130.162 7.55511 125.877 10.0392C121.642 12.4909 119.285 17.6758 119.217 24.6552L122.487 26.5507C122.675 20.7954 124.747 16.4951 128.378 14.3937C132.177 12.1948 137.247 12.6786 142.558 15.7549C147.804 18.7951 152.733 24.0125 156.436 30.443C160.074 36.7653 162.107 43.5352 162.171 49.5397V49.5397Z" fill="#FF671D"/>
<path d="M48.8807 207C48.4849 207 48.0891 206.895 47.7329 206.689L1.14781 179.7C0.435375 179.288 0 178.526 0 177.703V122.42C0 121.597 0.435375 120.835 1.14781 120.424L47.7329 93.4342C48.4453 93.0226 49.3197 93.0226 50.0285 93.4342L96.6171 120.424C97.3296 120.835 97.765 121.597 97.765 122.42V177.707C97.765 178.53 97.3296 179.292 96.6171 179.703L50.0285 206.689C49.6723 206.895 49.2765 207 48.8807 207V207ZM4.59122 176.374L48.8807 202.035L93.1737 176.378V123.753L48.8807 98.0919L4.59122 123.753V176.374Z" fill="#818181"/>
<path d="M95.4695 122.42V177.707L48.8809 204.693V149.41L95.4695 122.42Z" fill="white"/>
<path d="M48.8809 205.27C48.7837 205.27 48.683 205.245 48.593 205.195C48.4167 205.093 48.3052 204.898 48.3052 204.696V149.414C48.3052 149.208 48.4131 149.016 48.593 148.915L95.1817 121.926C95.358 121.821 95.5775 121.821 95.7538 121.926C95.9301 122.03 96.0416 122.222 96.0416 122.424V177.707C96.0416 177.912 95.9301 178.104 95.7538 178.205L49.1651 205.195C49.0788 205.245 48.978 205.27 48.8773 205.27H48.8809ZM49.4566 149.746V203.7L94.8974 177.374V123.421L49.4566 149.746Z" fill="#989898"/>
<path d="M48.881 149.41V204.693L2.2959 177.703V122.42L48.881 149.41Z" fill="white"/>
<path d="M48.8805 205.27C48.7833 205.27 48.6826 205.245 48.5926 205.195L2.00758 178.205C1.83127 178.1 1.71973 177.909 1.71973 177.707V122.424C1.71973 122.218 1.82767 122.027 2.00758 121.926C2.18389 121.821 2.40697 121.821 2.58328 121.926L49.1683 148.915C49.3447 149.016 49.4562 149.211 49.4562 149.414V204.696C49.4562 204.898 49.3447 205.093 49.1683 205.195C49.082 205.245 48.9812 205.27 48.8805 205.27V205.27ZM2.86753 177.371L48.3048 203.696V149.742L2.86753 123.417V177.371V177.371Z" fill="#989898"/>
<path d="M2.2959 122.421L48.881 95.4312L95.4696 122.421L48.881 149.41L2.2959 122.421Z" fill="white"/>
<path d="M48.8805 149.988C48.7833 149.988 48.6826 149.962 48.5926 149.912L2.00758 122.922C1.83127 122.818 1.71973 122.626 1.71973 122.424C1.71973 122.222 1.82767 122.027 2.00758 121.926L48.5926 94.9362C48.7689 94.8351 48.9884 94.8351 49.1647 94.9362L95.7534 121.926C95.9297 122.03 96.0413 122.222 96.0413 122.424C96.0413 122.626 95.9297 122.821 95.7534 122.922L49.1647 149.912C49.0784 149.962 48.9776 149.988 48.8769 149.988H48.8805ZM3.44323 122.42L48.8805 148.746L94.3213 122.42L48.8805 96.0952L3.44323 122.42Z" fill="#989898"/>
<path d="M19.02 132.108L65.6015 105.118L78.7491 112.733L32.1604 139.723L19.02 132.108Z" fill="white"/>
<path d="M32.1604 140.297C32.0633 140.297 31.9625 140.272 31.8726 140.221L18.7322 132.61C18.5559 132.505 18.4443 132.314 18.4443 132.112C18.4443 131.909 18.5523 131.714 18.7322 131.613L65.3172 104.624C65.4936 104.523 65.7166 104.523 65.8894 104.624L79.0369 112.239C79.2133 112.343 79.3248 112.535 79.3248 112.737C79.3248 112.939 79.2169 113.134 79.0369 113.235L32.4483 140.225C32.3583 140.275 32.2576 140.301 32.1604 140.301V140.297ZM20.1678 132.108L32.1604 139.055L77.6013 112.73L65.6051 105.783L20.1678 132.108Z" fill="#989898"/>
<path d="M19.02 132.108V149.598C19.1639 149.605 19.3223 149.67 19.5022 149.804C20.4377 150.742 20.4377 152.627 22.3159 151.685V152.941C24.1941 153.57 25.1297 153.57 26.3818 151.999V153.57L26.6948 153.255C27.0079 154.508 25.7557 155.451 26.0688 156.707C27.634 156.079 29.1955 154.198 30.4441 155.765C31.3256 153.992 31.3796 152.219 32.164 150.446V139.719L19.02 132.108Z" fill="white"/>
<path d="M26.0652 157.281C25.9752 157.281 25.8853 157.263 25.8061 157.22C25.6586 157.144 25.5506 157.007 25.5075 156.844C25.3024 156.028 25.5938 155.35 25.8493 154.754C25.95 154.515 26.0472 154.292 26.1048 154.075C25.9213 153.977 25.8061 153.783 25.8061 153.569V153.375C25.288 153.746 24.7555 153.912 24.1438 153.912C23.6113 153.912 23.0284 153.79 22.1324 153.49C21.8949 153.414 21.7366 153.19 21.7366 152.945V152.497C20.5852 152.696 20.0383 151.786 19.6569 151.078C19.4878 150.764 19.3115 150.439 19.092 150.219C19.0596 150.201 19.0056 150.183 19.0056 150.183C18.6926 150.161 18.4443 149.905 18.4443 149.609V132.115C18.4443 131.909 18.5523 131.718 18.7322 131.617C18.9121 131.516 19.128 131.512 19.3043 131.617L32.4483 139.232C32.6246 139.333 32.7361 139.528 32.7361 139.73V150.457C32.7361 150.537 32.7217 150.616 32.6894 150.692C32.3403 151.479 32.146 152.262 31.9373 153.096C31.6999 154.05 31.4552 155.035 30.9587 156.032C30.8723 156.209 30.6996 156.328 30.5089 156.35C30.3074 156.368 30.1203 156.292 29.9979 156.137C29.7209 155.786 29.4942 155.739 29.3251 155.739C28.8717 155.739 28.2636 156.122 27.6736 156.491C27.2274 156.772 26.7668 157.057 26.2847 157.252C26.2163 157.278 26.1443 157.292 26.0724 157.292L26.0652 157.281ZM26.9539 152.743C27.0979 152.815 27.2058 152.952 27.249 153.115C27.4541 153.931 27.1626 154.606 26.9071 155.205C26.8316 155.386 26.756 155.559 26.6984 155.725C26.8208 155.653 26.9431 155.577 27.0619 155.501C28.0909 154.858 29.2819 154.274 30.2318 154.819C30.4837 154.162 30.6492 153.497 30.8219 152.804C31.0234 151.995 31.2321 151.165 31.5883 150.327V140.055L19.5957 133.104V149.183C19.6785 149.226 19.7648 149.28 19.8476 149.345C20.247 149.739 20.4701 150.157 20.6716 150.526C20.9954 151.125 21.1537 151.367 21.4272 151.367C21.5351 151.367 21.7366 151.334 22.0569 151.172C22.2332 151.082 22.4491 151.093 22.6146 151.197C22.7837 151.302 22.888 151.486 22.888 151.688V152.522C23.4349 152.685 23.8199 152.761 24.1438 152.761C24.6835 152.761 25.1908 152.569 25.9321 151.641C26.0832 151.45 26.3422 151.381 26.5689 151.457C26.7992 151.537 26.9539 151.757 26.9539 152.002V152.746V152.743Z" fill="#989898"/>
<path d="M31.063 184.437C30.7499 184.751 30.7499 183.812 30.4369 184.123C30.1239 184.751 30.1239 185.376 29.8108 185.694C29.8108 183.498 27.9362 182.556 27.6268 180.675C25.7485 181.303 26.3746 184.437 25.1261 182.87C24.5 182.245 24.813 180.361 24.1906 179.108C23.5645 178.169 23.2514 180.675 22.3123 179.108C21.9993 179.736 21.6862 180.05 21.6862 180.675C21.6862 180.05 21.3732 180.05 21.0638 179.736C21.0638 180.364 20.7507 180.675 20.7507 181.307C19.8152 180.678 20.1246 179.111 19.1891 179.111C19.074 179.227 19.0416 179.429 19.02 179.653V187.398L32.164 195.013V182.328C32.1208 182.198 32.0705 182.069 32.0057 181.935C32.0057 182.874 31.3832 183.502 31.0702 184.441L31.063 184.437Z" fill="white"/>
<path d="M32.1601 195.583C32.063 195.583 31.9622 195.561 31.8723 195.507L18.7283 187.892C18.552 187.788 18.4404 187.596 18.4404 187.394V179.649C18.4728 179.292 18.5268 178.952 18.7822 178.7C18.8902 178.595 19.0341 178.534 19.1852 178.534C20.0092 178.534 20.3079 179.198 20.4842 179.721C20.4914 179.494 20.6281 179.292 20.8404 179.205C21.0563 179.118 21.3009 179.169 21.4665 179.332C21.4809 179.346 21.4952 179.36 21.5096 179.371C21.5276 179.342 21.5456 179.31 21.5636 179.277C21.6356 179.151 21.7147 179.014 21.7939 178.855C21.8874 178.667 22.0781 178.544 22.2868 178.537C22.4991 178.548 22.6934 178.638 22.8014 178.815C22.8445 178.891 22.8841 178.945 22.9129 178.985C22.9489 178.945 22.9885 178.902 23.0137 178.866C23.208 178.635 23.4706 178.317 23.8916 178.317C24.0967 178.317 24.3989 178.4 24.6616 178.79C25.0466 179.552 25.1366 180.371 25.2157 181.093C25.2733 181.624 25.3452 182.285 25.5288 182.466C25.5395 182.48 25.5503 182.491 25.5611 182.505C25.5791 182.455 25.5935 182.408 25.6115 182.364C25.8526 181.675 26.2556 180.527 27.443 180.129C27.6013 180.075 27.7776 180.097 27.9215 180.184C28.0654 180.27 28.1626 180.415 28.1914 180.581C28.3101 181.296 28.7131 181.881 29.1413 182.502C29.4219 182.906 29.7134 183.332 29.9473 183.823C29.9725 183.787 29.9976 183.751 30.0264 183.722C30.1344 183.614 30.4006 183.487 30.5518 183.487C30.6525 183.487 30.7425 183.509 30.818 183.542C30.872 183.43 30.9296 183.321 30.9871 183.213C31.2318 182.744 31.4225 182.379 31.4225 181.931C31.4225 181.668 31.6024 181.437 31.8615 181.372C32.1169 181.303 32.3868 181.433 32.5055 181.671C32.5847 181.826 32.6459 181.985 32.6962 182.141C32.7142 182.202 32.725 182.26 32.725 182.325V195.009C32.725 195.215 32.6135 195.406 32.4372 195.507C32.3508 195.558 32.2501 195.583 32.1493 195.583H32.1601ZM19.5918 187.058L31.5844 194.009V184.675C31.5592 184.737 31.5197 184.794 31.4693 184.845C31.3613 184.953 31.0951 185.08 30.944 185.08C30.8612 185.08 30.7856 185.069 30.7209 185.044C30.7173 185.054 30.7137 185.069 30.7101 185.083C30.6093 185.448 30.505 185.823 30.2207 186.105C30.0588 186.268 29.8069 186.322 29.5947 186.228C29.3824 186.141 29.2384 185.928 29.2384 185.697C29.2384 184.661 28.7347 183.931 28.2022 183.162C27.8639 182.671 27.5149 182.166 27.2846 181.574C27.0292 181.859 26.8673 182.271 26.6981 182.751C26.511 183.282 26.2988 183.885 25.6799 183.885C25.2553 183.885 24.9351 183.556 24.6796 183.235C24.255 182.816 24.1687 182.039 24.0787 181.22C24.0211 180.7 23.9636 180.166 23.8124 179.711C23.6109 179.942 23.3267 180.216 22.9129 180.216C22.7294 180.216 22.5711 180.162 22.4344 180.083C22.3156 180.306 22.2616 180.458 22.2616 180.682C22.2616 181.13 21.6608 181.393 21.3369 181.137C21.3297 181.191 21.3261 181.245 21.3261 181.307C21.3261 181.52 21.211 181.715 21.0239 181.816C20.8368 181.913 20.6137 181.906 20.4338 181.787C19.984 181.487 19.7465 181.043 19.5918 180.639V187.066V187.058Z" fill="#989898"/>
<path d="M65.6051 105.118L19.02 132.108L25.5902 135.917L72.1753 108.924L65.6051 105.118Z" fill="white"/>
<path d="M25.5902 136.495C25.4895 136.495 25.3923 136.469 25.3024 136.419L18.7322 132.613C18.5559 132.509 18.4443 132.317 18.4443 132.115C18.4443 131.913 18.5523 131.718 18.7322 131.617L65.3172 104.627C65.4936 104.526 65.713 104.526 65.8894 104.627L72.4631 108.433C72.6395 108.534 72.751 108.725 72.751 108.931C72.751 109.137 72.643 109.328 72.4631 109.429L25.8781 136.419C25.7881 136.469 25.691 136.495 25.5902 136.495V136.495ZM20.1678 132.111L25.5902 135.253L71.0275 108.927L65.6051 105.786L20.1678 132.111V132.111Z" fill="#989898"/>
</svg>
