<svg width="112" height="112" viewBox="0 0 112 112" fill="none" xmlns="http://www.w3.org/2000/svg">
<path d="M80.9215 74.2685C79.8787 79.7079 78.3563 81.2463 73.0971 82.1121C73.0231 82.3728 72.9008 82.6722 72.859 82.9812C72.3022 87.0977 70.165 89.1834 66.0227 89.7595C65.3629 89.8528 64.6419 90.194 64.1495 90.6446C62.6303 92.035 61.1852 93.5091 59.7561 94.9929C57.5192 97.3199 54.8639 98.2243 51.7902 97.1043C48.8194 96.0196 47.2745 93.7505 47.1104 90.5673C47.1007 90.3774 47.017 90.1875 46.9301 89.8657C42.2439 89.5503 39.5306 87.0977 39.1959 82.611C37.2326 81.6551 35.0954 81.1273 33.734 79.8012C32.3789 78.4784 31.8028 76.3573 30.8855 74.5839C31.0271 74.4616 31.1688 74.3393 31.3071 74.2138C30.6699 74.1301 30.0262 74.0721 29.3953 73.9627C26.3473 73.4381 24.0911 70.8729 23.6308 67.6286C23.5118 66.7788 23.1255 65.8583 22.588 65.1953C16.0897 57.1939 14.6832 48.3525 19.1506 39.1216C23.6276 29.8714 31.4874 25.4845 41.7772 25.7806C46.5439 25.919 50.9018 27.538 54.6611 30.5119C55.7715 31.3906 56.4378 31.3005 57.5385 30.4765C67.1556 23.2508 80.7059 24.4288 88.939 33.1319C97.2526 41.9154 97.6227 55.5492 89.837 64.8219C89.2737 65.4914 88.7233 66.3411 88.5881 67.1747C87.8736 71.5584 85.8813 73.5507 81.4461 74.0979C81.2594 74.1204 81.0792 74.217 80.9151 74.2717L80.9215 74.2685ZM66.7791 86.1547C69.782 85.2599 70.6317 82.1797 68.4141 79.8141C66.0485 77.2939 63.5508 74.8993 61.1112 72.4467C58.6715 69.9974 56.1803 67.5931 53.8436 65.0472C53.4284 64.5966 53.3383 63.3543 53.6634 62.8264C54.2492 61.8737 55.2598 62.0894 56.0612 62.8136C56.6019 63.3028 57.1137 63.8306 57.6319 64.3456C61.9609 68.6714 66.2899 72.9939 70.6124 77.3229C71.7936 78.5041 73.1583 78.9805 74.7869 78.4494C76.2513 77.9731 77.1107 76.927 77.3972 75.4465C77.7222 73.7567 76.8725 72.5272 75.7364 71.4007C71.3462 67.0428 66.9754 62.6687 62.6046 58.2915C60.9116 56.5953 60.5833 55.5557 61.5811 54.8251C63.155 53.6728 63.9918 55.0793 64.893 55.9741C69.3765 60.4286 73.8245 64.9153 78.3112 69.3634C80.0074 71.0435 81.8742 71.3009 83.5253 70.2066C85.656 68.7937 85.8717 66.0225 83.9019 64.0237C79.1384 59.1927 74.3266 54.4099 69.531 49.611C67.6706 47.7506 65.7974 45.8999 63.7633 43.8787C62.7269 44.9891 61.8836 45.9289 60.9985 46.8237C59.6435 48.1948 58.3271 49.6142 56.8755 50.8791C54.4358 53.0066 51.2559 53.2576 48.533 51.6869C45.8873 50.1581 44.4486 47.1069 45.2854 43.9946C45.662 42.5945 46.5761 41.233 47.5545 40.1258C49.4631 37.9662 51.5874 35.9996 53.628 33.9494C45.2307 26.2538 31.5646 27.7021 24.3164 36.8075C16.9652 46.0416 20.1097 58.5618 25.2047 62.5754C27.1842 60.5509 29.0735 58.3945 31.1977 56.4955C35.4559 52.6879 41.8222 54.8701 42.9648 60.4382C43.0936 61.0691 43.2094 61.7032 43.3318 62.3372C43.4444 62.1924 43.557 62.0508 43.6665 61.9059C45.3949 62.7781 47.4773 63.306 48.7518 64.6224C50.0779 65.9903 50.625 68.1178 51.6325 70.1551C56.6824 71.1915 58.0085 72.5208 58.9515 77.8443C63.7311 78.5653 66.2062 80.2679 66.7855 86.1514L66.7791 86.1547ZM87.3876 62.9745C87.732 62.3984 87.8447 62.1505 88.0088 61.9381C94.4395 53.6953 93.4064 41.6418 85.6399 34.4064C78.0151 27.2998 65.8328 27.1131 58.1855 34.0942C55.2437 36.7817 52.4854 39.6752 49.6852 42.514C47.9086 44.3132 47.8378 46.8333 49.4309 48.3718C51.0563 49.9457 53.4284 49.7944 55.2952 47.9534C57.5224 45.7615 59.7207 43.5407 61.9287 41.3296C63.6571 39.598 64.1173 39.5819 65.8296 41.2909C69.8335 45.282 73.831 49.273 77.8188 53.2801C80.9086 56.3861 83.9727 59.5113 87.3876 62.9713V62.9745ZM46.9333 86.4604C47.2648 86.3156 48.195 86.1547 48.7744 85.6172C50.8182 83.7279 52.8233 81.7806 54.6869 79.7143C56.0065 78.2466 55.7587 76.0194 54.3908 74.6418C52.9907 73.2321 50.6637 73.0357 49.1509 74.4197C47.1458 76.2543 45.2339 78.1983 43.3865 80.1939C42.2954 81.3686 42.2117 82.8556 42.9037 84.2879C43.5957 85.7169 44.7801 86.483 46.9333 86.4637V86.4604ZM50.1101 90.1006C50.2742 91.8451 51.0982 93.2259 52.5562 93.9404C54.114 94.7032 55.601 94.4457 56.8111 93.3256C58.7101 91.5683 60.5608 89.7434 62.2924 87.8219C63.7729 86.1804 63.6281 83.8341 62.1765 82.4115C60.6187 80.8859 58.3367 80.8923 56.6309 82.5209C54.8993 84.172 53.1902 85.8521 51.5777 87.6127C50.9405 88.3079 50.5896 89.2606 50.1101 90.0974V90.1006ZM47.9472 69.785C47.6511 67.9118 46.8818 66.6919 45.324 66.0096C43.7598 65.3208 42.3211 65.5944 41.1077 66.7756C39.3954 68.4396 37.7057 70.1326 36.0417 71.8481C34.3326 73.6119 34.2586 75.9711 35.8067 77.5224C37.4257 79.1446 39.6948 79.1092 41.4843 77.3712C43.1515 75.7522 44.8187 74.1301 46.3765 72.4081C47.046 71.6679 47.4322 70.6701 47.9472 69.7882V69.785ZM35.5846 57.8441C35.1694 58.0082 34.2039 58.1273 33.6245 58.6648C31.5325 60.6056 29.479 62.6043 27.5961 64.7447C26.299 66.2156 26.6595 68.4268 28.1015 69.7882C29.4854 71.095 31.6194 71.3396 33.0066 70.0843C35.1212 68.1693 37.1489 66.1448 39.0736 64.0398C40.1486 62.8651 40.1679 61.3716 39.4147 59.9361C38.7002 58.5747 37.5319 57.9342 35.5846 57.8441V57.8441Z" fill="#FF671D"/>
<path d="M56 112C25.121 112 0 86.879 0 56C0 25.121 25.121 0 56 0C86.879 0 112 25.121 112 56C112 86.879 86.879 112 56 112ZM56 3.54043C27.0747 3.54043 3.54043 27.0747 3.54043 56C3.54043 84.9253 27.0747 108.46 56 108.46C84.9253 108.46 108.46 84.9253 108.46 56C108.46 27.0747 84.9253 3.54043 56 3.54043Z" fill="#FF671D"/>
</svg>
