<svg width="216" height="188" viewBox="0 0 216 188" fill="none" xmlns="http://www.w3.org/2000/svg">
<path d="M153.259 118.947C152.819 118.947 152.382 118.832 151.989 118.607L98.2557 87.4317C97.4338 86.9536 96.9423 86.0566 96.9894 85.1044L100.135 16.6368C100.19 15.4831 101.005 14.511 102.129 14.2621L118.846 10.5637L125.036 1.14785C125.775 0.0217392 127.262 -0.333866 128.426 0.3418L182.163 31.5133C182.91 31.948 183.39 32.7343 183.429 33.5996L186.575 98.4241C186.622 99.3803 186.131 100.281 185.309 100.759L154.537 118.611C154.144 118.836 153.708 118.951 153.267 118.951L153.259 118.947ZM102.133 83.7847L153.259 113.447L181.42 97.1123L178.419 35.2354L127.954 5.9605L122.515 14.2345C122.153 14.7876 121.587 15.1788 120.942 15.3211L105.118 18.8219L102.133 83.7847V83.7847Z" fill="#818181"/>
<path d="M180.888 33.7224L127.151 2.54688L120.395 12.8281L102.671 16.7517L156.405 47.9232L180.888 33.7224Z" fill="white"/>
<path d="M156.405 48.5632C156.294 48.5632 156.184 48.5355 156.086 48.4802L102.349 17.3086C102.121 17.1783 101.999 16.9175 102.038 16.6567C102.077 16.3959 102.274 16.1865 102.53 16.1312L120.002 12.2629L126.62 2.19899C126.805 1.91845 127.178 1.83153 127.465 1.99748L181.203 33.169C181.399 33.2836 181.521 33.497 181.521 33.7222C181.521 33.9474 181.399 34.1608 181.203 34.2754L156.719 48.4802C156.621 48.5395 156.511 48.5632 156.401 48.5632H156.405ZM104.405 17.0202L156.405 47.1842L179.618 33.7183L127.355 3.40018L120.926 13.1796C120.835 13.3179 120.694 13.4166 120.533 13.4522L104.405 17.0202Z" fill="#010101"/>
<path d="M102.719 17.3876C102.369 17.3876 102.078 17.0992 102.078 16.7475C102.078 16.3959 102.357 16.1074 102.707 16.1074H102.723C103.073 16.1074 103.36 16.3959 103.36 16.7475C103.36 17.0992 103.076 17.3876 102.723 17.3876H102.719Z" fill="#010101"/>
<path d="M153.263 116.394L99.5254 85.2229L130.297 67.3711L184.034 98.5426L153.263 116.394Z" fill="white"/>
<path d="M153.259 117.034C153.149 117.034 153.039 117.007 152.941 116.952L99.2033 85.78C99.0067 85.6654 98.8848 85.452 98.8848 85.2268C98.8848 85.0016 99.0067 84.7882 99.2033 84.6736L129.975 66.8218C130.172 66.7072 130.415 66.7072 130.612 66.8218L184.349 97.9933C184.546 98.1079 184.668 98.3213 184.668 98.5465C184.668 98.7717 184.546 98.9851 184.349 99.0997L153.578 116.952C153.479 117.011 153.369 117.034 153.259 117.034V117.034ZM100.796 85.2228L153.259 115.659L182.761 98.5465L130.297 68.1099L100.796 85.2228V85.2228Z" fill="#010101"/>
<path d="M153.263 116.395L156.405 47.923L102.671 16.7515L99.5254 85.223L153.263 116.395Z" fill="white"/>
<path d="M153.259 117.035C153.149 117.035 153.039 117.007 152.94 116.952L99.2031 85.7801C98.9986 85.6615 98.8767 85.4363 98.8885 85.1953L102.034 16.7238C102.046 16.5025 102.168 16.301 102.365 16.1943C102.561 16.0876 102.793 16.0876 102.986 16.2022L156.723 47.3737C156.928 47.4923 157.05 47.7175 157.038 47.9585L153.892 116.43C153.88 116.651 153.758 116.853 153.562 116.96C153.467 117.011 153.361 117.039 153.255 117.039L153.259 117.035ZM100.174 84.8634L152.669 115.32L155.748 48.2865L103.254 17.8301L100.174 84.8673V84.8634Z" fill="#989898"/>
<path d="M164.49 96.1322L163.165 37.6416L156.405 47.9228L153.263 116.394L164.49 96.1322Z" fill="white"/>
<path d="M153.259 117.035C153.2 117.035 153.141 117.027 153.086 117.011C152.803 116.932 152.61 116.663 152.626 116.367L155.772 47.8953C155.776 47.7807 155.811 47.6701 155.874 47.5753L162.63 37.2941C162.783 37.0609 163.067 36.9503 163.338 37.0333C163.605 37.1123 163.79 37.3533 163.798 37.6339L165.123 96.1205C165.123 96.2351 165.1 96.3457 165.041 96.4485L153.814 116.715C153.699 116.92 153.483 117.042 153.259 117.042V117.035ZM157.03 48.1284L154.018 113.712L163.849 95.9704L162.575 39.6964L157.034 48.1284H157.03Z" fill="#989898"/>
<path d="M180.889 33.7222L184.035 98.5427L164.49 96.1324L163.165 37.6418L180.889 33.7222Z" fill="white"/>
<path d="M184.034 99.1828C184.007 99.1828 183.983 99.1828 183.96 99.1789L164.415 96.7646C164.101 96.7251 163.865 96.4643 163.857 96.1443L162.531 37.6576C162.524 37.3494 162.732 37.0847 163.031 37.0175L180.755 33.0939C180.935 33.0544 181.128 33.0939 181.278 33.2125C181.427 33.3231 181.517 33.5009 181.525 33.6866L184.66 98.3096C184.687 98.3807 184.703 98.4597 184.703 98.5388C184.703 98.8944 184.361 99.1354 184.054 99.1789H184.038L184.034 99.1828ZM165.111 95.5634L183.362 97.8196L180.291 34.5045L163.81 38.1515L165.111 95.5634Z" fill="#989898"/>
<path d="M164.49 96.1323L153.263 116.394L184.034 98.5426L164.49 96.1323Z" fill="white"/>
<path d="M153.259 117.034C153.097 117.034 152.936 116.971 152.814 116.849C152.61 116.651 152.567 116.335 152.704 116.082L163.931 95.8162C164.057 95.591 164.309 95.4566 164.565 95.4961L184.109 97.9104C184.38 97.942 184.601 98.1474 184.656 98.4161C184.711 98.6848 184.589 98.9574 184.353 99.0957L153.581 116.948C153.483 117.007 153.373 117.031 153.263 117.031L153.259 117.034ZM164.836 96.8159L154.934 114.687L182.072 98.9456L164.836 96.8159V96.8159Z" fill="#989898"/>
<path d="M120.871 13.5273L102.672 16.7516L120.396 27.0328L120.871 13.5273Z" fill="white"/>
<path d="M120.395 27.673C120.285 27.673 120.175 27.6453 120.077 27.59L102.353 17.3088C102.121 17.1745 101.999 16.9097 102.046 16.645C102.093 16.3803 102.298 16.1748 102.561 16.1274L120.761 12.9032C120.95 12.8636 121.142 12.919 121.288 13.0494C121.433 13.1758 121.512 13.3615 121.504 13.5551L121.028 27.0606C121.02 27.2858 120.895 27.4873 120.702 27.594C120.607 27.6453 120.501 27.673 120.395 27.673ZM104.5 17.0757L119.797 25.9502L120.21 14.294L104.5 17.0757Z" fill="#010101"/>
<path d="M120.396 27.0324L127.152 30.9521V2.54639L120.871 13.527L120.396 27.0324Z" fill="white"/>
<path d="M127.155 31.5884C127.045 31.5884 126.935 31.5607 126.837 31.5054L120.081 27.5857C119.876 27.4672 119.754 27.2459 119.762 27.0089L120.238 13.5034C120.238 13.3967 120.273 13.298 120.321 13.2071L126.601 2.23047C126.746 1.98549 127.041 1.863 127.316 1.93412C127.596 2.0092 127.788 2.26208 127.788 2.55052V30.9522C127.788 31.1775 127.666 31.3908 127.47 31.5054C127.371 31.5647 127.261 31.5884 127.151 31.5884H127.155ZM121.044 26.6691L126.518 29.8459V4.93709L121.5 13.7049L121.044 26.6691Z" fill="#989898"/>
<g style="mix-blend-mode:overlay">
<g style="mix-blend-mode:overlay">
<path d="M156.405 48.5632C156.298 48.5632 156.188 48.5355 156.086 48.4802L102.349 17.3086C102.121 17.1783 101.999 16.9175 102.038 16.6567C102.077 16.3959 102.274 16.1865 102.53 16.1312L120.002 12.2629L126.616 2.19899C126.801 1.91845 127.174 1.83153 127.465 1.99748L181.203 33.169C181.431 33.3034 181.553 33.5602 181.513 33.821C181.474 34.0818 181.278 34.2912 181.022 34.3465L163.55 38.2148L156.932 48.2787C156.81 48.4644 156.609 48.5671 156.401 48.5671L156.405 48.5632ZM104.405 17.0202L156.204 47.0696L162.634 37.2902C162.724 37.1519 162.866 37.0531 163.027 37.0176L179.15 33.4496L127.351 3.40018L120.926 13.1796C120.835 13.3179 120.694 13.4166 120.533 13.4522L104.405 17.0202Z" fill="#010101"/>
</g>
</g>
<path d="M113.843 37.369C112.219 38.3134 111.661 40.3997 112.601 42.0315C113.54 43.6634 115.617 44.2245 117.241 43.2801C118.181 42.7349 118.181 40.9726 117.241 39.3368C116.301 37.7049 114.783 36.8198 113.843 37.3651V37.369Z" fill="white"/>
<path d="M115.543 44.3784C114.103 44.3784 112.766 43.6 112.047 42.3514C111.508 41.415 111.363 40.3205 111.642 39.2734C111.921 38.2303 112.589 37.3531 113.521 36.8118C114.76 36.1045 116.679 37.0923 117.788 39.0166C118.295 39.9017 118.579 40.8618 118.579 41.7153C118.579 42.6992 118.217 43.4499 117.556 43.8332C116.943 44.1888 116.247 44.3745 115.543 44.3745V44.3784ZM114.465 37.847C114.347 37.847 114.245 37.8707 114.159 37.9221C113.518 38.2895 113.061 38.8901 112.869 39.6093C112.68 40.3244 112.774 41.0712 113.144 41.7153C113.636 42.5688 114.556 43.1022 115.539 43.1022C116.019 43.1022 116.498 42.9718 116.915 42.7268C117.163 42.5846 117.301 42.2171 117.301 41.7192C117.301 41.0949 117.076 40.3442 116.683 39.6606C115.999 38.4713 115.047 37.847 114.457 37.847H114.465Z" fill="#989898"/>
<path d="M138.26 51.3998C136.636 52.3442 136.078 54.4304 137.018 56.0623C137.957 57.6942 140.034 58.2553 141.658 57.3109C142.598 56.7656 142.598 55.0034 141.658 53.3675C140.718 51.7357 139.2 50.8506 138.26 51.3959V51.3998Z" fill="white"/>
<path d="M139.959 58.4136C138.524 58.4136 137.183 57.6352 136.463 56.3866C135.925 55.4501 135.779 54.3556 136.058 53.3085C136.337 52.2654 137.006 51.3882 137.938 50.8469C139.173 50.1396 141.096 51.1235 142.201 53.0517C143.333 55.0194 143.231 57.1333 141.969 57.8643C141.355 58.2199 140.659 58.4096 139.955 58.4096L139.959 58.4136ZM138.882 51.8821C138.764 51.8821 138.662 51.9058 138.575 51.9572C137.938 52.3247 137.478 52.9252 137.289 53.6444C137.096 54.3596 137.195 55.1103 137.564 55.7504C138.056 56.6078 138.976 57.1373 139.959 57.1373C140.439 57.1373 140.919 57.0069 141.336 56.7619C141.878 56.4498 141.894 55.0668 141.104 53.6918C140.419 52.4985 139.468 51.8782 138.882 51.8782V51.8821Z" fill="#989898"/>
<path d="M128.944 71.0812C127.682 71.0812 126.404 70.7137 125.141 69.9827C118.043 65.8655 112.282 49.8352 112.282 41.5534C112.282 40.9054 112.805 40.3838 113.45 40.3838C114.095 40.3838 114.618 40.9093 114.618 41.5534C114.618 49.12 119.97 64.2731 126.309 67.9518C128.024 68.9475 129.699 68.9831 131.284 68.0664C134.398 66.2606 136.837 60.8711 136.837 55.7977C136.837 55.1497 137.36 54.6242 138.005 54.6242C138.649 54.6242 139.173 55.1497 139.173 55.7977C139.173 61.8234 136.345 67.8372 132.456 70.0973C131.327 70.7532 130.147 71.0812 128.952 71.0812H128.944Z" fill="white"/>
<path d="M128.944 71.7212C127.564 71.7212 126.176 71.3221 124.823 70.5358C117.552 66.3159 111.649 49.9813 111.649 41.5572C111.649 40.5576 112.456 39.7476 113.45 39.7476C114.445 39.7476 115.252 40.5615 115.252 41.5572C115.252 48.9817 120.458 63.8226 126.624 67.4025C128.134 68.2797 129.582 68.3192 130.966 67.5131C133.899 65.8141 136.2 60.6656 136.2 55.7976C136.2 54.8019 137.006 53.9879 138.001 53.9879C138.996 53.9879 139.802 54.8019 139.802 55.7976C139.802 62.0367 136.841 68.2836 132.767 70.6504C131.54 71.3617 130.254 71.7212 128.944 71.7212ZM113.45 41.0238C113.159 41.0238 112.92 41.2649 112.92 41.5572C112.92 49.6929 118.539 65.415 125.46 69.4295C127.71 70.7373 130.006 70.7808 132.134 69.5441C135.842 67.3906 138.532 61.6099 138.532 55.7976C138.532 55.5052 138.292 55.2642 138.001 55.2642C137.71 55.2642 137.47 55.5052 137.47 55.7976C137.47 61.0765 134.89 66.711 131.603 68.6195C129.829 69.6468 127.894 69.6112 125.991 68.5088C119.479 64.7275 113.981 49.2662 113.981 41.5572C113.981 41.2649 113.741 41.0238 113.45 41.0238V41.0238Z" fill="#989898"/>
<path d="M127.151 2.54688L120.395 12.8281L102.671 16.7477L156.409 47.9193L163.165 37.6381L180.888 33.7184L127.151 2.54688V2.54688ZM162.685 36.9427L156.157 46.8722L104.799 17.0796L120.867 13.5235L127.395 3.59396L178.753 33.3865L162.685 36.9427Z" fill="white"/>
<path d="M156.405 48.5632C156.298 48.5632 156.188 48.5355 156.086 48.4802L102.349 17.3086C102.121 17.1783 101.999 16.9175 102.038 16.6567C102.077 16.3959 102.274 16.1865 102.53 16.1312L120.002 12.2629L126.62 2.19899C126.805 1.91845 127.178 1.83153 127.465 1.99748L181.203 33.169C181.431 33.3034 181.553 33.5602 181.513 33.821C181.474 34.0818 181.278 34.2912 181.022 34.3465L163.55 38.2148L156.932 48.2787C156.81 48.4644 156.609 48.5671 156.401 48.5671L156.405 48.5632ZM106.537 17.3521L155.956 46.0225L162.154 36.5948C162.244 36.4565 162.386 36.3577 162.547 36.3221L177.019 33.1216L127.599 4.45122L121.402 13.8789C121.311 14.0172 121.17 14.116 121.008 14.1516L106.537 17.3521Z" fill="#989898"/>
<path d="M207.708 110.653L171.903 89.8025C167.935 87.4949 162.673 86.2266 157.073 86.2266C151.473 86.2266 146.294 87.4831 142.354 89.755L69.5716 131.82C65.5054 134.171 63.2639 137.348 63.2521 140.766V140.774L63.2324 152.604C63.2246 156.018 65.4661 159.203 69.5244 161.573L105.33 182.42C109.29 184.728 114.559 185.996 120.155 185.996C125.751 185.996 130.942 184.74 134.878 182.468L207.661 140.402C211.727 138.047 213.976 134.875 213.98 131.453L213.996 119.623C214.008 116.201 211.774 113.016 207.708 110.653Z" fill="#FF671D" stroke="#FF4D00" stroke-width="4" stroke-miterlimit="10"/>
<path d="M69.8781 149.154L105.683 170.001C113.635 174.636 126.592 174.656 134.567 170.049L140.867 166.409L207.346 127.983C211.333 125.684 213.327 122.649 213.331 119.615C213.335 116.58 211.349 113.549 207.369 111.23L171.564 90.3831C163.613 85.7482 150.655 85.7285 142.688 90.3356L76.2094 128.754L69.9056 132.401C65.922 134.7 63.9243 137.735 63.9204 140.77C63.9165 143.804 65.9024 146.835 69.8821 149.154H69.8781Z" fill="white"/>
<path d="M120.182 174.166C114.583 174.166 109.313 172.894 105.349 170.59L69.5479 149.739C65.4817 147.376 63.2441 144.192 63.2559 140.774C63.2598 137.352 65.5053 134.175 69.5754 131.82L142.358 89.755C146.298 87.4791 151.524 86.2266 157.077 86.2266C162.63 86.2266 167.939 87.4989 171.906 89.8025L207.712 110.653C211.778 113.016 214.011 116.201 214 119.623C214 123.037 211.758 126.217 207.68 128.572L134.902 170.637C130.961 172.913 125.735 174.166 120.182 174.166V174.166ZM157.077 87.57C151.752 87.57 146.762 88.7633 143.022 90.9207L70.24 132.986C66.6024 135.088 64.5969 137.854 64.5929 140.774C64.589 143.694 66.5867 146.464 70.2203 148.578L106.026 169.424C109.789 171.617 114.811 172.823 120.182 172.823C125.554 172.823 130.493 171.629 134.233 169.472L207.016 127.407C210.653 125.305 212.663 122.539 212.663 119.619C212.667 116.699 210.673 113.933 207.043 111.815L171.238 90.9681C167.474 88.7751 162.449 87.57 157.081 87.57H157.077Z" fill="#FF671D"/>
<path d="M98.8561 153.185C96.6421 151.897 93.1343 151.81 90.763 152.928C90.5979 153.007 90.4445 153.086 90.299 153.173C90.1299 153.268 89.9805 153.367 89.8389 153.465C88.958 154.101 88.5176 154.876 88.5176 155.65C88.5176 156.543 89.1075 157.444 90.2872 158.136C92.4854 159.412 95.9539 159.507 98.3291 158.412C98.51 158.329 98.683 158.246 98.8482 158.152C98.9937 158.061 99.1274 157.974 99.2651 157.879C100.17 157.243 100.622 156.456 100.622 155.666C100.622 154.773 100.032 153.872 98.8521 153.181L98.8561 153.185Z" fill="white"/>
<path d="M94.5781 159.842C92.84 159.842 91.2001 159.443 89.9496 158.716C88.5929 157.926 87.8457 156.836 87.8536 155.646C87.8536 154.639 88.4199 153.663 89.4462 152.92C89.6193 152.801 89.7805 152.691 89.9614 152.584C90.1266 152.489 90.2957 152.402 90.4805 152.311C92.9855 151.134 96.8825 151.256 99.1948 152.6C100.548 153.39 101.299 154.481 101.291 155.67C101.291 156.693 100.713 157.677 99.655 158.428C99.4347 158.574 99.3168 158.653 99.1752 158.732C98.9943 158.843 98.8016 158.938 98.5971 159.025C97.4606 159.554 96.0292 159.838 94.5742 159.838L94.5781 159.842ZM94.5585 152.825C93.2725 152.825 92.0299 153.078 91.0468 153.54C90.9013 153.607 90.7675 153.675 90.6299 153.754C90.4844 153.837 90.3546 153.927 90.2249 154.022C89.5642 154.496 89.1946 155.085 89.1946 155.654C89.1946 156.338 89.6979 157.013 90.6299 157.559C91.672 158.167 93.0759 158.499 94.5821 158.499C95.8483 158.499 97.087 158.254 98.0584 157.804C98.2235 157.729 98.369 157.653 98.5145 157.566C98.6286 157.503 98.7269 157.436 98.8331 157.369C99.5763 156.839 99.9577 156.251 99.9577 155.67C99.9577 154.986 99.4465 154.311 98.5263 153.765C97.4803 153.157 96.0685 152.825 94.5585 152.825V152.825Z" fill="#FF671D"/>
<path d="M177.785 100.293L190.326 107.595C191.321 108.176 192.933 108.18 193.936 107.599C194.435 107.31 194.683 106.931 194.683 106.552C194.683 106.172 194.431 105.793 193.94 105.505L181.399 98.2028C180.404 97.6219 178.788 97.618 177.793 98.1909C177.29 98.4833 177.038 98.8587 177.038 99.238C177.038 99.6173 177.29 99.9967 177.789 100.289L177.785 100.293Z" fill="white"/>
<path d="M192.135 108.701C191.333 108.701 190.574 108.512 189.984 108.172L177.443 100.87C176.755 100.467 176.362 99.8783 176.366 99.2382C176.366 98.606 176.763 98.0093 177.447 97.6102C178.611 96.9346 180.566 96.9425 181.73 97.6142L194.27 104.916C194.959 105.319 195.348 105.916 195.344 106.552C195.344 107.184 194.955 107.777 194.266 108.172C193.684 108.512 192.925 108.694 192.131 108.694L192.135 108.701ZM179.586 98.44C179.028 98.44 178.493 98.5664 178.124 98.7798C177.817 98.9576 177.707 99.1354 177.707 99.2382C177.707 99.3804 177.868 99.5622 178.12 99.7044L190.66 107.01C191.042 107.232 191.577 107.354 192.139 107.354C192.697 107.354 193.228 107.228 193.602 107.01C193.905 106.836 194.015 106.659 194.015 106.552C194.015 106.445 193.912 106.264 193.602 106.086L181.061 98.7838C180.688 98.5625 180.149 98.44 179.586 98.44Z" fill="#FF671D"/>
<path d="M200.146 115.407L164.344 94.5599C160.361 92.2445 153.888 92.2366 149.9 94.5401L96.4383 125.439L83.4258 132.966C81.4241 134.116 80.4332 135.633 80.4253 137.151C80.4253 138.668 81.4123 140.185 83.4022 141.339L119.207 162.19C123.183 164.501 129.664 164.513 133.651 162.21L196.992 125.601L200.13 123.787C202.124 122.638 203.119 121.12 203.123 119.603C203.123 118.086 202.128 116.568 200.142 115.407H200.146Z" fill="white"/>
<path d="M126.458 164.604C123.6 164.604 120.91 163.952 118.877 162.767L83.0714 141.92C80.936 140.675 79.7602 138.98 79.7681 137.146C79.7681 135.309 80.9479 133.618 83.0989 132.377L149.574 93.9591C151.599 92.7896 154.273 92.1455 157.104 92.1455C159.936 92.1455 162.653 92.7975 164.682 93.9828L200.487 114.83C202.627 116.074 203.802 117.769 203.798 119.611C203.798 121.448 202.619 123.135 200.472 124.376L133.993 162.794C131.972 163.964 129.298 164.608 126.462 164.608L126.458 164.604ZM157.1 93.4889C154.497 93.4889 152.055 94.0698 150.234 95.1248L83.7596 133.543C82.0489 134.535 81.1012 135.811 81.1012 137.146C81.1012 138.482 82.0372 139.762 83.7438 140.754L119.545 161.601C121.378 162.668 123.835 163.253 126.458 163.253C129.066 163.253 131.508 162.676 133.325 161.625L199.799 123.199C201.51 122.211 202.458 120.93 202.458 119.595C202.458 118.259 201.522 116.979 199.815 115.98L164.01 95.1327C162.185 94.0698 159.731 93.481 157.104 93.481L157.1 93.4889Z" fill="#FF671D"/>
<path d="M207.345 127.983L140.867 166.41L134.567 170.049C126.592 174.656 113.638 174.636 105.683 170.001L69.8778 149.154C65.902 146.839 63.9122 143.804 63.9161 140.77L63.9004 152.6C63.8965 155.634 65.8784 158.673 69.862 160.984L105.663 181.835C113.623 186.462 126.58 186.486 134.547 181.879L140.851 178.24L207.33 139.814C211.313 137.514 213.307 134.483 213.311 131.453L213.331 119.619C213.327 122.653 211.333 125.684 207.345 127.987V127.983Z" fill="white"/>
<path d="M120.155 185.996C114.559 185.996 109.294 184.723 105.33 182.42L69.5244 161.573C65.4661 159.202 63.2246 156.018 63.2324 152.604L63.2521 140.774C63.2521 140.398 63.547 140.098 63.9167 140.098H63.9206C64.2903 140.098 64.5852 140.402 64.5852 140.774C64.5813 143.694 66.579 146.463 70.2126 148.577L106.018 169.424C109.781 171.617 114.803 172.822 120.171 172.822C125.539 172.822 130.486 171.629 134.225 169.472L207.008 127.406C210.645 125.304 212.651 122.538 212.655 119.618C212.655 119.247 212.958 118.951 213.327 118.951C213.697 118.951 214 119.255 213.992 119.626L213.976 131.456C213.972 134.878 211.723 138.051 207.657 140.406L134.874 182.471C130.934 184.747 125.704 186 120.151 186L120.155 185.996ZM64.5852 145.211L64.5695 152.6C64.5695 155.52 66.5632 158.289 70.1969 160.403L106.002 181.25C109.765 183.443 114.795 184.648 120.155 184.648C125.515 184.648 130.47 183.455 134.214 181.298L206.992 139.233C210.63 137.13 212.639 134.365 212.643 131.445L212.655 124.06C211.589 125.743 209.906 127.28 207.68 128.568L134.902 170.633C130.962 172.909 125.731 174.162 120.179 174.162C114.626 174.162 109.313 172.889 105.349 170.586L69.548 149.735C67.3262 148.443 65.643 146.902 64.5891 145.211H64.5852Z" fill="#FF671D"/>
<path d="M87.319 51.4319C87.319 46.8169 84.0826 41.1784 80.1029 38.8709L17.4507 2.52711C15.4255 1.35358 13.4396 1.19157 11.9491 2.05295L4.34766 6.45861C2.83759 7.33184 2.00391 9.11781 2.00391 11.4846V64.7793C2.00391 69.3944 5.24033 75.0289 9.22 77.3404L71.8762 113.688C73.0481 114.368 74.1846 114.711 75.2581 114.711C76.0368 114.711 76.7525 114.526 77.3777 114.166L84.9832 109.761C86.4932 108.879 87.323 107.097 87.323 104.735V51.4359L87.319 51.4319Z" fill="#FF671D" stroke="#FF4D00" stroke-width="3" stroke-miterlimit="10"/>
<path d="M86.6936 51.4317C86.6936 47.026 83.587 41.6207 79.7882 39.4159L17.1399 3.07214C15.2405 1.96974 13.5141 1.87095 12.2636 2.59403L4.66211 7.00365C5.91264 6.27661 7.639 6.37935 9.53445 7.4778L72.1867 43.8216C75.9855 46.0224 79.0921 51.4317 79.0921 55.8374V109.136C79.0921 111.337 78.3174 112.89 77.0669 113.617L84.6684 109.207C85.9189 108.484 86.6976 106.931 86.6976 104.726V51.4277L86.6936 51.4317Z" fill="white"/>
<path d="M77.0629 114.249C76.8466 114.249 76.6343 114.135 76.5202 113.933C76.3472 113.633 76.4494 113.249 76.7483 113.076H76.7522C77.8533 112.432 78.4629 111.033 78.4629 109.14V55.8455C78.4629 51.7006 75.4427 46.4454 71.8681 44.371L9.21978 8.02722C7.61532 7.09472 6.062 6.92482 4.97663 7.54912H4.9727C4.6699 7.72298 4.29238 7.62024 4.11935 7.3239C3.94632 7.0236 4.04857 6.64033 4.34743 6.46252L11.9489 2.05686C13.4393 1.19548 15.4213 1.35748 17.4505 2.53101L80.1027 38.8748C84.0824 41.1823 87.3188 46.8168 87.3188 51.4358V104.734C87.3188 107.097 86.4891 108.879 84.9829 109.76L77.3775 114.166C77.2792 114.221 77.1691 114.249 77.0668 114.249H77.0629ZM7.58386 6.03579C8.31924 6.18594 9.07427 6.49019 9.84504 6.93668L72.4934 43.2804C76.473 45.5919 79.7095 51.2264 79.7095 55.8415V109.136C79.7095 110.033 79.5954 110.847 79.3634 111.558L84.3498 108.666C85.4548 108.022 86.0683 106.623 86.0683 104.731V51.4319C86.0683 47.287 83.0481 42.0318 79.4735 39.9614L16.8213 3.6176C15.2168 2.68115 13.6595 2.51126 12.5702 3.14346L7.57993 6.03579H7.58386Z" fill="#FF671D"/>
<path d="M79.0925 109.14C79.0925 111.341 78.3139 112.893 77.0634 113.62C75.8089 114.344 74.0865 114.245 72.1871 113.146L9.53093 76.7986C5.73215 74.5977 2.62549 69.1884 2.62549 64.7828V11.492C2.62549 9.28721 3.40412 7.73832 4.65465 7.01128C5.90911 6.28425 7.63154 6.38302 9.53093 7.48543L72.1832 43.8292C75.982 46.03 79.0886 51.4393 79.0886 55.845V109.144L79.0925 109.14Z" fill="white"/>
<path d="M75.2542 114.711C74.1807 114.711 73.0442 114.368 71.8723 113.688L9.2161 77.3403C5.23643 75.0327 2 69.3943 2 64.7792V11.4845C2 9.11767 2.83369 7.33565 4.34376 6.45847C5.83024 5.59709 7.82007 5.76305 9.8453 6.93263L72.4936 43.2764C76.4733 45.5879 79.7097 51.2224 79.7097 55.8375V109.132C79.7097 111.499 78.88 113.281 77.3699 114.158C76.7407 114.522 76.0289 114.703 75.2503 114.703L75.2542 114.711ZM6.4673 7.16971C5.90888 7.16971 5.40553 7.29614 4.97295 7.54902C3.86399 8.19308 3.25446 9.58787 3.25446 11.4845V64.7792C3.25446 68.9241 6.2746 74.1753 9.8453 76.2497L72.5015 112.597C74.1059 113.53 75.6632 113.704 76.7525 113.072C77.8575 112.431 78.4671 111.033 78.4671 109.136V55.8414C78.4671 51.6965 75.4469 46.4413 71.8723 44.3669L9.22397 8.02318C8.26051 7.4621 7.30491 7.16575 6.4673 7.16575V7.16971Z" fill="#FF671D"/>
<path d="M11.5912 54.0317C11.5912 54.9088 10.9777 55.2684 10.2227 54.8259L9.10584 54.1818C8.3508 53.7393 7.7334 52.6685 7.7334 51.7952V48.33C7.7334 47.4528 8.3508 47.0932 9.10584 47.5358L10.2227 48.1798C10.9777 48.6224 11.5951 49.6932 11.5951 50.5703V54.0277L11.5912 54.0317Z" fill="#FF671D"/>
<path d="M16.684 56.9873C16.684 57.8605 16.0627 58.2201 15.3115 57.7815L14.1908 57.1295C13.4397 56.6949 12.8184 55.6162 12.8184 54.7429V51.2777C12.8184 50.4045 13.4397 50.0449 14.1947 50.4795L15.3115 51.1315C16.0627 51.5661 16.684 52.6369 16.684 53.5181V56.9833V56.9873Z" fill="#FF671D"/>
<path d="M21.7724 59.9349C21.7724 60.8082 21.151 61.1677 20.396 60.7331L19.2792 60.0811C18.5241 59.6465 17.9067 58.5678 17.9107 57.6946V54.2332C17.9107 53.36 18.5241 53.0005 19.2792 53.4351L20.396 54.0871C21.151 54.5217 21.7724 55.6004 21.7684 56.4736V59.9349H21.7724Z" fill="#FF671D"/>
<path d="M26.8573 62.8866C26.8573 63.7677 26.2399 64.1233 25.4848 63.6848L24.3719 63.0367C23.6169 62.5942 23.0034 61.5234 22.9995 60.6462V57.1889C22.9995 56.3117 23.6208 55.9521 24.3719 56.3947L25.4888 57.0387C26.2399 57.4734 26.8573 58.5521 26.8573 59.4253V62.8905V62.8866Z" fill="#FF671D"/>
<path d="M34.9227 67.5649C34.9227 68.442 34.3053 68.8016 33.5503 68.3591L32.4335 67.715C31.6824 67.2804 31.061 66.2017 31.061 65.3284V61.8632C31.061 60.986 31.6784 60.6264 32.4335 61.069L33.5503 61.713C34.3053 62.1556 34.9227 63.2264 34.9267 64.1035V67.5609L34.9227 67.5649Z" fill="#FF671D"/>
<path d="M40.0111 70.52C40.0111 71.3893 39.3898 71.7528 38.6387 71.3142L37.5179 70.6622C36.7668 70.2276 36.1494 69.1489 36.1494 68.2757V64.8104C36.1494 63.9372 36.7668 63.5776 37.5218 64.0122L38.6387 64.6642C39.3898 65.0988 40.0111 66.1696 40.0111 67.0508V70.516V70.52Z" fill="#FF671D"/>
<path d="M45.1039 73.472C45.1039 74.3453 44.4826 74.7048 43.7275 74.2702L42.6107 73.6182C41.8557 73.1836 41.2383 72.1049 41.2422 71.2317V67.7704C41.2422 66.8971 41.8596 66.5376 42.6107 66.9722L43.7275 67.6242C44.4826 68.0588 45.1 69.1375 45.096 70.0107V73.472H45.1039Z" fill="#FF671D"/>
<path d="M50.1883 76.4195C50.1883 77.3007 49.5749 77.6563 48.8159 77.2177L47.703 76.5697C46.948 76.1271 46.3306 75.0563 46.3267 74.1792V70.7218C46.3267 69.8446 46.948 69.4811 47.703 69.9236L48.8199 70.5677C49.571 71.0023 50.1883 72.081 50.1883 72.9543V76.4195Z" fill="#FF671D"/>
<path d="M58.2538 81.098C58.2538 81.9752 57.6364 82.3387 56.8814 81.8961L55.7645 81.2521C55.0134 80.8174 54.396 79.7387 54.3921 78.8616V75.4042C54.3921 74.527 55.0095 74.1674 55.7645 74.61L56.8814 75.254C57.6364 75.6966 58.2538 76.7713 58.2577 77.6446V81.1019L58.2538 81.098Z" fill="#FF671D"/>
<path d="M63.3431 84.0571C63.3431 84.9264 62.7218 85.2899 61.9707 84.8513L60.85 84.1994C60.0988 83.7647 59.4814 82.686 59.4814 81.8128V78.3475C59.4814 77.4743 60.1028 77.1148 60.85 77.5534L61.9707 78.2053C62.7218 78.6399 63.3392 79.7147 63.3431 80.5919V84.0571Z" fill="#FF671D"/>
<path d="M68.4276 87.0048C68.4276 87.8741 67.8102 88.2336 67.0591 87.799L65.9423 87.147C65.1872 86.7124 64.5659 85.6337 64.5698 84.7605V81.2992C64.5698 80.4259 65.1872 80.0664 65.9423 80.501L67.0591 81.153C67.8141 81.5876 68.4315 82.6663 68.4276 83.5395V87.0048Z" fill="#FF671D"/>
<path d="M73.516 89.9564C73.516 90.8375 72.9025 91.1932 72.1436 90.7546L71.0307 90.1066C70.2717 89.668 69.6543 88.5932 69.6543 87.716V84.2587C69.6543 83.3815 70.2756 83.0219 71.0307 83.4645L72.1436 84.1125C72.8986 84.5471 73.5199 85.6258 73.516 86.4991V89.9604V89.9564Z" fill="#FF671D"/>
<path d="M22.9918 49.0292C22.9918 51.1669 21.4857 52.0401 19.6453 50.9693L12.6297 46.8995C10.7893 45.8287 9.2832 43.213 9.2832 41.0793V35.1287C9.2832 32.995 10.7893 32.1218 12.6258 33.1847L19.6414 37.2584C21.4857 38.3252 22.9918 40.9489 22.9879 43.0786V49.0292H22.9918Z" fill="#FF671D"/>
<path d="M73.516 107.528L55.8828 97.3018V85.8511L73.516 96.0849V107.528Z" fill="#FF671D"/>
<path d="M70.4761 50.361C70.4761 51.3291 71.1564 52.5224 71.994 53.0005C72.8356 53.4865 73.5159 53.0914 73.5159 52.1194C73.5159 51.1513 72.8356 49.958 71.998 49.4799C71.1564 48.99 70.4761 49.3851 70.4761 50.361Z" fill="#FF671D"/>
<path d="M66.2256 47.8954C66.2256 48.8635 66.9098 50.0528 67.7475 50.5428C68.5851 51.0209 69.2654 50.6297 69.2693 49.6617C69.2693 48.6857 68.5851 47.4924 67.7475 47.0143C66.9059 46.5283 66.2256 46.9195 66.2256 47.8954Z" fill="#FF671D"/>
<path d="M61.9781 45.426C61.9781 46.4019 62.6584 47.5873 63.4999 48.0733C64.3376 48.5633 65.0179 48.1682 65.0139 47.1922C65.0139 46.2162 64.3336 45.0309 63.4921 44.5449C62.6545 44.0549 61.9702 44.45 61.9741 45.426H61.9781Z" fill="#FF671D"/>
<path d="M57.7271 42.9604C57.7271 43.9363 58.4074 45.1217 59.2489 45.6077C60.0905 46.0977 60.7708 45.7026 60.7708 44.7266C60.7708 43.7546 60.0865 42.5692 59.2489 42.0793C58.4074 41.5932 57.7271 41.9844 57.7271 42.9604Z" fill="#FF671D"/>
<path d="M53.4761 40.4948C53.4761 41.4708 54.1564 42.6562 54.9979 43.1422C55.8395 43.6282 56.5198 43.2331 56.5198 42.2611C56.5198 41.289 55.8395 40.0997 54.9979 39.6137C54.1564 39.1237 53.4761 39.5189 53.4761 40.4948Z" fill="#FF671D"/>
</svg>
