<svg width="112" height="112" viewBox="0 0 112 112" fill="none" xmlns="http://www.w3.org/2000/svg">
<path d="M50.6213 69.1926C49.3145 70.4865 47.9917 71.6388 46.8491 72.9519C40.8883 79.7882 33.4437 83.3447 24.3351 83.3222C24.0712 83.3222 23.8073 83.3866 23.4661 83.4316C23.4082 83.85 23.3535 84.2395 23.3052 84.6289C23.1089 86.206 22.6905 86.6759 21.1391 86.7178C19.105 86.7725 12.9768 86.7693 10.9426 86.7178C9.53613 86.6824 8.81517 86.0515 8.88597 85.0055C8.97288 83.6795 9.89982 83.3769 11.0263 83.3769C12.5069 83.3769 18.0782 83.3769 19.7261 83.3769V48.5584C18.0718 48.5584 5.24576 48.5584 3.64291 48.5584C2.64193 48.5584 1.85983 48.1657 1.77936 47.1003C1.69246 45.9481 2.37801 45.3333 3.51417 45.3205C5.75108 45.2947 19.224 45.1949 21.4481 45.3784C22.2366 45.4428 22.9672 46.2313 23.965 46.8364C26.8971 44.5834 30.1125 42.1148 33.3278 39.6429C33.4341 39.5592 33.5499 39.482 33.6433 39.3854C36.408 36.508 39.5654 35.359 43.447 37.0198C44.5317 37.4832 45.243 36.9715 45.9511 35.9866C51.2424 28.6386 59.9551 25.7547 68.6421 28.4326C69.849 28.8027 70.924 28.8639 72.1696 28.4744C84.5032 24.6282 96.7724 32.4301 98.7229 45.2303C100.046 53.9205 97.0041 61.2202 91.7385 67.8344C86.5438 74.3617 79.9875 79.2185 72.7264 83.2095C71.468 83.9015 70.4284 83.673 69.289 83.0904C63.0128 79.8944 57.4157 75.7618 52.3786 70.8534C51.854 70.3417 51.3132 69.8428 50.6245 69.1926H50.6213ZM46.1378 54.7766C47.7567 53.6888 49.3081 52.6395 50.8691 51.5999C53.5791 49.7975 56.4372 48.494 59.8199 48.9124C64.0363 49.4338 66.5596 53.5504 64.931 57.4706C64.4257 58.684 63.634 59.9038 62.6619 60.7729C61.1106 62.1601 59.3307 63.3026 57.5927 64.4645C56.2731 65.3464 54.8633 66.0964 53.3281 67.0072C58.4778 72.2664 63.9848 76.5052 70.2514 79.7142C70.7728 79.9813 71.7287 79.8268 72.2887 79.5146C78.7419 75.9162 84.5322 71.4746 89.1476 65.649C93.2996 60.4091 96.0257 54.6672 95.6298 47.7215C95.1792 39.7781 89.9168 33.1156 82.247 31.2263C79.9747 30.6663 77.6573 30.5601 75.0696 31.2843C75.7487 31.8765 76.2186 32.2434 76.637 32.6618C77.8858 33.901 79.1571 35.124 80.3416 36.4243C81.0143 37.1646 81.0368 38.0787 80.2708 38.79C79.4951 39.5045 78.639 39.3403 77.9019 38.658C77.506 38.2911 77.1906 37.8405 76.8172 37.4478C72.6363 33.0448 67.6186 30.6148 61.4389 30.8691C49.8906 31.3454 42.6424 43.502 46.1346 54.7766H46.1378ZM43.3795 40.6471C40.7982 39.5399 38.7029 39.424 36.4209 41.4099C32.697 44.6574 28.6577 47.5509 24.6892 50.5088C23.6464 51.2845 23.2698 52.1149 23.2794 53.3959C23.3342 61.5357 23.3052 69.6786 23.3181 77.8184C23.3181 78.4686 23.405 79.1187 23.4533 79.8107C23.9714 79.8526 24.2997 79.8976 24.6313 79.9008C32.4524 79.9652 38.8091 76.8142 43.9749 71.0691C47.5411 67.1006 51.5965 63.8047 56.3246 61.2524C58.2332 60.2225 59.9841 58.655 61.3842 56.9814C63.0095 55.0373 61.7897 52.5236 59.2438 52.2114C58.3394 52.102 57.2869 52.2018 56.4694 52.5751C54.696 53.3894 52.9257 54.2939 51.339 55.4204C46.804 58.6422 41.8635 60.6473 36.2825 60.9434C35.4811 60.9853 34.6056 61.04 33.8847 60.7696C33.3793 60.5797 32.7421 59.8202 32.771 59.3535C32.8096 58.7677 33.3536 58.0274 33.8911 57.7152C34.4125 57.4094 35.2011 57.5382 35.8737 57.506C38.1718 57.3998 40.4505 57.2163 42.739 56.0222C41.326 50.8274 41.561 45.6906 43.3762 40.6471H43.3795Z" fill="#FF671D"/>
<path d="M56 112C25.121 112 0 86.879 0 56C0 25.121 25.121 0 56 0C86.879 0 112 25.121 112 56C112 86.879 86.879 112 56 112ZM56 3.54043C27.0747 3.54043 3.54043 27.0747 3.54043 56C3.54043 84.9253 27.0747 108.46 56 108.46C84.9253 108.46 108.46 84.9253 108.46 56C108.46 27.0747 84.9253 3.54043 56 3.54043Z" fill="#FF671D"/>
</svg>
