<svg width="150" height="150" viewBox="0 0 150 150" fill="none" xmlns="http://www.w3.org/2000/svg">
<path d="M50.0809 84.5083C49.8047 84.5083 49.5285 84.4364 49.2795 84.2949L16.8013 65.6879C16.3056 65.4026 16 64.8792 16 64.3109V26.1963C16 25.6279 16.3056 25.1045 16.8013 24.8192L49.2795 6.21228C49.7753 5.92924 50.3842 5.92924 50.8799 6.21228L83.3581 24.8192C83.8539 25.1045 84.1595 25.6279 84.1595 26.1963V64.3109C84.1595 64.8792 83.8539 65.4049 83.3581 65.6879L50.8799 84.2949C50.6332 84.4364 50.357 84.5083 50.0786 84.5083H50.0809ZM19.2053 63.3944L50.0809 81.0848L80.9587 63.3944V27.1128L50.0809 9.42239L19.2053 27.1128V63.3921V63.3944Z" fill="#EF4423"/>
<path d="M82.5593 26.1963V64.3132L50.0811 82.9201V44.8055L82.5593 26.1963Z" fill="white"/>
<path d="M50.081 83.3154C50.0131 83.3154 49.9429 83.2975 49.8818 83.2615C49.7573 83.1919 49.6826 83.0593 49.6826 82.9178V44.8032C49.6826 44.6616 49.7596 44.5291 49.8818 44.4595L82.36 25.8503C82.4845 25.7784 82.6362 25.7784 82.7607 25.8503C82.8852 25.9222 82.9622 26.0525 82.9622 26.194V64.3087C82.9622 64.4502 82.8852 64.5805 82.7607 64.6524L50.2825 83.2593C50.2214 83.2952 50.1512 83.3132 50.0833 83.3132L50.081 83.3154ZM50.4817 45.0345V82.2327L82.1586 64.0818V26.8836L50.4817 45.0345V45.0345Z" fill="#FF671D"/>
<path d="M50.081 44.8055V82.9201L17.605 64.3109V26.1963L50.081 44.8055Z" fill="white"/>
<path d="M50.0807 83.3154C50.0128 83.3154 49.9426 83.2974 49.8815 83.2615L17.4033 64.6546C17.2788 64.5827 17.2041 64.4524 17.2041 64.3109V26.1962C17.2041 26.0547 17.2811 25.9244 17.4033 25.8525C17.5278 25.7806 17.6795 25.7806 17.804 25.8525L50.2799 44.4617C50.4044 44.5313 50.4814 44.6638 50.4814 44.8054V82.92C50.4814 83.0593 50.4044 83.1918 50.2799 83.2637C50.2188 83.2997 50.1486 83.3176 50.0807 83.3176V83.3154ZM18.0054 64.0817L49.6823 82.2326V45.0345L18.0054 26.8836V64.0817V64.0817Z" fill="#FF671D"/>
<path d="M17.605 26.1963L50.081 7.58936L82.5592 26.1963L50.081 44.8054L17.605 26.1963Z" fill="white"/>
<path d="M50.0807 45.203C50.0128 45.203 49.9426 45.185 49.8815 45.1491L17.4033 26.5422C17.2788 26.4703 17.2041 26.34 17.2041 26.1985C17.2041 26.0569 17.2811 25.9266 17.4033 25.8548L49.8815 7.24559C50.006 7.17595 50.1577 7.17595 50.2822 7.24559L82.7604 25.8548C82.8849 25.9266 82.9619 26.0569 82.9619 26.1985C82.9619 26.34 82.8849 26.4703 82.7604 26.5422L50.2822 45.1491C50.2211 45.185 50.1509 45.203 50.083 45.203H50.0807ZM18.4038 26.1985L50.0807 44.3471L81.7576 26.1985L50.0807 8.0498L18.4038 26.1985Z" fill="#FF671D"/>
<path d="M29.2603 32.8772L61.7362 14.2681L70.9016 19.5179L38.4211 38.1248L29.2603 32.8772Z" fill="white"/>
<path d="M38.421 38.5224C38.3531 38.5224 38.2829 38.5044 38.2218 38.4685L29.061 33.2209C28.9365 33.149 28.8618 33.0187 28.8618 32.8772C28.8618 32.7356 28.9388 32.6054 29.061 32.5335L61.537 13.9243C61.6615 13.8547 61.8131 13.8547 61.9376 13.9243L71.103 19.1741C71.2275 19.246 71.3022 19.3763 71.3022 19.5178C71.3022 19.6594 71.2252 19.7896 71.103 19.8615L38.6248 38.4685C38.5614 38.5044 38.4935 38.5224 38.4233 38.5224H38.421ZM30.0615 32.8772L38.421 37.6665L70.1002 19.5178L61.7362 14.7285L30.0615 32.8772Z" fill="#FF671D"/>
<path d="M29.2601 32.877V44.9356C29.3597 44.9424 29.4706 44.985 29.5951 45.0771C30.2493 45.7264 30.2493 47.0225 31.5554 46.3733V47.2404C32.8637 47.674 33.5179 47.674 34.3894 46.5912V47.674L34.6067 47.4561C34.8263 48.3209 33.9525 48.9702 34.1698 49.835C35.2609 49.4015 36.3497 48.103 37.2212 49.1858C37.8369 47.9638 37.8731 46.7417 38.4209 45.5197V38.1245L29.2578 32.877H29.2601Z" fill="white"/>
<path d="M34.1721 50.2326C34.1087 50.2326 34.0476 50.2192 33.991 50.19C33.8868 50.136 33.8121 50.0439 33.7827 49.9316C33.6401 49.37 33.8416 48.9028 34.0204 48.4894C34.0906 48.3254 34.1585 48.1704 34.197 48.0222C34.0702 47.9548 33.9887 47.82 33.9887 47.6717V47.537C33.6288 47.793 33.2553 47.9076 32.8297 47.9076C32.4585 47.9076 32.0533 47.8223 31.4286 47.6156C31.2633 47.5617 31.1547 47.4089 31.1547 47.2382V46.9282C30.3511 47.0652 29.9708 46.4385 29.706 45.9488C29.5883 45.7331 29.466 45.5085 29.3121 45.3557C29.2895 45.3422 29.251 45.331 29.251 45.331C29.0337 45.3153 28.8594 45.1401 28.8594 44.9334V32.8725C28.8594 32.7309 28.9363 32.6007 29.0586 32.5288C29.1831 32.4569 29.3347 32.4569 29.4592 32.5288L38.6223 37.7786C38.7468 37.8482 38.8215 37.9808 38.8215 38.1223V45.5174C38.8215 45.5736 38.8102 45.6275 38.7876 45.6792C38.5431 46.2206 38.4073 46.7619 38.2624 47.337C38.0971 47.9952 37.9251 48.6736 37.5788 49.361C37.5199 49.4823 37.4 49.5632 37.2641 49.5789C37.1238 49.5924 36.9948 49.5385 36.9088 49.4329C36.7141 49.1903 36.5556 49.1611 36.4402 49.1611C36.1233 49.1611 35.7 49.4239 35.288 49.6778C34.9779 49.871 34.6565 50.0686 34.3192 50.2034C34.2717 50.2214 34.2196 50.2304 34.1698 50.2304L34.1721 50.2326ZM34.7923 47.1056C34.8919 47.1573 34.9666 47.2494 34.996 47.3617C35.1386 47.9233 34.9372 48.3906 34.7583 48.8039C34.704 48.9275 34.6542 49.0465 34.6135 49.1611C34.6995 49.1094 34.7832 49.0578 34.867 49.0061C35.5845 48.5636 36.4153 48.1592 37.0763 48.5344C37.2528 48.0828 37.3683 47.6246 37.4882 47.1461C37.6286 46.589 37.7735 46.0161 38.0225 45.4388V38.3559L29.663 33.5644V44.6481C29.7218 44.6795 29.7807 44.7155 29.8395 44.7604C30.1157 45.03 30.2741 45.3198 30.4122 45.5736C30.6363 45.9869 30.7472 46.1532 30.9396 46.1532C31.0166 46.1532 31.1547 46.1307 31.3788 46.0184C31.5033 45.9555 31.6504 45.9645 31.7681 46.0364C31.8858 46.1083 31.9583 46.2363 31.9583 46.3756V46.9506C32.3385 47.063 32.6079 47.1146 32.8343 47.1146C33.21 47.1146 33.5654 46.9821 34.0815 46.3419C34.1879 46.2116 34.3667 46.1622 34.5252 46.2161C34.6859 46.2722 34.7946 46.4227 34.7946 46.5912V47.1034L34.7923 47.1056Z" fill="#FF671D"/>
<path d="M37.6584 68.9544C37.4388 69.1723 37.4388 68.5231 37.2215 68.7387C37.0019 69.1723 37.0019 69.6036 36.7846 69.8215C36.7846 68.3074 35.4763 67.6582 35.2612 66.3598C33.9506 66.7934 34.3875 68.9544 33.516 67.8739C33.0791 67.4426 33.2964 66.1442 32.8618 65.2793C32.4249 64.6301 32.2076 66.3598 31.5534 65.2793C31.3361 65.7128 31.1165 65.9285 31.1165 66.3598C31.1165 65.9285 30.897 65.9285 30.6819 65.7106C30.6819 66.1442 30.4624 66.3598 30.4624 66.7934C29.8082 66.3598 30.0255 65.2793 29.3736 65.2793C29.2943 65.3579 29.2694 65.4972 29.2559 65.6522V70.9919L38.4189 76.2417V67.4987C38.3895 67.4089 38.3533 67.319 38.308 67.2292C38.308 67.8784 37.8734 68.3097 37.6538 68.9589L37.6584 68.9544Z" fill="white"/>
<path d="M38.4233 76.6393C38.3554 76.6393 38.2852 76.6236 38.2241 76.5876L29.061 71.3378C28.9365 71.2659 28.8618 71.1356 28.8618 70.9941V65.6544C28.8845 65.4073 28.9207 65.1737 29.0995 64.9985C29.1742 64.9266 29.2761 64.8839 29.3802 64.8839C29.9551 64.8839 30.1611 65.3422 30.2879 65.7038C30.2924 65.5466 30.3897 65.4073 30.5369 65.3467C30.6863 65.286 30.8583 65.322 30.9738 65.4343C30.9828 65.4455 30.9941 65.4545 31.0032 65.4612C31.0168 65.441 31.0281 65.4186 31.0417 65.3961C31.0937 65.3085 31.1481 65.2141 31.2024 65.1041C31.268 64.9738 31.3993 64.8906 31.5465 64.8839C31.6936 64.8929 31.8294 64.9535 31.9064 65.0771C31.9381 65.131 31.9652 65.167 31.9856 65.1939C32.0128 65.167 32.0377 65.1355 32.0558 65.113C32.1916 64.9535 32.3749 64.7334 32.6669 64.7334C32.8095 64.7334 33.0223 64.7918 33.2034 65.0614C33.4705 65.587 33.5339 66.1509 33.5882 66.6496C33.629 67.0157 33.6788 67.4718 33.8055 67.5953C33.8146 67.6043 33.8214 67.6133 33.8282 67.6245C33.8418 67.5908 33.8508 67.5571 33.8621 67.5279C34.0296 67.0539 34.3126 66.261 35.1388 65.9869C35.2497 65.9487 35.372 65.9644 35.4716 66.0251C35.5711 66.0857 35.6391 66.1846 35.6594 66.2991C35.7409 66.7911 36.0239 67.1955 36.3227 67.6223C36.5173 67.9008 36.7233 68.1951 36.884 68.5321C36.9021 68.5051 36.9203 68.4826 36.9406 68.4624C37.0176 68.3883 37.2009 68.3007 37.3073 68.3007C37.3775 68.3007 37.4386 68.3164 37.493 68.3389C37.5314 68.2625 37.5722 68.1861 37.6107 68.1142C37.7804 67.7908 37.9162 67.5369 37.9162 67.2314C37.9162 67.0494 38.043 66.8899 38.2241 66.845C38.4007 66.7956 38.5908 66.8877 38.6746 67.0517C38.7289 67.1573 38.7719 67.2696 38.8081 67.3774C38.8217 67.4201 38.8285 67.4605 38.8285 67.5032V76.2484C38.8285 76.39 38.7515 76.5203 38.627 76.5921C38.5659 76.6281 38.4957 76.6438 38.4278 76.6438L38.4233 76.6393ZM29.6631 70.7627L38.0226 75.5543V69.1206C38.0045 69.1633 37.9774 69.2015 37.9434 69.2374C37.8687 69.3116 37.6831 69.3992 37.5767 69.3992C37.5178 69.3992 37.4658 69.3902 37.4205 69.3722C37.416 69.3812 37.4137 69.3902 37.4115 69.3992C37.3413 69.6485 37.2689 69.9091 37.0697 70.1023C36.9565 70.2146 36.7822 70.2528 36.6328 70.1877C36.4834 70.1292 36.3861 69.981 36.3861 69.8215C36.3861 69.1071 36.0352 68.6039 35.664 68.0738C35.4285 67.7346 35.1863 67.3864 35.0234 66.9798C34.8445 67.1775 34.7314 67.4605 34.6159 67.7908C34.4869 68.1569 34.3397 68.5725 33.9074 68.5725C33.6109 68.5725 33.389 68.3456 33.2102 68.1232C32.9137 67.8334 32.8548 67.301 32.7914 66.7349C32.7507 66.3778 32.7099 66.0071 32.6058 65.6949C32.4655 65.8544 32.2685 66.0453 31.9788 66.0453C31.852 66.0453 31.7411 66.0071 31.6438 65.9532C31.5623 66.106 31.5238 66.2115 31.5238 66.3665C31.5238 66.6743 31.1051 66.8562 30.8787 66.681C30.8742 66.7192 30.8696 66.7574 30.8696 66.7978C30.8696 66.9439 30.7881 67.0786 30.6591 67.1483C30.5301 67.2157 30.3716 67.2112 30.2494 67.1281C29.937 66.9214 29.7718 66.6159 29.6631 66.3351V70.765V70.7627Z" fill="#FF671D"/>
<path d="M61.7385 14.2681L29.2603 32.8772L33.8418 35.501L66.32 16.8941L61.7385 14.2681Z" fill="white"/>
<path d="M33.8418 35.8986C33.7716 35.8986 33.7037 35.8806 33.6403 35.8447L29.061 33.2209C28.9365 33.149 28.8618 33.0187 28.8618 32.8772C28.8618 32.7356 28.9388 32.6054 29.061 32.5335L61.5392 13.9243C61.6615 13.8547 61.8154 13.8547 61.9399 13.9243L66.5214 16.5481C66.6459 16.6177 66.7206 16.748 66.7206 16.8918C66.7206 17.0356 66.6437 17.1636 66.5214 17.2355L34.0432 35.8447C33.9798 35.8806 33.9119 35.8986 33.844 35.8986H33.8418ZM30.0615 32.8772L33.8418 35.0427L65.5187 16.8918L61.7384 14.7263L30.0615 32.8749V32.8772Z" fill="#FF671D"/>
<path d="M80.8751 141.782C76.3841 139.208 72.8665 133.158 72.8665 128.014C72.8665 127.967 72.8665 127.922 72.8665 127.873L62.9519 122.194L59.0358 124.438C59.0223 124.447 59.0087 124.454 58.9928 124.463L57.8859 125.094C57.8588 125.11 57.8339 125.123 57.8067 125.139C55.8713 126.204 53.3723 126.022 50.9004 124.609C46.4094 122.034 42.8918 115.987 42.8918 110.84C42.8918 110.793 42.8918 110.746 42.8918 110.699L39.3719 108.682C38.8965 108.408 38.557 107.961 38.4189 107.448L38.2265 107.338C36.5152 106.357 35.6211 103.789 35.6211 101.761C35.6211 100.28 36.0715 99.0738 36.8706 98.3415C37.0766 98.1191 37.3301 97.9417 37.6199 97.8293L38.3487 97.4093V64.8095C38.3487 64.0839 38.7381 63.4145 39.3719 63.0506L73.7199 43.3699C74.3537 43.0082 75.1324 43.0082 75.7662 43.3699L121.717 69.6977C122.138 69.938 122.46 70.3199 122.623 70.7737L132.155 97.2902C132.234 97.5081 132.273 97.7395 132.273 97.9731V108.724L132.393 108.792C134.104 109.773 135 112.341 135 114.372C135 116.142 134.353 117.528 133.228 118.173L132.273 118.723V119.031C132.273 119.756 131.883 120.426 131.249 120.79L96.9015 140.473C96.2676 140.832 95.489 140.832 94.8552 140.473L92.9266 139.365L89.0105 141.609L88.9969 141.618L88.9675 141.634L87.9059 142.238C87.8878 142.252 87.8697 142.263 87.8493 142.272C87.0027 142.755 86.0497 143 85.0153 143C83.6775 143 82.2853 142.589 80.8729 141.782H80.8751ZM86.9642 138.092H86.971C87.0955 138.017 87.2064 137.925 87.3106 137.808C87.6659 137.413 88.1413 137.186 88.6325 137.137L91.9034 135.263C92.5372 134.902 93.3159 134.902 93.9497 135.263L94.2711 135.448C94.2711 135.423 94.2711 135.396 94.2711 135.369C94.2711 134.819 94.1172 134.176 93.8569 133.655V133.648C93.5264 132.985 93.5966 132.228 93.9746 131.647C93.875 131.402 93.8275 131.148 93.8275 130.892C93.8275 130.191 94.1942 129.508 94.8506 129.131L117.749 116.012C118.732 115.45 119.981 115.783 120.545 116.755C120.73 117.074 120.819 117.425 120.819 117.768C120.819 118.471 120.454 119.152 119.796 119.53L97.6869 132.197C98.0672 133.069 98.2958 134.021 98.3502 134.949L128.175 117.86V117.553C128.175 116.827 128.565 116.16 129.199 115.796L130.862 114.839C130.883 114.733 130.903 114.578 130.903 114.374C130.903 113.941 130.824 113.523 130.724 113.179C129.509 113.478 128.175 112.505 128.175 111.211V98.328L119.015 72.8449L74.7385 47.4741L42.4368 65.9821V98.5819C42.4368 98.7886 42.4051 98.9907 42.344 99.1839L42.6971 99.3861C43.3536 99.7635 43.7203 100.446 43.7203 101.147C43.7203 101.493 43.632 101.841 43.4464 102.16C42.8805 103.129 41.6332 103.463 40.6508 102.904L39.7612 102.396C39.8767 103.122 40.1551 103.704 40.2683 103.823L41.4114 104.476C41.889 104.75 42.2263 105.198 42.3666 105.71L46.0722 107.833C46.8056 108.253 47.2017 109.075 47.0704 109.904C47.0251 110.2 46.9776 110.501 46.9776 110.84C46.9776 114.545 49.7075 119.238 52.9399 121.091C54.0174 121.706 55.027 121.911 55.6789 121.65C55.7355 121.61 55.7944 121.572 55.8555 121.536C55.8736 121.52 55.9415 121.457 55.9822 121.421C55.9958 121.408 56.0117 121.394 56.0117 121.394C56.0524 121.358 56.0954 121.322 56.1384 121.288C56.3897 121.102 56.6658 120.985 56.9488 120.936L56.9737 120.922C57.105 120.848 57.2204 120.754 57.3268 120.635C57.6822 120.237 58.1576 120.01 58.651 119.961L61.9197 118.087C62.5535 117.726 63.3322 117.726 63.966 118.087L76.0423 125.006C76.7757 125.429 77.1719 126.249 77.0406 127.08C76.993 127.374 76.9478 127.677 76.9478 128.012C76.9478 131.716 79.6777 136.411 82.9101 138.262C84.0759 138.929 85.1466 139.125 85.8053 138.743L86.9506 138.089L86.9642 138.092Z" fill="#818181"/>
<path d="M53.8589 102.417C55.122 101.693 56.8718 101.797 58.7981 102.902C62.6553 105.112 65.7814 110.488 65.7814 114.909C65.7814 117.119 65.0004 118.674 63.7351 119.397L58.0104 122.677C59.2735 121.953 60.0567 120.399 60.0567 118.188C60.0567 113.768 56.9307 108.392 53.0735 106.181C51.1449 105.079 49.3996 104.973 48.1343 105.696L53.8589 102.417Z" fill="white"/>
<path d="M57.9991 123.187C57.7637 123.162 57.474 122.96 57.474 122.679C57.474 122.455 57.6234 122.261 57.8294 122.196C58.9385 121.516 59.5474 120.096 59.5474 118.191C59.5474 113.938 56.5301 108.749 52.8177 106.624C51.1472 105.665 49.5332 105.487 48.3992 106.134L48.3901 106.139C48.1434 106.28 47.8333 106.197 47.6907 105.955C47.5481 105.712 47.6341 105.4 47.8763 105.258L53.601 101.979C55.0655 101.138 57.0303 101.305 59.0517 102.462C63.0425 104.751 66.2907 110.335 66.2907 114.909C66.2907 117.236 65.4736 118.986 63.9886 119.84L58.2662 123.119C58.1848 123.164 58.0965 123.187 58.0082 123.187H57.9946H57.9991ZM54.1148 102.857L50.7465 104.789C51.5773 104.915 52.4442 105.234 53.3316 105.741C57.3223 108.03 60.5706 113.613 60.5706 118.189C60.5706 119.206 60.4144 120.118 60.1133 120.889L63.4816 118.957C64.636 118.294 65.2721 116.857 65.2721 114.907C65.2721 110.656 62.2547 105.465 58.5447 103.34C57.5396 102.765 56.5504 102.462 55.6812 102.462C55.0995 102.462 54.572 102.594 54.1148 102.857V102.857Z" fill="#989898"/>
<path d="M53.0756 106.182C56.9328 108.392 60.0589 113.768 60.0589 118.189C60.0589 120.399 59.2779 121.954 58.0126 122.677C56.7495 123.4 55.0042 123.297 53.0734 122.192C49.2162 119.981 46.0879 114.606 46.0879 110.182C46.0879 107.972 46.8688 106.42 48.1342 105.694C49.3973 104.971 51.1471 105.074 53.0734 106.179L53.0756 106.182Z" fill="white"/>
<path d="M52.8199 122.634C48.8269 120.345 45.5786 114.76 45.5786 110.187C45.5786 107.86 46.3958 106.107 47.8807 105.258C49.3475 104.418 51.3123 104.584 53.3337 105.743C57.3245 108.033 60.5727 113.615 60.5727 118.191C60.5727 120.516 59.7556 122.268 58.2707 123.119C57.6572 123.472 56.96 123.647 56.1949 123.647C55.131 123.647 53.9947 123.306 52.8199 122.634V122.634ZM48.3923 106.137C47.2378 106.797 46.6018 108.235 46.6018 110.185C46.6018 114.435 49.6214 119.626 53.3315 121.751C54.3342 122.326 55.3257 122.63 56.1949 122.63C56.7767 122.63 57.3018 122.499 57.7568 122.237C58.9113 121.574 59.5473 120.138 59.5473 118.188C59.5473 113.936 56.5299 108.747 52.8176 106.622C51.8149 106.047 50.8234 105.743 49.9542 105.743C49.3724 105.743 48.845 105.876 48.39 106.139L48.3923 106.137Z" fill="#010101"/>
<path d="M83.8336 119.59C85.0966 118.867 86.8441 118.97 88.7727 120.076C92.6299 122.286 95.756 127.662 95.756 132.083C95.756 134.293 94.975 135.848 93.7097 136.571L87.985 139.851C89.2481 139.127 90.0313 137.573 90.0313 135.362C90.0313 130.941 86.9053 125.566 83.0481 123.355C81.1195 122.25 79.372 122.145 78.1089 122.87L83.8336 119.59V119.59Z" fill="white"/>
<path d="M87.9715 140.36C87.6953 140.318 87.4486 140.136 87.4486 139.853C87.4486 139.626 87.598 139.435 87.804 139.368C88.9109 138.689 89.5198 137.269 89.5198 135.362C89.5198 131.112 86.5024 125.921 82.7901 123.795C81.1196 122.839 79.5033 122.659 78.3693 123.306L78.3647 123.31C78.118 123.447 77.8056 123.366 77.6653 123.124C77.5227 122.881 77.6087 122.571 77.8509 122.43L83.5733 119.15C85.0424 118.31 87.0072 118.48 89.0263 119.635C93.0171 121.922 96.2653 127.507 96.2653 132.082C96.2653 134.41 95.4482 136.16 93.9633 137.011L88.2386 140.293C88.1594 140.338 88.0688 140.36 87.9828 140.36H87.9692H87.9715ZM84.0894 120.031L80.7166 121.962C81.5474 122.088 82.4143 122.407 83.3039 122.915C87.2947 125.204 90.5429 130.789 90.5429 135.362C90.5429 136.382 90.3868 137.294 90.0857 138.065L93.4539 136.13C94.6084 135.47 95.2445 134.032 95.2445 132.082C95.2445 127.83 92.2271 122.641 88.5148 120.513C87.512 119.938 86.5205 119.635 85.6513 119.635C85.0695 119.635 84.5421 119.765 84.0871 120.028L84.0894 120.031Z" fill="#989898"/>
<path d="M83.0478 123.355C86.905 125.566 90.031 130.941 90.031 135.362C90.031 137.573 89.2501 139.127 87.9847 139.851C86.7217 140.576 84.9741 140.471 83.0456 139.365C79.1884 137.155 76.0601 131.779 76.0601 127.358C76.0601 125.148 76.841 123.593 78.1064 122.87C79.3695 122.147 81.117 122.25 83.0456 123.355H83.0478Z" fill="white"/>
<path d="M82.7921 139.808C78.7991 137.519 75.5508 131.937 75.5508 127.361C75.5508 125.036 76.3679 123.283 77.8529 122.432C79.322 121.592 81.2868 121.76 83.3059 122.917C87.2966 125.206 90.5449 130.791 90.5449 135.365C90.5449 137.692 89.7277 139.444 88.2428 140.295C87.6316 140.648 86.9345 140.823 86.1694 140.823C85.1055 140.823 83.9691 140.482 82.7943 139.81L82.7921 139.808ZM78.3644 123.31C77.21 123.973 76.5739 125.409 76.5739 127.358C76.5739 131.611 79.5936 136.8 83.3036 138.925C84.3064 139.5 85.2956 139.803 86.1671 139.803C86.7488 139.803 87.274 139.671 87.729 139.41C88.8834 138.748 89.5195 137.31 89.5195 135.36C89.5195 131.11 86.4999 125.919 82.7898 123.793C81.7848 123.218 80.7956 122.915 79.9241 122.915C79.3423 122.915 78.8149 123.045 78.3622 123.308L78.3644 123.31Z" fill="#010101"/>
<path d="M130.226 117.036L95.8779 136.717V138.712L130.226 119.031V117.036Z" fill="white"/>
<path d="M95.6225 139.152C95.464 139.06 95.3667 138.891 95.3667 138.712V136.717C95.3667 136.537 95.464 136.369 95.6225 136.279L129.97 116.596C130.129 116.506 130.326 116.506 130.482 116.596C130.64 116.688 130.738 116.857 130.738 117.036V119.031C130.738 119.211 130.64 119.379 130.482 119.471L96.1341 139.152C96.0548 139.197 95.9643 139.219 95.876 139.219C95.7877 139.219 95.6994 139.197 95.6202 139.152H95.6225ZM129.717 117.915L96.3921 137.011V137.833L129.717 118.739V117.915Z" fill="#989898"/>
<path d="M130.226 97.9756L95.8779 117.656V130.892L130.226 111.209V97.9756Z" fill="white"/>
<path d="M95.6225 131.332C95.464 131.24 95.3667 131.072 95.3667 130.892V117.658C95.3667 117.479 95.464 117.31 95.6225 117.218L129.97 97.5351C130.129 97.443 130.326 97.443 130.482 97.5351C130.64 97.6272 130.738 97.7957 130.738 97.9754V111.211C130.738 111.391 130.64 111.559 130.482 111.652L96.1341 131.332C96.0548 131.377 95.9643 131.4 95.876 131.4C95.7877 131.4 95.6994 131.377 95.6202 131.332H95.6225ZM129.717 98.856L96.3921 117.953V130.014L129.717 110.919V98.856Z" fill="#989898"/>
<path d="M120.694 71.459L86.3462 91.1397L95.8783 117.656L130.226 97.9755L120.694 71.459Z" fill="white"/>
<path d="M95.7015 118.135C95.5612 118.083 95.448 117.971 95.3982 117.829L85.8639 91.3127C85.7802 91.0836 85.8775 90.8252 86.0903 90.7017L120.438 71.0187C120.572 70.9468 120.728 70.9311 120.871 70.9828C121.013 71.0344 121.124 71.1445 121.176 71.286L130.708 97.8025C130.792 98.0317 130.697 98.29 130.484 98.4135L96.1361 118.096C96.0569 118.141 95.9686 118.164 95.8781 118.164C95.8192 118.164 95.7604 118.155 95.7015 118.132V118.135ZM120.42 72.2048L86.9731 91.3711L96.1543 116.917L129.601 97.7509L120.42 72.2071V72.2048Z" fill="#989898"/>
<path d="M74.7453 45.1311L40.395 64.8118L86.3462 91.1396L120.694 71.4589L74.7453 45.1311Z" fill="white"/>
<path d="M86.0901 91.5801L40.1389 65.25C39.9805 65.1602 39.8809 64.9894 39.8809 64.8097C39.8809 64.63 39.9805 64.4615 40.1389 64.3694L74.4869 44.6887C74.6453 44.5989 74.84 44.5989 74.9985 44.6887L120.95 71.0165C121.108 71.1086 121.208 71.2771 121.208 71.4568C121.208 71.6365 121.108 71.805 120.95 71.8971L86.6017 91.5801C86.5225 91.625 86.4342 91.6475 86.3459 91.6475C86.2576 91.6475 86.1694 91.625 86.0901 91.5801ZM74.7427 45.7176L41.4178 64.8097L86.3459 90.5535L119.671 71.4568L74.7427 45.7153V45.7176Z" fill="#989898"/>
<path d="M41.9773 102.92C41.9773 101.318 41.2665 99.5997 40.395 99.101V64.812L86.3462 91.1398L95.8783 117.656V130.89C95.5727 130.715 95.2875 130.712 95.0453 130.849C94.5948 131.108 94.296 131.854 94.296 132.894C94.296 134.498 95.0068 136.216 95.8783 136.715V138.71L90.0337 135.36C90.0337 130.939 86.9053 125.564 83.0504 123.353C81.1218 122.248 79.3743 122.142 78.1112 122.868C76.8481 123.594 76.0649 125.146 76.0649 127.356L60.0612 118.186C60.0612 113.766 56.9352 108.39 53.078 106.179C51.1494 105.076 49.4019 104.971 48.1388 105.694C46.8757 106.418 46.0925 107.972 46.0925 110.183L40.3995 106.921V104.926C40.7051 105.101 40.9881 105.103 41.2303 104.964C41.6807 104.706 41.9795 103.962 41.9795 102.92H41.9773Z" fill="white"/>
<path d="M95.6222 139.152L89.7775 135.803C89.6191 135.713 89.5218 135.542 89.5218 135.362C89.5218 131.112 86.5021 125.923 82.7921 123.796C81.117 122.836 79.4985 122.661 78.3644 123.313C77.21 123.973 76.5717 125.411 76.5717 127.361C76.5717 127.54 76.4743 127.711 76.3159 127.801C76.1574 127.893 75.9605 127.893 75.8043 127.801L59.8029 118.631C59.6444 118.539 59.5471 118.37 59.5471 118.191C59.5471 113.938 56.5297 108.749 52.8174 106.624C51.1423 105.665 49.5238 105.487 48.3898 106.139C47.2353 106.799 46.5992 108.237 46.5992 110.187C46.5992 110.367 46.5019 110.535 46.3435 110.627C46.185 110.717 45.9881 110.717 45.8319 110.627L40.1389 107.365C39.9805 107.273 39.8809 107.105 39.8809 106.925V104.93C39.8809 104.751 39.9782 104.58 40.1366 104.492C40.2928 104.402 40.4875 104.398 40.6482 104.492C40.7274 104.533 40.7999 104.56 40.9697 104.528C41.2073 104.391 41.4654 103.832 41.4654 102.924C41.4654 101.381 40.7659 99.9051 40.1412 99.5457C39.9805 99.4536 39.8831 99.2851 39.8831 99.1054V64.8141C39.8831 64.6344 39.9827 64.4659 40.1412 64.3738C40.2974 64.2839 40.4943 64.2839 40.6527 64.3738L86.604 90.7038C86.7104 90.7645 86.7896 90.8611 86.8303 90.9757L96.3624 117.492C96.3827 117.548 96.3918 117.604 96.3918 117.661V130.894C96.3918 131.074 96.2922 131.242 96.136 131.334C95.9776 131.427 95.7806 131.427 95.6244 131.334C95.5452 131.29 95.4705 131.263 95.303 131.294C95.0653 131.431 94.8095 131.99 94.8095 132.898C94.8095 134.441 95.509 135.919 96.1383 136.279C96.2945 136.369 96.3941 136.539 96.3941 136.717V138.712C96.3941 138.891 96.2945 139.06 96.1383 139.152C96.059 139.197 95.9685 139.219 95.8802 139.219C95.792 139.219 95.7037 139.197 95.6244 139.152H95.6222ZM93.7841 132.896C93.7841 131.685 94.1486 130.777 94.7892 130.411C94.9703 130.308 95.1649 130.252 95.3664 130.247V117.746L85.9271 91.4901L40.9063 65.6902V98.838C41.8117 99.5659 42.4885 101.273 42.4885 102.92C42.4885 104.131 42.1241 105.038 41.4835 105.404C41.3047 105.508 41.11 105.564 40.9063 105.568V106.629L45.6168 109.326C45.7957 107.426 46.5834 105.997 47.8804 105.254C49.3473 104.414 51.3121 104.58 53.3335 105.739C57.2382 107.976 60.4321 113.374 60.568 117.89L75.5893 126.498C75.7703 124.6 76.5558 123.169 77.8551 122.427C79.3197 121.587 81.2845 121.754 83.3082 122.91C87.2129 125.152 90.4068 130.546 90.5426 135.063L95.3687 137.829V136.977C94.4632 136.247 93.7864 134.538 93.7864 132.893L93.7841 132.896Z" fill="#989898"/>
<path d="M96.6704 112.844C96.899 113.464 97.5509 113.707 98.1191 113.381L126.333 97.2185C126.901 96.8927 127.179 96.1155 126.953 95.4955L119.902 76.2731C119.673 75.6508 119.021 75.4082 118.453 75.7339L90.2395 91.899C89.6713 92.2247 89.3929 92.9997 89.6193 93.6197L96.6681 112.844H96.6704Z" fill="white"/>
<path d="M96.1902 113.02L89.1391 93.795C88.8245 92.9369 89.1957 91.9102 89.9834 91.4587L118.199 75.2914C119.012 74.8264 120.06 75.2195 120.384 76.0978L127.433 95.318C127.749 96.1806 127.378 97.205 126.59 97.6565L98.3769 113.819C98.1347 113.961 97.863 114.035 97.5959 114.035C96.9689 114.035 96.4188 113.635 96.1925 113.017L96.1902 113.02ZM118.709 76.172L90.495 92.3393C90.1419 92.5392 89.9585 93.0582 90.1011 93.449L97.15 112.674C97.2654 112.988 97.571 113.107 97.8608 112.943L126.077 96.7804C126.427 96.5783 126.613 96.0593 126.468 95.6707L119.419 76.446C119.34 76.2281 119.173 76.0956 118.976 76.0956C118.887 76.0956 118.797 76.1226 118.709 76.1742V76.172Z" fill="#989898"/>
<path d="M90.9255 114.819C92.2067 115.553 92.7749 114.81 92.1841 113.168L86.0339 96.0636C85.4431 94.4215 83.9106 92.4761 82.6294 91.7416L74.3808 87.0174C73.0996 86.2828 72.0493 86.8826 72.0493 88.3517V101.334C72.0493 102.803 73.0996 104.607 74.3808 105.339L90.9255 114.819V114.819Z" fill="white"/>
<path d="M90.6673 115.261L74.1249 105.779C72.6739 104.948 71.5376 102.994 71.5376 101.334V88.3519C71.5376 87.0624 72.262 86.1953 73.344 86.1953C73.7582 86.1953 74.1951 86.3211 74.6342 86.575L82.8828 91.3014C84.2568 92.0876 85.8843 94.1476 86.5114 95.8908L92.6616 112.995C93.0056 113.947 93.0124 114.695 92.6842 115.158C92.4782 115.448 92.1568 115.607 91.7742 115.607C91.446 115.607 91.0748 115.488 90.6673 115.257V115.261ZM72.5608 88.3519V101.334C72.5608 102.621 73.5115 104.256 74.6365 104.899L91.1812 114.381C91.5185 114.574 91.7109 114.597 91.7765 114.597L91.8489 114.579C91.9168 114.484 91.9734 114.1 91.6995 113.341L85.5493 96.2367C84.9993 94.7114 83.546 92.8559 82.369 92.1842L74.1226 87.4578C73.842 87.296 73.5726 87.2129 73.3417 87.2129C72.6354 87.2129 72.5585 88.0104 72.5585 88.3541L72.5608 88.3519Z" fill="#989898"/>
<path d="M93.0193 129.252L95.8782 130.89L130.226 111.209V109.899L131.369 110.553C132.241 111.054 132.954 112.773 132.954 114.374C132.954 115.414 132.653 116.16 132.202 116.418L95.5681 137.411C96.0186 137.155 96.3196 136.409 96.3196 135.367C96.3196 133.765 95.6066 132.044 94.7351 131.546L91.8784 129.91L93.0193 129.252V129.252Z" fill="white"/>
<path d="M95.1267 137.665C94.9841 137.422 95.0701 137.112 95.3123 136.971H95.3146C95.5522 136.829 95.8058 136.27 95.8058 135.367C95.8058 133.823 95.1063 132.345 94.477 131.986L91.6181 130.348C91.4619 130.256 91.3623 130.088 91.3623 129.908C91.3623 129.728 91.4619 129.56 91.6181 129.468L92.7612 128.814C92.9197 128.722 93.1166 128.722 93.2728 128.814L95.8737 130.303L129.712 110.915V109.899C129.712 109.72 129.81 109.551 129.968 109.459C130.127 109.369 130.324 109.369 130.48 109.459L131.621 110.115C132.653 110.706 133.461 112.577 133.461 114.376C133.461 115.587 133.096 116.492 132.456 116.861L95.8193 137.853C95.7401 137.898 95.6518 137.921 95.5636 137.921C95.387 137.921 95.215 137.831 95.1222 137.667L95.1267 137.665ZM130.74 111.209C130.74 111.389 130.643 111.557 130.484 111.649L96.134 131.328C95.9755 131.418 95.7786 131.418 95.6224 131.328L93.0215 129.838L92.9038 129.906L94.9931 131.103C96.0253 131.696 96.8334 133.57 96.8334 135.364C96.8334 135.636 96.8153 135.892 96.7814 136.13L131.951 115.976C132.189 115.839 132.447 115.279 132.447 114.372C132.447 112.829 131.745 111.35 131.118 110.991L130.742 110.775V111.207L130.74 111.209Z" fill="#989898"/>
<path d="M94.7349 131.546C95.6064 132.047 96.3194 133.765 96.3194 135.367C96.3194 136.407 96.0184 137.153 95.5679 137.411C95.3257 137.55 95.0405 137.548 94.7349 137.373L91.876 135.735V129.91L94.7349 131.546V131.546Z" fill="white"/>
<path d="M94.4795 137.813L91.6205 136.173C91.4643 136.083 91.3647 135.913 91.3647 135.733V129.908C91.3647 129.728 91.4643 129.56 91.6205 129.468C91.779 129.376 91.9759 129.376 92.1321 129.468L94.9888 131.105C96.021 131.698 96.8291 133.572 96.8291 135.367C96.8291 136.578 96.4647 137.485 95.8218 137.851C95.6294 137.961 95.4211 138.018 95.2016 138.018C94.9616 138.018 94.7171 137.948 94.4772 137.811L94.4795 137.813ZM92.3879 135.441L94.9888 136.933C95.068 136.977 95.1427 137.004 95.2016 137.004L95.3102 136.973C95.5502 136.836 95.8059 136.277 95.8059 135.369C95.8059 133.826 95.1065 132.348 94.4772 131.988L92.3856 130.791V135.443L92.3879 135.441Z" fill="#989898"/>
<path d="M126.695 103.672C126.761 103.636 126.842 103.643 126.942 103.699C127.605 104.081 128.146 106.132 128.146 108.289C128.146 109.982 127.811 111.234 127.342 111.503L121.618 114.783C122.086 114.516 122.421 113.262 122.421 111.568C122.421 109.414 121.882 107.363 121.217 106.981C121.117 106.925 121.036 106.918 120.97 106.954L126.695 103.675V103.672Z" fill="white"/>
<path d="M121.081 114.783C121.081 114.572 121.21 114.392 121.393 114.314C121.559 114.134 121.907 113.291 121.907 111.566C121.907 109.246 121.314 107.671 121.072 107.449C120.868 107.484 120.635 107.397 120.522 107.199C120.384 106.959 120.47 106.651 120.712 106.512L126.435 103.232C126.514 103.187 126.69 103.138 126.779 103.138C126.917 103.138 127.055 103.178 127.193 103.259C128.153 103.807 128.651 106.204 128.651 108.284C128.651 109.201 128.549 111.391 127.594 111.939L121.873 115.219H121.871C121.781 115.271 121.679 115.291 121.588 115.286C121.307 115.286 121.077 115.057 121.077 114.779L121.081 114.783ZM121.934 106.988C122.591 107.92 122.933 109.852 122.933 111.568C122.933 112.029 122.908 112.811 122.761 113.543L127.089 111.065C127.236 110.971 127.637 110.135 127.637 108.289C127.637 106.031 127.075 104.479 126.819 104.194L121.937 106.988H121.934Z" fill="#989898"/>
<path d="M120.728 110.598C120.728 112.75 120.551 114.394 121.217 114.774C121.357 114.855 121.493 114.853 121.617 114.783C122.086 114.516 122.421 113.264 122.421 111.568C122.421 109.414 121.882 107.363 121.217 106.981C121.117 106.925 121.036 106.918 120.97 106.954C120.603 107.166 120.73 108.772 120.73 110.598H120.728Z" fill="white"/>
<path d="M120.961 115.214C120.157 114.751 120.175 113.541 120.205 111.712C120.212 111.359 120.216 110.984 120.216 110.598C120.216 110.207 120.212 109.827 120.205 109.47C120.18 107.711 120.164 106.831 120.726 106.507C120.8 106.467 120.972 106.424 121.058 106.424C121.196 106.424 121.337 106.465 121.473 106.539C122.43 107.089 122.93 109.484 122.93 111.566C122.93 112.483 122.828 114.673 121.873 115.221C121.733 115.3 121.583 115.342 121.427 115.342C121.267 115.342 121.11 115.3 120.963 115.214H120.961ZM121.228 109.454C121.235 109.816 121.239 110.205 121.239 110.598C121.239 110.993 121.235 111.371 121.228 111.726C121.214 112.685 121.194 113.974 121.418 114.282C121.592 114.048 121.907 113.208 121.907 111.566C121.907 109.688 121.52 108.298 121.242 107.718C121.208 108.165 121.219 108.859 121.228 109.452V109.454Z" fill="#989898"/>
<path d="M105.913 115.58C105.978 115.544 106.06 115.551 106.159 115.607C106.823 115.987 107.361 118.04 107.361 120.194C107.361 121.888 107.026 123.142 106.56 123.409L100.835 126.689C101.304 126.421 101.637 125.168 101.637 123.474C101.637 121.32 101.098 119.267 100.435 118.887C100.335 118.831 100.254 118.824 100.188 118.86L105.913 115.58Z" fill="white"/>
<path d="M100.81 127.199C100.527 127.199 100.299 126.97 100.299 126.691C100.299 126.482 100.43 126.303 100.611 126.224C100.776 126.044 101.127 125.202 101.127 123.477C101.127 121.158 100.534 119.584 100.294 119.357C100.26 119.366 100.226 119.37 100.192 119.37C99.9253 119.334 99.6514 119.152 99.6514 118.862C99.6514 118.633 99.8053 118.44 100.014 118.377L105.657 115.14C105.736 115.097 105.915 115.05 106.003 115.05C106.141 115.05 106.281 115.091 106.417 115.167C107.375 115.717 107.875 118.112 107.875 120.197C107.875 120.911 107.8 123.288 106.818 123.852L101.096 127.131C101.014 127.179 100.926 127.201 100.84 127.201H100.815L100.81 127.199ZM101.152 118.896C101.809 119.828 102.15 121.758 102.15 123.477C102.15 123.935 102.125 124.717 101.978 125.451L106.306 122.973C106.451 122.879 106.854 122.043 106.854 120.197C106.854 117.932 106.291 116.38 106.039 116.097L101.154 118.896H101.152Z" fill="#989898"/>
<path d="M99.9434 122.506C99.9434 124.658 99.7691 126.303 100.432 126.682C100.573 126.763 100.706 126.761 100.833 126.691C101.302 126.424 101.634 125.17 101.634 123.477C101.634 121.322 101.096 119.269 100.432 118.89C100.333 118.833 100.251 118.827 100.186 118.863C99.8166 119.074 99.9434 120.68 99.9434 122.506V122.506Z" fill="white"/>
<path d="M100.179 127.123C99.3754 126.66 99.3935 125.451 99.4229 123.618C99.4274 123.265 99.4342 122.895 99.4342 122.504C99.4342 122.115 99.4274 121.736 99.4229 121.378C99.3957 119.62 99.3821 118.732 99.9299 118.422C100.009 118.377 100.188 118.328 100.279 118.328C100.414 118.328 100.552 118.368 100.691 118.445C101.648 118.993 102.148 121.39 102.148 123.474C102.148 124.391 102.046 126.581 101.091 127.129C100.953 127.208 100.801 127.251 100.648 127.251C100.487 127.251 100.331 127.206 100.179 127.12V127.123ZM100.446 121.363C100.451 121.724 100.457 122.111 100.457 122.504C100.457 122.899 100.451 123.277 100.446 123.634C100.43 124.595 100.41 125.887 100.636 126.193C100.81 125.959 101.125 125.117 101.125 123.477C101.125 121.594 100.736 120.204 100.46 119.624C100.423 120.071 100.435 120.77 100.446 121.363Z" fill="#989898"/>
<path d="M43.2517 100.739L42.1108 101.394V107.222L43.2517 106.563V100.739Z" fill="white"/>
<path d="M41.8549 107.662C41.6965 107.57 41.5991 107.403 41.5991 107.222V101.394C41.5991 101.215 41.6965 101.046 41.8549 100.954L42.9958 100.298C43.1542 100.211 43.3489 100.206 43.5073 100.298C43.6658 100.39 43.7654 100.556 43.7654 100.738V106.563C43.7654 106.743 43.6681 106.914 43.5096 107.004L42.3687 107.662C42.2873 107.707 42.199 107.729 42.1107 107.729C42.0224 107.729 41.9341 107.709 41.8526 107.662H41.8549ZM42.7422 101.619L42.6223 101.689V106.341L42.7422 106.271V101.619Z" fill="#989898"/>
<path d="M39.5618 99.0627L40.3948 98.5842V99.1009L43.2537 100.739L42.1106 101.394L39.2539 99.7568C38.9483 99.5816 38.6608 99.5794 38.4209 99.7187L39.5618 99.0627Z" fill="white"/>
<path d="M41.855 101.835L38.996 100.197C38.9168 100.152 38.8421 100.13 38.6814 100.157H38.6746C38.6112 100.195 38.5433 100.213 38.4777 100.222C38.1856 100.267 37.8823 100.031 37.8823 99.7187C37.8823 99.4895 38.034 99.2963 38.2422 99.2334L40.1391 98.1439C40.2953 98.0563 40.4923 98.0541 40.6507 98.1439C40.8114 98.236 40.9065 98.4045 40.9065 98.5842V98.8066L43.5074 100.296C43.6658 100.388 43.7654 100.554 43.7654 100.736C43.7654 100.916 43.6681 101.084 43.5074 101.177L42.3643 101.833C42.285 101.877 42.199 101.9 42.1085 101.9C42.0179 101.9 41.9319 101.877 41.8527 101.833L41.855 101.835ZM40.1414 99.5412C40.0803 99.5053 40.0282 99.4581 39.9875 99.4064L39.8245 99.4985L42.1107 100.808L42.233 100.739L40.1414 99.5412Z" fill="#989898"/>
<path d="M39.2515 105.584C38.38 105.085 37.667 103.365 37.667 101.763C37.667 100.721 37.9681 99.9771 38.4163 99.7187C38.6585 99.5794 38.9437 99.5817 39.2515 99.7569L42.1082 101.395V107.222L39.2515 105.584Z" fill="white"/>
<path d="M41.8547 107.662L38.9958 106.024C37.9658 105.431 37.1577 103.562 37.1577 101.763C37.1577 100.552 37.5244 99.6467 38.1628 99.2806C38.5725 99.0447 39.0569 99.0604 39.5073 99.3165L42.3663 100.954C42.5247 101.046 42.6221 101.215 42.6221 101.394V107.222C42.6221 107.401 42.5247 107.57 42.3663 107.662C42.2871 107.707 42.1988 107.729 42.1105 107.729C42.0222 107.729 41.9339 107.709 41.8524 107.662H41.8547ZM38.9958 100.197C38.9165 100.152 38.8418 100.127 38.6743 100.159C38.4367 100.296 38.1786 100.855 38.1786 101.763C38.1786 103.306 38.8803 104.784 39.5073 105.144L41.5989 106.343V101.689L38.9958 100.197Z" fill="#989898"/>
<path d="M78.113 122.868C79.3761 122.147 81.1213 122.252 83.0476 123.357C86.9048 125.568 90.0309 130.944 90.0309 135.364C90.0309 137.575 89.2499 139.129 87.9846 139.853L86.8347 140.511C88.0978 139.785 88.881 138.231 88.881 136.02C88.881 131.599 85.7549 126.226 81.8977 124.013C79.9714 122.91 78.2262 122.803 76.9653 123.524L78.1152 122.868H78.113Z" fill="white"/>
<path d="M86.8238 141.014C86.5544 141.025 86.3009 140.79 86.3009 140.507C86.3009 140.28 86.4503 140.089 86.6563 140.024C87.7632 139.345 88.3698 137.925 88.3698 136.02C88.3698 131.768 85.3524 126.579 81.6424 124.454C79.9718 123.495 78.3556 123.319 77.2238 123.962H77.2193C76.9794 124.101 76.6647 124.02 76.5221 123.778C76.3818 123.533 76.4655 123.225 76.71 123.083L77.8599 122.425C79.3222 121.59 81.287 121.76 83.3061 122.913C87.2969 125.202 90.5452 130.786 90.5452 135.36C90.5452 137.687 89.728 139.44 88.2431 140.291L87.0954 140.942H87.0932C87.0117 140.99 86.9256 141.012 86.8374 141.012H86.8238V141.014ZM82.154 123.571C86.1447 125.86 89.393 131.442 89.393 136.018C89.393 136.371 89.3749 136.71 89.3364 137.034C89.4586 136.53 89.522 135.973 89.522 135.36C89.522 131.11 86.5024 125.918 82.7923 123.793C82.283 123.501 81.7782 123.281 81.2893 123.131C81.5745 123.256 81.862 123.402 82.1517 123.569L82.154 123.571Z" fill="#989898"/>
<path d="M81.8981 124.011C85.7553 126.222 88.8813 131.597 88.8813 136.018C88.8813 138.229 88.1004 139.783 86.835 140.509H86.8305C85.5674 141.232 83.8244 141.126 81.8981 140.023C78.0409 137.813 74.9126 132.437 74.9126 128.016C74.9126 125.806 75.6935 124.254 76.9589 123.528H76.9657C78.2288 122.805 79.9718 122.91 81.8981 124.013V124.011Z" fill="white"/>
<path d="M81.6422 140.464C77.6492 138.175 74.4009 132.588 74.4009 128.012C74.4009 125.689 75.218 123.937 76.703 123.083C76.7143 123.077 76.7256 123.072 76.7369 123.065C78.1969 122.246 80.1482 122.423 82.1537 123.569C86.1445 125.858 89.3927 131.44 89.3927 136.016C89.3927 138.343 88.5756 140.093 87.0839 140.949C86.4727 141.297 85.7778 141.472 85.0172 141.472C83.9533 141.472 82.817 141.131 81.6422 140.459V140.464ZM77.2191 123.964C77.2191 123.964 77.201 123.973 77.1896 123.98C76.051 124.649 75.424 126.08 75.424 128.012C75.424 132.264 78.4414 137.456 82.1537 139.583C83.1588 140.158 84.148 140.462 85.0172 140.462C85.5989 140.462 86.1218 140.331 86.5813 140.066C87.7358 139.406 88.3696 137.968 88.3696 136.018C88.3696 131.766 85.3522 126.577 81.6422 124.451C80.6371 123.876 79.6479 123.573 78.7764 123.573C78.1947 123.573 77.6718 123.706 77.2191 123.964V123.964Z" fill="#989898"/>
<path d="M77.9297 129.744C77.9297 132.253 79.7066 135.308 81.8978 136.564C84.0867 137.818 85.8636 136.798 85.8636 134.288C85.8636 131.777 84.0867 128.724 81.8978 127.471C79.7066 126.215 77.9297 127.235 77.9297 129.744Z" fill="white"/>
<path d="M81.6423 137.004C79.2746 135.645 77.4185 132.458 77.4185 129.744C77.4185 127.727 78.4824 126.424 80.1257 126.424C80.7686 126.424 81.4522 126.628 82.1517 127.028C84.5194 128.385 86.3733 131.575 86.3733 134.288C86.3733 136.306 85.3094 137.606 83.666 137.606C83.0231 137.606 82.3418 137.404 81.6401 137.002L81.6423 137.004ZM78.4416 129.744C78.4416 132.089 80.1054 134.951 82.1517 136.124C82.6859 136.432 83.2088 136.593 83.666 136.593C84.7209 136.593 85.3501 135.731 85.3501 134.291C85.3501 131.945 83.6864 129.084 81.6401 127.911C81.1036 127.603 80.5807 127.441 80.1235 127.441C79.0686 127.441 78.4393 128.302 78.4393 129.744H78.4416Z" fill="#989898"/>
<path d="M48.1385 105.694C49.4016 104.973 51.1468 105.079 53.0732 106.182C56.9304 108.392 60.0564 113.768 60.0564 118.189C60.0564 120.399 59.2755 121.953 58.0101 122.677L56.8602 123.333C58.1233 122.609 58.9042 121.055 58.9042 118.844C58.9042 114.424 55.7782 109.048 51.921 106.837C49.9947 105.734 48.2494 105.627 46.9863 106.348L48.1362 105.692L48.1385 105.694Z" fill="white"/>
<path d="M56.8487 123.841C56.6201 123.87 56.3258 123.618 56.3258 123.333C56.3258 123.106 56.4752 122.913 56.6812 122.848C57.7881 122.169 58.397 120.752 58.397 118.845C58.397 114.594 55.3773 109.403 51.6673 107.278C49.9967 106.319 48.3805 106.143 47.2487 106.788H47.2465C47.0043 106.927 46.6919 106.844 46.547 106.604C46.4067 106.359 46.4904 106.051 46.7349 105.91L47.8848 105.254C49.3494 104.418 51.3142 104.587 53.331 105.741C57.3218 108.03 60.5701 113.613 60.5701 118.189C60.5701 120.514 59.7529 122.266 58.268 123.117L57.1203 123.769H57.1181C57.0388 123.816 56.9506 123.838 56.8645 123.838H56.8509L56.8487 123.841ZM52.1811 106.397C56.1719 108.686 59.4201 114.271 59.4201 118.845C59.4201 119.197 59.402 119.536 59.3636 119.86C59.4858 119.359 59.5469 118.8 59.5469 118.189C59.5469 113.936 56.5295 108.747 52.8172 106.622C52.3102 106.33 51.8031 106.107 51.3164 105.961C51.6016 106.087 51.8869 106.233 52.1789 106.397H52.1811Z" fill="#989898"/>
<path d="M51.9254 106.84C55.7826 109.05 58.9087 114.426 58.9087 118.847C58.9087 121.057 58.1277 122.612 56.8624 123.335H56.8578C55.5947 124.058 53.8518 123.955 51.9254 122.85C48.066 120.639 44.9399 115.264 44.9399 110.843C44.9399 108.632 45.7209 107.078 46.9862 106.355H46.9885C48.2539 105.631 49.9991 105.737 51.9254 106.84Z" fill="white"/>
<path d="M51.6675 123.29C47.6745 121.001 44.4263 115.417 44.4263 110.843C44.4263 108.516 45.2434 106.766 46.7284 105.914L46.7623 105.896C48.2223 105.079 50.1736 105.254 52.1814 106.399C56.1721 108.689 59.4204 114.273 59.4204 118.847C59.4204 121.174 58.6032 122.924 57.0934 123.791H57.0844C56.48 124.133 55.7941 124.303 55.0426 124.303C53.9787 124.303 52.8424 123.962 51.6675 123.29V123.29ZM58.3973 118.847C58.3973 114.597 55.3776 109.405 51.6675 107.28C49.9925 106.321 48.3808 106.143 47.2445 106.793C47.2354 106.799 47.2264 106.802 47.215 106.808C46.0764 107.478 45.4472 108.909 45.4472 110.845C45.4472 115.095 48.4668 120.287 52.1769 122.412C53.8519 123.371 55.4636 123.548 56.5977 122.899C56.6067 122.893 56.6158 122.89 56.6271 122.884C57.7657 122.214 58.3927 120.783 58.3927 118.847H58.3973Z" fill="#989898"/>
<path d="M47.9551 112.57C47.9551 115.082 49.732 118.137 51.9232 119.39C54.1121 120.644 55.8913 119.626 55.8913 117.117C55.8913 114.608 54.1144 111.55 51.9232 110.297C49.7343 109.043 47.9551 110.061 47.9551 112.57V112.57Z" fill="white"/>
<path d="M51.6677 119.831C49.3385 118.496 47.4438 115.239 47.4438 112.573C47.4438 110.555 48.5077 109.252 50.1534 109.252C50.7985 109.252 51.4799 109.457 52.1793 109.857C54.5086 111.191 56.4032 114.448 56.4032 117.115C56.4032 119.132 55.3393 120.435 53.6937 120.435C53.0508 120.435 52.3695 120.231 51.6677 119.831ZM48.467 112.573C48.467 114.918 50.133 117.78 52.1793 118.952C52.7158 119.26 53.2387 119.422 53.6937 119.422C54.7485 119.422 55.3801 118.559 55.3801 117.117C55.3801 114.774 53.7163 111.91 51.6677 110.74C51.1335 110.432 50.6106 110.27 50.1534 110.27C49.0985 110.27 48.467 111.133 48.467 112.575V112.573Z" fill="#989898"/>
</svg>
