<svg width="195" height="191" viewBox="0 0 195 191" fill="none" xmlns="http://www.w3.org/2000/svg">
<path d="M123.537 6.11195L132.395 1.11137C135.497 -0.645487 139.413 -0.310849 143.409 2.05444L181.868 24.7681C189.286 29.1489 195.026 39.3249 194.939 47.9381L195 143.094C194.947 147.706 193.164 151.289 190.114 153.015L181.252 158.016C178.15 159.772 174.234 159.438 170.239 157.072L131.779 134.359C124.362 129.978 118.621 119.802 118.709 111.189L118.655 16.0371C118.678 13.4018 119.245 11.1392 120.328 9.31005C121.145 7.92966 122.225 6.85349 123.537 6.11576V6.11195ZM180.386 151.802L180.397 151.775C180.405 151.764 180.408 151.737 180.416 151.733C180.865 150.737 181.1 149.497 181.116 148.049L181.541 104.907C181.553 103.519 182.69 102.405 184.073 102.42C184.53 102.424 184.959 102.549 185.324 102.766C186.069 103.207 186.567 104.024 186.556 104.956L186.134 148.102C186.126 148.592 186.104 149.072 186.062 149.535L187.643 148.642C189.096 147.817 189.947 145.759 189.974 143.044L189.921 47.8925C189.989 41.1388 185.126 32.5295 179.317 29.0956L140.858 6.38194C138.505 4.98635 136.315 4.65932 134.862 5.48451L126 10.4889C125.464 10.7931 125.008 11.257 124.643 11.8731C124.023 12.9188 123.689 14.3753 123.67 16.0903L123.723 111.242C123.655 117.996 128.513 126.601 134.326 130.039L172.786 152.753C175.143 154.144 177.325 154.468 178.785 153.65L180.142 152.882C180.142 152.521 180.218 152.152 180.382 151.806L180.386 151.802ZM173.002 29.7763L173.037 29.7953C178.063 32.7766 182.541 38.6899 184.723 45.2192C184.887 45.7173 184.891 46.2307 184.758 46.6946C185.111 47.0293 185.366 47.4666 185.48 47.9723C185.78 49.3375 185.959 50.6685 186.012 51.9157C186.069 53.2999 184.997 54.4712 183.617 54.5358C183.111 54.5548 182.632 54.4293 182.229 54.1898C181.526 53.7715 181.04 53.0147 181.001 52.1363C180.956 51.1666 180.815 50.1323 180.579 49.0523C180.488 48.634 180.507 48.2195 180.614 47.8354C180.329 47.5616 180.097 47.2156 179.96 46.8125C179.941 46.7402 179.914 46.668 179.888 46.5919C178.074 41.3214 174.402 36.4387 170.455 34.1C169.265 33.3927 168.87 31.8564 169.573 30.6623C170.277 29.4721 171.816 29.0728 173.002 29.7763Z" fill="#818181"/>
<path d="M171.512 154.913L133.057 132.195C126.449 128.294 121.138 118.886 121.218 111.216L121.279 105.15L121.161 16.0638C121.199 12.223 122.575 9.5421 124.765 8.30621C126.958 7.06653 129.969 7.27568 133.269 9.22648L171.729 31.9401C178.333 35.8455 183.644 45.2535 183.568 52.9274L183.682 142.018L183.625 148.083C183.587 151.916 182.21 154.605 180.017 155.84C177.823 157.08 174.812 156.871 171.512 154.92V154.913Z" fill="white"/>
<path d="M124.461 7.75071C126.955 6.3475 130.198 6.67834 133.593 8.68238L172.052 31.396C178.827 35.3965 184.279 45.0592 184.203 52.9233L184.256 148.079C184.214 151.996 182.796 154.981 180.332 156.376C177.838 157.783 174.595 157.456 171.2 155.448L132.741 132.735C125.966 128.734 120.522 119.075 120.598 111.204L120.541 16.0483C120.564 13.7552 121.043 11.8082 121.952 10.2681C122.602 9.17292 123.446 8.32872 124.465 7.7469L124.461 7.75071ZM182.997 148.071L182.944 52.9156C183.016 45.4433 177.846 36.2825 171.417 32.4798L132.958 9.76615C129.962 7.99788 127.164 7.67084 125.077 8.84969C123.027 10.0095 121.826 12.6448 121.792 16.0673L121.845 111.219C121.769 118.695 126.947 127.86 133.376 131.659L171.835 154.372C174.824 156.141 177.626 156.468 179.713 155.289C180.542 154.821 181.23 154.129 181.762 153.224C182.549 151.893 182.978 150.113 182.997 148.071Z" fill="#989898"/>
<path d="M152.393 132.898C154.226 133.986 155.723 136.5 155.887 138.686C155.895 138.835 155.902 138.979 155.895 139.124C155.895 139.276 155.883 139.428 155.868 139.572C155.647 141.512 154.134 142.23 152.313 141.15C150.481 140.07 148.998 137.587 148.819 135.412C148.804 135.245 148.796 135.085 148.8 134.929C148.8 134.788 148.808 134.652 148.823 134.518C149.025 132.552 150.553 131.818 152.393 132.902V132.898Z" fill="white"/>
<path d="M152.712 132.362C154.701 133.534 156.332 136.234 156.514 138.645C156.522 138.812 156.526 138.968 156.522 139.127C156.522 139.31 156.51 139.485 156.495 139.645C156.431 140.192 156.278 140.668 156.043 141.071C155.241 142.424 153.651 142.668 151.994 141.694C150.024 140.531 148.39 137.85 148.2 135.469C148.181 135.283 148.173 135.1 148.177 134.925C148.177 134.762 148.188 134.602 148.203 134.454C148.26 133.887 148.416 133.397 148.66 132.99C149.454 131.651 151.081 131.397 152.72 132.366L152.712 132.362ZM155.248 139.496C155.26 139.371 155.267 139.245 155.271 139.112C155.271 138.983 155.271 138.857 155.26 138.732C155.111 136.732 153.708 134.412 152.074 133.439C150.675 132.613 149.599 133.108 149.447 134.572C149.435 134.69 149.431 134.808 149.428 134.929C149.428 135.066 149.435 135.207 149.447 135.355C149.61 137.34 151.009 139.645 152.629 140.607C153.663 141.215 154.537 141.147 154.963 140.424C155.111 140.177 155.203 139.865 155.248 139.493V139.496Z" fill="#989898"/>
<path d="M177.583 49.383L177.735 134.324L177.697 138.477C177.663 142.306 174.941 143.846 171.641 141.896L133.182 119.182C129.882 117.231 127.224 112.52 127.262 108.686L127.137 20.8588L127.148 19.5962C127.186 15.7631 129.901 14.2306 133.204 16.1814L171.664 38.8951C174.968 40.8497 177.621 45.5498 177.587 49.3868L177.583 49.383Z" fill="white"/>
<path d="M133.524 15.6376L171.979 38.3551C175.454 40.4048 178.249 45.3559 178.211 49.3868L178.325 138.477C178.313 139.682 178.059 140.705 177.572 141.527C176.348 143.595 173.892 143.949 171.322 142.432L132.862 119.718C129.388 117.668 126.597 112.714 126.635 108.683L126.521 19.5925C126.529 18.3908 126.787 17.3641 127.274 16.5427C128.498 14.474 130.954 14.1203 133.524 15.6376V15.6376ZM177.066 138.466L176.952 49.383C176.986 45.7476 174.47 41.2794 171.337 39.4351L132.885 16.7176C130.908 15.5502 129.209 15.7251 128.346 17.1815C127.981 17.7976 127.779 18.638 127.772 19.6039L127.89 108.69C127.848 112.329 130.368 116.79 133.497 118.638L171.957 141.352C173.93 142.519 175.629 142.344 176.492 140.888C176.857 140.272 177.059 139.431 177.066 138.466V138.466Z" fill="#989898"/>
<path d="M192.429 47.9151L192.543 137.005L192.482 143.067C192.441 146.904 191.068 149.588 188.878 150.824L180.016 155.829C182.21 154.593 183.586 151.908 183.624 148.071L183.681 142.006L183.567 52.9156C183.647 45.2455 178.336 35.8338 171.728 31.9284L133.269 9.21475C129.969 7.26395 126.958 7.0548 124.764 8.29449L133.626 3.2901C135.82 2.05041 138.831 2.25957 142.131 4.21036L180.586 26.9278C187.194 30.8294 192.505 40.2374 192.425 47.9075L192.429 47.9151Z" fill="white"/>
<path d="M124.464 7.75093L124.472 7.74333L133.319 2.74655C135.813 1.33954 139.056 1.66657 142.451 3.67441L180.91 26.3881C187.685 30.3885 193.129 40.0475 193.053 47.9191L193.11 143.075C193.072 146.995 191.646 149.977 189.179 151.372L180.324 156.373C180.02 156.548 179.64 156.441 179.469 156.137C179.302 155.837 179.408 155.456 179.709 155.285C181.758 154.125 182.963 151.486 182.997 148.071L182.94 52.9121C183.012 45.4397 177.842 36.279 171.413 32.4762L132.954 9.76257C129.958 7.99431 127.16 7.66727 125.076 8.84612C124.772 9.01344 124.396 8.90696 124.221 8.60654C124.107 8.405 124.114 8.16543 124.221 7.9791C124.274 7.88783 124.354 7.80797 124.457 7.75093H124.464ZM188.574 150.281C190.624 149.117 191.821 146.482 191.859 143.063L191.806 47.9115C191.882 40.4353 186.704 31.2708 180.275 27.4718L141.816 4.75819C138.82 2.98992 136.026 2.66289 133.938 3.84173L128.49 6.91813C130.095 7.04743 131.821 7.63305 133.592 8.6826L172.052 31.3963C178.827 35.3967 184.278 45.0594 184.202 52.9235L184.256 148.079C184.237 150.132 183.856 151.901 183.119 153.357L188.578 150.277L188.574 150.281Z" fill="#989898"/>
<path d="M133.54 93.6432L71.4329 57.7797C71.2276 57.6581 70.9653 57.6581 70.7562 57.7797L8.64952 93.6432C8.43662 93.7649 8.31115 93.9931 8.31115 94.2364V100.762C8.31115 101.001 8.43662 101.226 8.64952 101.348L13.9645 104.416V114.84L3.2015 126.552C3.2015 126.552 3.19009 126.563 3.18629 126.571L3.17869 126.582C3.14827 126.613 3.12546 126.651 3.10265 126.689C3.10265 126.693 3.09504 126.696 3.09124 126.704C3.06083 126.754 3.04182 126.807 3.02281 126.864C3.02281 126.864 3.02281 126.871 3.02281 126.875C3.0076 126.928 3.0038 126.982 3 127.035C3 127.035 3 127.043 3 127.046C3 129.879 4.92372 133.207 7.3721 134.621C8.10965 135.043 8.8282 135.26 9.51253 135.26C10.3489 135.26 11.0523 134.926 11.5579 134.348C12.0598 135.755 12.9114 137.105 13.9569 138.131V154.236C13.9569 154.479 14.0861 154.7 14.2952 154.821L70.7562 187.426C70.8627 187.491 70.9767 187.521 71.0946 187.521C71.2124 187.521 71.3265 187.491 71.4329 187.426L127.894 154.821C128.107 154.7 128.232 154.479 128.232 154.236V115.231C128.236 115.189 128.244 115.151 128.244 115.11V104.413L133.54 101.355C133.753 101.233 133.878 101.005 133.878 100.77V94.2441C133.878 94.0007 133.753 93.7725 133.54 93.6508V93.6432Z" fill="#FF671D" stroke="#FF4D00" stroke-width="6" stroke-miterlimit="10"/>
<path d="M71.0987 186.338L14.6377 153.737L71.0987 121.133L127.56 153.737L71.0987 186.338Z" fill="white"/>
<path d="M71.0986 187.023C70.9808 187.023 70.8667 186.992 70.7603 186.927L14.2993 154.323C14.0864 154.201 13.9609 153.981 13.9609 153.737C13.9609 153.494 14.0902 153.266 14.2993 153.144L70.7603 120.54C70.9656 120.418 71.2317 120.418 71.437 120.54L127.898 153.144C128.111 153.266 128.236 153.494 128.236 153.737C128.236 153.981 128.111 154.201 127.898 154.323L71.437 186.927C71.3305 186.992 71.2165 187.023 71.0986 187.023ZM15.9987 153.737L71.0986 185.555L126.199 153.737L71.0986 121.916L15.9987 153.737V153.737Z" fill="#010101"/>
<path d="M71.1101 132.872L14.6491 100.264V114.615L14.6377 114.611V153.738L71.0987 186.338V156.331L71.1101 132.872Z" fill="white"/>
<path d="M71.0986 187.023C70.9808 187.023 70.8667 186.993 70.7603 186.928L14.2993 154.323C14.0864 154.202 13.9609 153.981 13.9609 153.738V114.611C13.9609 114.581 13.9609 114.547 13.9647 114.516V100.271C13.9685 100.024 14.0978 99.7999 14.3069 99.6782C14.5198 99.5565 14.7783 99.5565 14.9874 99.6782L71.4446 132.283C71.6575 132.404 71.7868 132.633 71.7868 132.876L71.7754 186.346C71.7754 186.589 71.6423 186.81 71.4332 186.932C71.3267 186.996 71.2127 187.027 71.0948 187.027L71.0986 187.023ZM15.3182 153.342L70.4181 185.163L70.4295 133.264L15.3296 101.443V114.615C15.3258 114.646 15.3258 114.68 15.3182 114.71V153.342Z" fill="#FF671D"/>
<path d="M71.0987 132.872L14.6377 100.264L71.0987 67.6592L127.56 100.264L71.0987 132.872Z" fill="white"/>
<path d="M71.0986 133.549C70.9808 133.549 70.8667 133.522 70.7603 133.458L14.2993 100.853C14.0864 100.731 13.9609 100.503 13.9609 100.267C13.9609 100.032 14.0902 99.7959 14.2993 99.6742L70.7603 67.0659C70.9656 66.9442 71.2317 66.9442 71.437 67.0659L127.898 99.6742C128.111 99.7959 128.236 100.024 128.236 100.267C128.236 100.511 128.111 100.731 127.898 100.853L71.437 133.458C71.3305 133.522 71.2165 133.549 71.0986 133.549ZM15.9987 100.271L71.0986 132.089L126.199 100.271L71.0986 68.4501L15.9987 100.271V100.271Z" fill="#010101"/>
<path d="M35.9007 131.974L20.853 123.285V157.323L35.9007 166.013V131.974Z" fill="white"/>
<path d="M35.901 166.689C35.7794 166.689 35.6615 166.663 35.5551 166.598L20.515 157.913C20.3021 157.787 20.1729 157.563 20.1729 157.32V123.281C20.1729 123.038 20.3059 122.817 20.515 122.696C20.7203 122.574 20.9864 122.574 21.1917 122.696L36.2394 131.381C36.4523 131.503 36.5777 131.731 36.5777 131.974V166.013C36.5777 166.252 36.4523 166.476 36.2394 166.598C36.1329 166.663 36.0189 166.689 35.901 166.689V166.689ZM21.5377 156.932L35.2205 164.834V132.362L21.5377 124.46V156.932Z" fill="#FF671D"/>
<path d="M21.9824 144.672V125.244L34.768 132.625V152.053L21.9824 144.672Z" fill="white"/>
<path d="M22.549 144.345L21.9824 144.672V125.244L22.549 125.567V144.345Z" fill="white"/>
<path d="M64.8823 148.714L40.6685 134.728V156.764L64.8823 170.751V148.714Z" fill="white"/>
<path d="M41.7974 156.114V136.686L63.7567 149.364V168.792L41.7974 156.114Z" fill="white"/>
<path d="M63.7567 168.207V168.792L41.7974 156.114L42.3562 155.787L63.7567 168.207Z" fill="white"/>
<path d="M42.3564 155.787L41.7974 156.114V136.686L42.3564 137.009V155.787Z" fill="white"/>
<path d="M19.8117 135.861C19.8117 138.432 18.0059 139.474 15.778 138.192C13.5539 136.903 11.748 133.777 11.748 131.203L19.8117 135.861V135.861ZM27.8754 140.519C27.8754 143.09 29.6813 146.22 31.9091 147.501C34.137 148.79 35.9391 147.744 35.9391 145.17L27.8754 140.516V140.519ZM44.0104 149.832C44.0104 152.403 45.8162 155.532 48.0403 156.822C50.2682 158.107 52.0741 157.065 52.0741 154.491L44.0104 149.832V149.832Z" fill="white"/>
<path d="M49.8423 158.053C49.1617 158.053 48.4432 157.833 47.7018 157.411C45.2496 155.996 43.3297 152.669 43.3297 149.836C43.3297 149.596 43.4628 149.372 43.6681 149.25C43.881 149.128 44.1395 149.128 44.3486 149.25L52.4123 153.905C52.6252 154.03 52.7507 154.254 52.7507 154.498C52.7507 155.532 52.4883 156.414 51.9865 157.046C51.4618 157.696 50.7015 158.061 49.8423 158.061V158.053ZM44.8352 151.098C45.2877 153.125 46.7324 155.281 48.3785 156.232C48.9032 156.532 49.4088 156.692 49.8423 156.692C50.2947 156.692 50.6596 156.525 50.9258 156.194C51.1805 155.878 51.3326 155.43 51.3782 154.874L44.8352 151.098V151.098ZM33.7149 148.737C33.0344 148.737 32.312 148.52 31.5707 148.098C29.1185 146.683 27.2024 143.356 27.2024 140.523C27.2024 140.279 27.3278 140.051 27.5407 139.93C27.7536 139.808 28.0121 139.808 28.2174 139.93L36.2887 144.588C36.494 144.71 36.6271 144.93 36.6271 145.174C36.6271 146.216 36.3648 147.09 35.8629 147.725C35.3383 148.375 34.5779 148.733 33.7187 148.733L33.7149 148.737ZM28.7079 141.785C29.1603 143.808 30.605 145.965 32.2512 146.919C32.7758 147.219 33.2739 147.379 33.7149 147.379C34.1673 147.379 34.5285 147.212 34.7984 146.877C35.0455 146.562 35.2052 146.113 35.2508 145.561L28.7079 141.785V141.785ZM17.5799 139.424C16.8994 139.424 16.1808 139.207 15.4395 138.781C12.9873 137.367 11.0674 134.039 11.0674 131.206C11.0674 130.963 11.2005 130.742 11.4058 130.621C11.6187 130.499 11.8772 130.499 12.0863 130.621L20.15 135.275C20.3629 135.397 20.4921 135.625 20.4921 135.868C20.4921 137.998 19.3212 139.428 17.5761 139.428L17.5799 139.424ZM12.5805 132.469C13.0367 134.496 14.47 136.652 16.1238 137.602C17.694 138.511 18.9714 137.96 19.1197 136.245L12.5805 132.469Z" fill="#FF671D"/>
<path d="M11.7483 131.202C11.7483 133.773 9.94239 134.822 7.71452 133.533C5.48665 132.248 3.68457 129.118 3.68457 126.544L11.7483 131.202ZM19.8119 135.861C19.8119 138.431 21.6178 141.561 23.8457 142.85C26.0697 144.135 27.8756 143.093 27.8756 140.519L19.8119 135.861V135.861ZM35.9393 145.173C35.9393 147.744 37.7452 150.878 39.973 152.163C42.2009 153.452 44.0068 152.406 44.0068 149.832L35.9355 145.173H35.9393ZM52.0743 154.49C52.0743 157.061 53.8801 160.19 56.1042 161.48C58.3321 162.765 60.1417 161.723 60.1417 159.148L52.0781 154.49H52.0743Z" fill="white"/>
<path d="M57.9061 162.708C57.2256 162.708 56.5071 162.495 55.7657 162.069C53.3135 160.655 51.3936 157.327 51.3936 154.494C51.3936 154.251 51.5267 154.03 51.732 153.901C51.9449 153.779 52.2034 153.779 52.4125 153.901L60.4762 158.559C60.6891 158.681 60.8183 158.909 60.8183 159.152C60.8183 160.187 60.5484 161.069 60.0466 161.7C59.5219 162.354 58.7653 162.708 57.9023 162.708H57.9061ZM52.9067 155.757C53.3591 157.78 54.7962 159.94 56.45 160.89C56.9671 161.191 57.4727 161.35 57.9061 161.35C58.3586 161.35 58.7235 161.183 58.9897 160.852C59.2444 160.537 59.3965 160.08 59.4421 159.533L52.9067 155.757V155.757ZM41.7788 153.395C41.0982 153.395 40.3721 153.178 39.6383 152.752C37.1824 151.342 35.2662 148.014 35.2662 145.177C35.2662 144.934 35.3917 144.713 35.6046 144.592C35.8175 144.47 36.076 144.47 36.2851 144.592L44.3488 149.25C44.5617 149.372 44.6872 149.6 44.6872 149.836C44.6872 150.878 44.4248 151.76 43.923 152.387C43.4022 153.038 42.638 153.395 41.7788 153.395ZM36.7718 146.44C37.2242 148.467 38.6689 150.631 40.3151 151.574C41.3834 152.193 42.3452 152.186 42.8623 151.536C43.117 151.22 43.2691 150.771 43.3147 150.22L36.7718 146.436V146.44ZM25.6514 144.082C24.9633 144.082 24.2447 143.865 23.5072 143.44C21.055 142.025 19.1351 138.698 19.1351 135.865C19.1351 135.621 19.2681 135.393 19.481 135.271C19.6863 135.15 19.9487 135.15 20.1578 135.271L28.2214 139.93C28.4343 140.051 28.5674 140.28 28.5674 140.523C28.5674 141.557 28.3051 142.439 27.7956 143.071C27.2786 143.721 26.5182 144.086 25.6552 144.086L25.6514 144.082ZM20.6444 137.127C21.0968 139.15 22.5339 141.31 24.1877 142.261C24.7124 142.561 25.2104 142.721 25.6514 142.721C26.1 142.721 26.465 142.554 26.7273 142.223C26.982 141.907 27.1379 141.451 27.1873 140.903L20.6444 137.127V137.127ZM9.51644 134.766C8.83592 134.766 8.11737 134.549 7.37601 134.127C4.92383 132.712 3.00391 129.385 3.00391 126.552C3.00391 126.308 3.13697 126.08 3.34227 125.958C3.55517 125.837 3.81369 125.837 4.02279 125.958L12.0865 130.617C12.2994 130.738 12.4248 130.959 12.4248 131.202C12.4248 133.332 11.2577 134.762 9.51644 134.762V134.766ZM4.50943 127.814C4.96185 129.837 6.40654 131.993 8.05274 132.948C9.62669 133.853 10.9041 133.302 11.0524 131.59L4.50943 127.814Z" fill="#FF671D"/>
<path d="M19.8117 135.861L11.748 131.202L22.7049 119.27L30.7686 123.928L19.8117 135.861ZM46.8998 133.241L38.8361 128.582L27.8792 140.519L35.9429 145.174L46.8998 133.241ZM63.0347 142.557L54.9672 137.899L44.0142 149.832L52.0779 154.49L63.0347 142.557V142.557Z" fill="white"/>
<path d="M52.0739 155.175C51.956 155.175 51.842 155.144 51.7317 155.083L43.668 150.425C43.4893 150.319 43.3677 150.144 43.3335 149.938C43.303 149.733 43.3639 149.528 43.5084 149.372L54.4652 137.439C54.6819 137.207 55.0317 137.15 55.3054 137.306L63.3691 141.964C63.5478 142.07 63.6695 142.249 63.7037 142.451C63.7341 142.656 63.6733 142.861 63.5288 143.017L52.5719 154.95C52.4389 155.095 52.2602 155.171 52.0739 155.171V155.175ZM45.0823 149.672L51.9408 153.635L61.9586 142.725L55.0925 138.758L45.0785 149.672H45.0823ZM35.9389 145.858C35.8211 145.858 35.707 145.828 35.6005 145.767L27.5369 141.108C27.3582 141.002 27.2365 140.827 27.2023 140.622C27.1719 140.416 27.2365 140.211 27.3696 140.063L38.3265 128.126C38.5432 127.894 38.8967 127.841 39.1667 128L47.2303 132.659C47.409 132.758 47.5307 132.94 47.5649 133.138C47.5953 133.343 47.5307 133.549 47.3938 133.704L36.4369 145.637C36.3039 145.782 36.1214 145.858 35.9351 145.858H35.9389ZM28.9473 140.355L35.8058 144.318L45.8237 133.408L38.9614 129.445L28.9435 140.355H28.9473ZM19.8115 136.541C19.6937 136.541 19.5796 136.515 19.4732 136.45L11.4019 131.796C11.227 131.689 11.1016 131.51 11.0749 131.309C11.0407 131.103 11.1054 130.898 11.2422 130.742L22.1991 118.809C22.4158 118.577 22.7656 118.52 23.0393 118.684L31.103 123.338C31.2817 123.445 31.4033 123.62 31.4375 123.825C31.468 124.03 31.4071 124.236 31.2627 124.392L20.3096 136.325C20.1765 136.469 19.994 136.541 19.8077 136.541H19.8115ZM12.82 131.043L19.6785 135.005L29.6963 124.095L22.8302 120.133L12.82 131.043V131.043Z" fill="#FF671D"/>
<path d="M11.7483 131.203L3.68457 126.544L14.6376 114.611L22.7089 119.27L11.7521 131.203H11.7483ZM38.8363 128.583L30.7726 123.928L19.8157 135.861L27.8794 140.519L38.8363 128.583ZM54.9675 137.899L46.9038 133.241L35.9469 145.174L44.0182 149.832L54.9713 137.899H54.9675ZM71.0986 147.212L63.0349 142.558L52.0781 154.49L60.1418 159.149L71.0986 147.212Z" fill="white"/>
<path d="M60.1415 159.829C60.0236 159.829 59.9095 159.803 59.8031 159.738L51.7318 155.084C51.5569 154.977 51.4315 154.798 51.4049 154.597C51.3744 154.392 51.4353 154.186 51.5721 154.03L62.529 142.097C62.7457 141.865 63.0955 141.812 63.3692 141.964L71.4329 146.623C71.6116 146.729 71.7332 146.904 71.7674 147.109C71.8017 147.315 71.737 147.52 71.6002 147.668L60.6395 159.605C60.5102 159.75 60.3239 159.822 60.1377 159.822L60.1415 159.829ZM53.1499 154.331L60.0084 158.293L70.0262 147.383L63.1677 143.421L53.1499 154.331ZM44.0141 150.517C43.8924 150.517 43.7746 150.486 43.6719 150.425L35.6083 145.767C35.4296 145.661 35.3079 145.482 35.2737 145.28C35.2433 145.075 35.3041 144.87 35.4486 144.714L46.4016 132.781C46.6259 132.549 46.9719 132.492 47.2418 132.655L55.3131 137.31C55.4918 137.416 55.6135 137.591 55.6477 137.796C55.6781 138.002 55.6173 138.207 55.4728 138.363L44.5159 150.296C44.3829 150.441 44.2004 150.517 44.0179 150.517H44.0141ZM37.0225 145.014L43.881 148.98L53.895 138.066L47.0366 134.104L37.0225 145.014ZM27.8791 141.2C27.7613 141.2 27.6472 141.173 27.5408 141.109L19.4771 136.45C19.2984 136.351 19.1767 136.169 19.1425 135.964C19.1121 135.762 19.1729 135.557 19.3098 135.405L30.2667 123.472C30.4834 123.24 30.8332 123.186 31.1069 123.339L39.1706 127.997C39.3493 128.096 39.4709 128.278 39.5013 128.484C39.5317 128.685 39.4709 128.894 39.334 129.043L28.3772 140.976C28.2441 141.124 28.0616 141.196 27.8753 141.196L27.8791 141.2ZM20.8876 135.701L27.7461 139.664L37.7639 128.754L30.9054 124.787L20.8876 135.701ZM11.7518 131.887C11.6339 131.887 11.5198 131.857 11.4096 131.796L3.34592 127.137C3.16723 127.031 3.04558 126.856 3.01136 126.651C2.97714 126.445 3.04938 126.24 3.18624 126.092L14.1469 114.159C14.3636 113.919 14.7096 113.87 14.9871 114.026L23.0508 118.684C23.2295 118.783 23.3511 118.965 23.3854 119.163C23.4158 119.368 23.3549 119.574 23.2105 119.73L12.2536 131.663C12.1205 131.807 11.9419 131.883 11.7556 131.883L11.7518 131.887ZM4.7602 126.385L11.6187 130.347L21.6327 119.437L14.7742 115.475L4.7602 126.385V126.385Z" fill="#FF671D"/>
<path d="M127.571 100.264L71.1096 132.872V147.208L71.0981 147.212V186.338L127.559 153.738V114.615L127.571 114.611V100.264Z" fill="white"/>
<path d="M71.0985 187.023C70.9806 187.023 70.8666 186.992 70.7601 186.928C70.5472 186.806 70.418 186.586 70.418 186.342V147.216C70.418 147.178 70.4218 147.136 70.4294 147.098V132.872C70.4294 132.629 70.5624 132.401 70.7715 132.279L127.229 99.6743C127.442 99.5526 127.7 99.5526 127.909 99.6743C128.122 99.796 128.248 100.024 128.248 100.267V114.608C128.248 114.649 128.244 114.687 128.236 114.729V153.734C128.236 153.977 128.111 154.198 127.898 154.319L71.4369 186.924C71.3304 186.989 71.2163 187.019 71.0985 187.019V187.023ZM71.779 147.33V185.163L126.879 153.342V114.615C126.879 114.577 126.883 114.535 126.89 114.497V101.439L71.7904 133.26V147.205C71.7904 147.246 71.7866 147.284 71.779 147.326V147.33Z" fill="#FF671D"/>
<path d="M71.0984 64.3999L8.9917 100.263L71.0984 136.131L133.205 100.263L71.0984 64.3999ZM71.0984 129.605L20.2831 100.263L71.0984 70.9216L121.91 100.263L71.0984 129.605Z" fill="white"/>
<path d="M71.0981 129.605V136.131L133.205 100.263V93.7456L71.0981 129.605Z" fill="white"/>
<path d="M71.0985 136.808C70.9806 136.808 70.8666 136.781 70.7601 136.716C70.5472 136.595 70.418 136.366 70.418 136.131V129.605C70.418 129.366 70.551 129.141 70.7601 129.02L132.863 93.1523C133.076 93.0306 133.331 93.0306 133.544 93.1523C133.756 93.274 133.882 93.5022 133.882 93.7455V100.271C133.882 100.511 133.756 100.735 133.544 100.857L71.4369 136.72C71.3304 136.785 71.2163 136.811 71.0985 136.811V136.808ZM71.779 130.004V134.956L132.525 99.8755V94.9206L71.779 130.004V130.004Z" fill="#FF671D"/>
<path d="M20.2832 93.7455V100.263L71.0985 70.9178V64.3999L20.2832 93.7455Z" fill="white"/>
<path d="M71.0984 57.8823L8.9917 93.7458L14.6374 97.0047L71.0984 129.609L127.559 97.0047L133.205 93.7458L71.0984 57.8823ZM71.0984 123.088L20.2831 93.7458L71.0984 64.404L121.91 93.7458L71.0984 123.088Z" fill="white"/>
<path d="M71.0984 130.29C70.9805 130.29 70.8665 130.259 70.76 130.199L8.6533 94.3313C8.4404 94.2097 8.31494 93.9891 8.31494 93.7457C8.31494 93.5023 8.4404 93.2742 8.6533 93.1525L70.76 57.289C70.9653 57.1673 71.2314 57.1673 71.4367 57.289L133.543 93.1525C133.756 93.2742 133.882 93.5023 133.882 93.7457C133.882 93.9891 133.756 94.2097 133.543 94.3313L71.4367 130.199C71.3303 130.256 71.2162 130.29 71.0984 130.29ZM10.3527 93.7457L71.0984 128.826L131.844 93.7457L71.0984 58.6656L10.3527 93.7457ZM71.0984 123.772C70.9805 123.772 70.8665 123.742 70.76 123.677L19.9447 94.3352C19.7318 94.2135 19.6064 93.9929 19.6064 93.7495C19.6064 93.5062 19.7318 93.278 19.9447 93.1563L70.76 63.8183C70.9653 63.6928 71.2314 63.6928 71.4367 63.8183L122.252 93.1563C122.457 93.278 122.59 93.5062 122.59 93.7495C122.59 93.9929 122.461 94.2135 122.252 94.3352L71.4367 123.677C71.3303 123.742 71.2162 123.772 71.0984 123.772ZM21.6442 93.7457L71.0984 122.304L120.553 93.7457L71.0984 65.1873L21.6442 93.7457V93.7457Z" fill="#FF671D"/>
<path d="M8.9917 93.7456V100.263L71.0984 136.131V129.605L8.9917 93.7456Z" fill="white"/>
<path d="M71.0984 136.807C70.9805 136.807 70.8665 136.781 70.76 136.716L8.6533 100.853C8.4404 100.731 8.31494 100.503 8.31494 100.267V93.7416C8.31494 93.4982 8.4404 93.2701 8.6533 93.1484C8.8662 93.0267 9.12473 93.0267 9.33383 93.1484L71.4329 129.016C71.6458 129.137 71.7751 129.366 71.7751 129.601V136.127C71.7751 136.366 71.642 136.591 71.4329 136.712C71.3265 136.777 71.2124 136.804 71.0946 136.804L71.0984 136.807ZM9.6722 99.8716L70.4178 134.952V130.001L9.6722 94.9167V99.8716V99.8716Z" fill="#FF671D"/>
<path d="M20.8537 149.695L14.6377 146.109V153.738L20.8537 157.324V149.695Z" fill="white"/>
<path d="M20.8537 158.004C20.7358 158.004 20.6141 157.974 20.5153 157.913L14.2993 154.319C14.0864 154.198 13.9609 153.977 13.9609 153.734V146.105C13.9609 145.862 14.0902 145.641 14.2993 145.512C14.5122 145.39 14.7669 145.39 14.9798 145.512L21.192 149.106C21.4049 149.227 21.538 149.456 21.538 149.699V157.32C21.538 157.563 21.4049 157.784 21.192 157.913C21.0856 157.97 20.9715 158.004 20.8537 158.004ZM15.3182 153.338L20.1731 156.145V150.091L15.3182 147.284V153.338Z" fill="#010101"/>
<path d="M71.0977 178.714L35.9004 158.384V166.013L71.0977 186.338V178.714Z" fill="white"/>
<path d="M71.098 187.023C70.9801 187.023 70.8661 186.992 70.7596 186.928L35.5547 166.602C35.3494 166.48 35.2163 166.252 35.2163 166.016V158.388C35.2163 158.145 35.3494 157.924 35.5547 157.795C35.7676 157.673 36.0261 157.673 36.2352 157.795L71.4325 178.128C71.6454 178.25 71.7747 178.478 71.7747 178.721V186.342C71.7747 186.585 71.6416 186.806 71.4325 186.928C71.3261 186.992 71.212 187.023 71.0942 187.023H71.098ZM36.5736 165.617L70.4136 185.163V179.109L36.5736 159.563V165.617Z" fill="#010101"/>
<path d="M12.9448 154.715L14.6366 153.737L20.8526 157.323L19.157 158.301L12.9448 154.715Z" fill="white"/>
<path d="M19.1574 158.981C19.0395 158.981 18.9255 158.951 18.819 158.89L12.603 155.304C12.3977 155.182 12.2646 154.954 12.2646 154.711C12.2646 154.467 12.3901 154.247 12.603 154.125L14.2986 153.144C14.5115 153.022 14.7663 153.022 14.9792 153.144L21.1914 156.73C21.4043 156.855 21.5373 157.08 21.5373 157.323C21.5373 157.567 21.4043 157.787 21.1914 157.916L19.4995 158.894C19.3931 158.951 19.279 158.985 19.1574 158.985V158.981ZM14.3024 154.715L19.1574 157.521L19.4957 157.327L14.637 154.528L14.3024 154.718V154.715Z" fill="#010101"/>
<path d="M12.9448 147.087L14.637 146.109V153.738L12.9448 154.715V147.087Z" fill="white"/>
<path d="M12.9453 155.396C12.8237 155.396 12.7058 155.365 12.6031 155.304C12.3977 155.183 12.2646 154.954 12.2646 154.711V147.083C12.2646 146.843 12.3977 146.619 12.6031 146.497L14.2991 145.516C14.5121 145.394 14.7668 145.394 14.9798 145.516C15.1851 145.642 15.3182 145.866 15.3182 146.109V153.738C15.3182 153.981 15.1851 154.202 14.9798 154.323L13.2838 155.304C13.1773 155.361 13.0632 155.396 12.9453 155.396V155.396ZM13.6222 147.482V153.536L13.9607 153.342V147.288L13.6222 147.482Z" fill="#010101"/>
<path d="M19.1577 158.301L20.8537 157.324V149.695L19.1577 150.68V158.301Z" fill="white"/>
<path d="M19.1574 158.982C19.0395 158.982 18.9254 158.951 18.8189 158.89C18.606 158.769 18.4805 158.54 18.4805 158.297V150.676C18.4805 150.433 18.606 150.205 18.8189 150.083L20.5149 149.106C20.7203 148.984 20.9865 148.984 21.1918 149.106C21.4048 149.228 21.5379 149.456 21.5379 149.699V157.32C21.5379 157.563 21.4048 157.784 21.1918 157.913L19.4996 158.89C19.3931 158.947 19.279 158.982 19.1574 158.982ZM19.838 151.068V157.122L20.1727 156.932V150.874L19.838 151.068Z" fill="#FF671D"/>
<path d="M34.2051 166.99L35.9007 166.013L71.098 186.338L69.4024 187.316L34.2051 166.99Z" fill="white"/>
<path d="M69.4027 188C69.2848 188 69.1708 187.97 69.0643 187.909L33.8632 167.583C33.6503 167.462 33.521 167.233 33.521 166.99C33.521 166.747 33.6503 166.526 33.8632 166.404L35.555 165.423C35.7679 165.302 36.0264 165.302 36.2355 165.423L71.4328 185.749C71.6457 185.871 71.775 186.099 71.775 186.342C71.775 186.585 71.6419 186.806 71.4328 186.928L69.741 187.909C69.6346 187.966 69.5129 188 69.3989 188H69.4027ZM35.5626 166.994L69.4027 186.54L69.741 186.346L35.9009 166.8L35.5626 166.994Z" fill="#010101"/>
<path d="M69.4028 187.316L71.0988 186.338V178.714L69.4028 179.695V187.316Z" fill="white"/>
<path d="M69.4025 188C69.2846 188 69.1705 187.97 69.064 187.909C68.8511 187.787 68.7256 187.559 68.7256 187.316V179.687C68.7256 179.444 68.8549 179.223 69.064 179.102L70.76 178.124C70.9654 178.003 71.2316 178.003 71.4369 178.124C71.6499 178.246 71.7792 178.474 71.7792 178.718V186.338C71.7792 186.582 71.6461 186.802 71.4369 186.924L69.7447 187.905C69.6382 187.962 69.5166 187.996 69.4025 187.996V188ZM70.0832 180.087V186.141L70.4178 185.95V179.893L70.0832 180.087Z" fill="#FF671D"/>
<path d="M34.2056 159.362L35.9016 158.384V166.013L34.2056 166.99V159.362Z" fill="white"/>
<path d="M34.2056 167.67C34.0877 167.67 33.966 167.64 33.8671 167.579C33.6542 167.457 33.5249 167.229 33.5249 166.986V159.358C33.5249 159.118 33.6542 158.894 33.8671 158.772L35.5594 157.791C35.7723 157.669 36.0309 157.669 36.2401 157.791C36.453 157.916 36.5785 158.141 36.5785 158.384V166.012C36.5785 166.252 36.453 166.476 36.2401 166.598L34.544 167.579C34.4376 167.636 34.3235 167.67 34.2056 167.67V167.67ZM34.8825 159.757V165.811L35.2209 165.617V159.563L34.8825 159.757Z" fill="#010101"/>
<path d="M12.9448 147.087L14.6366 146.109L20.8526 149.695L19.157 150.676L12.9448 147.083V147.087ZM69.402 179.695L71.0976 178.714L35.9003 158.388L34.2047 159.366L69.402 179.699V179.695Z" fill="white"/>
<path d="M69.4025 180.372C69.2846 180.372 69.1706 180.345 69.0641 180.281L33.863 159.955C33.6501 159.833 33.5208 159.605 33.5208 159.362C33.5208 159.119 33.6501 158.898 33.863 158.776L35.5548 157.795C35.7677 157.673 36.0262 157.673 36.2353 157.795L71.4326 178.128C71.6455 178.25 71.7748 178.478 71.7748 178.722C71.7748 178.965 71.6417 179.185 71.4326 179.307L69.7408 180.284C69.6344 180.349 69.5127 180.376 69.3987 180.376L69.4025 180.372ZM35.5624 159.366L69.4025 178.912L69.7408 178.722L35.9007 159.176L35.5624 159.366ZM19.1613 151.357C19.0434 151.357 18.9294 151.331 18.8229 151.266L12.6069 147.68C12.4016 147.558 12.2686 147.338 12.2686 147.087C12.2686 146.836 12.394 146.623 12.6069 146.501L14.3025 145.52C14.5154 145.398 14.7702 145.398 14.9831 145.52L21.1953 149.114C21.4082 149.235 21.5412 149.463 21.5412 149.707C21.5412 149.95 21.4082 150.171 21.1953 150.292L19.5034 151.27C19.397 151.334 19.2753 151.361 19.1613 151.361V151.357ZM14.3063 147.091L19.1613 149.897L19.4996 149.707L14.6409 146.9L14.3063 147.091Z" fill="#FF671D"/>
<path d="M19.157 158.301L12.9448 154.715V147.086L19.157 150.68V158.301V158.301ZM69.402 179.695L34.2047 159.362V166.99L69.402 187.315V179.695Z" fill="white"/>
<path d="M69.4024 188C69.2845 188 69.1705 187.97 69.064 187.909L33.8629 167.583C33.65 167.462 33.5207 167.233 33.5207 166.99V159.362C33.5207 159.122 33.65 158.898 33.8629 158.776C34.0682 158.654 34.3267 158.654 34.5396 158.776L69.7445 179.102C69.9498 179.223 70.0829 179.452 70.0829 179.687V187.316C70.0829 187.559 69.9498 187.787 69.7445 187.909C69.6381 187.966 69.5164 188 69.4024 188ZM34.8779 166.602L68.7256 186.148V180.09L34.8779 160.544V166.602V166.602ZM19.1574 158.985C19.0395 158.985 18.9255 158.955 18.819 158.894L12.603 155.308C12.3977 155.186 12.2646 154.958 12.2646 154.715V147.087C12.2646 146.847 12.3977 146.623 12.603 146.501C12.8159 146.379 13.0744 146.379 13.2835 146.501L19.4995 150.087C19.7048 150.209 19.8379 150.437 19.8379 150.68V158.301C19.8379 158.544 19.7048 158.772 19.4995 158.894C19.3931 158.951 19.2714 158.985 19.1574 158.985V158.985ZM13.6219 154.327L18.4806 157.133V151.076L13.6219 148.269V154.327Z" fill="#FF671D"/>
</svg>
