<svg width="198" height="185" viewBox="0 0 198 185" fill="none" xmlns="http://www.w3.org/2000/svg">
<path d="M79.0905 135.556C82.5036 137.529 80.9858 136.647 80.0932 136.129C81.4419 136.912 86.0032 139.561 98.4286 146.78L172.427 103.835V74.6037L181.754 69.1876L186.417 66.4835V61.0674L181.754 63.7715L172.494 69.1481C178.667 65.5663 183.63 62.6883 186.417 61.0674L136.287 7.07276L86.1801 2.89014C75.701 8.96642 13.0115 45.3687 2.87842 51.2513V56.6674L16.8767 57.8297V99.4306L36.1912 110.654L57.6566 123.103L79.0905 135.556V135.556ZM134.305 8.22714C133.204 8.86758 131.891 9.62662 130.357 10.5201C131.895 9.62662 133.208 8.86758 134.305 8.22714Z" fill="white"/>
<path d="M98.4285 149.674C97.937 149.674 97.4376 149.539 96.9894 149.286L79.1769 138.94C78.7916 138.723 78.2922 138.434 77.6552 138.063L15.4296 101.937C14.5409 101.419 13.9904 100.463 13.9904 99.4307V60.4943L2.63845 59.5455C1.14425 59.423 0 58.1698 0 56.6675V51.2514C0 50.2156 0.546564 49.2629 1.43915 48.745L84.7408 0.383822C85.2481 0.0912747 85.83 -0.0431398 86.4199 0.012207L136.527 4.19483C137.238 4.25809 137.903 4.57831 138.391 5.10015L188.21 58.7628C188.902 59.2925 189.351 60.1227 189.351 61.0676C189.351 61.2652 189.327 61.4629 189.296 61.6447V66.4797C189.296 67.5154 188.741 68.4642 187.853 68.9821L175.297 76.2681V103.831C175.297 104.867 174.747 105.819 173.858 106.337L99.8677 149.282C99.4194 149.535 98.924 149.67 98.4246 149.67L98.4285 149.674ZM81.3592 133.532C81.4143 133.56 81.4693 133.595 81.5283 133.623L98.4324 143.439L169.545 102.162V74.5998C169.545 73.564 170.091 72.6113 170.988 72.0934L171.436 71.8364C170.854 71.6071 170.339 71.1841 170.005 70.5951C169.21 69.2114 169.682 67.4482 171.055 66.6418L181.848 60.3836L135.744 10.7376L131.792 13.0266C130.408 13.8291 128.655 13.3468 127.86 11.9711C127.369 11.1092 127.361 10.1051 127.758 9.27092L86.8406 5.85128L5.7566 52.9158V53.999L17.1086 54.9478C18.6028 55.0703 19.747 56.3235 19.747 57.8337V97.7585L81.3592 133.528V133.532Z" fill="#818181"/>
<path d="M36.1909 64.0997V103.072V110.654L45.5179 105.238V97.6596V47.8555L36.1909 64.0997Z" fill="white"/>
<path d="M36.1913 111.374C36.0694 111.374 35.9435 111.346 35.8334 111.279C35.6093 111.148 35.4717 110.915 35.4717 110.654V64.0996C35.4717 63.9692 35.5071 63.8466 35.5739 63.7359L44.9009 47.4996C45.0621 47.2189 45.3924 47.0845 45.7109 47.1635C46.0255 47.2465 46.2417 47.5351 46.2417 47.8593V105.242C46.2417 105.495 46.1002 105.736 45.88 105.867L36.553 111.283C36.4429 111.35 36.3171 111.378 36.1952 111.378L36.1913 111.374ZM36.9108 64.2894V109.401L44.8026 104.819V50.5555L36.9108 64.2894Z" fill="#010101"/>
<path d="M66.9833 117.691L45.5179 105.238L36.1909 110.654L57.6563 123.099L79.0902 135.556L88.4172 130.14L66.9833 117.691Z" fill="white"/>
<path d="M79.0905 136.28C78.9686 136.28 78.8428 136.244 78.7327 136.185L35.8334 111.279C35.6093 111.148 35.4717 110.915 35.4717 110.654C35.4717 110.393 35.6132 110.152 35.8334 110.026L45.1604 104.61C45.3845 104.479 45.6598 104.479 45.876 104.61L88.7793 129.516C88.9955 129.646 89.1371 129.879 89.1371 130.14C89.1371 130.401 88.9955 130.642 88.7793 130.769L79.4484 136.185C79.3422 136.248 79.2124 136.28 79.0905 136.28V136.28ZM37.6304 110.65L79.0905 134.714L86.9823 130.136L45.5221 106.064L37.6304 110.646V110.65Z" fill="#989898"/>
<path d="M43.3988 96.3315L86.3217 121.234L79.7039 132.722L36.8086 107.82L43.3988 96.3315Z" fill="white"/>
<path d="M79.7036 133.441C79.5817 133.441 79.4559 133.414 79.3458 133.346L36.4426 108.444C36.1005 108.247 35.9825 107.804 36.1791 107.46L42.7733 95.9715C42.8676 95.8015 43.0249 95.679 43.2097 95.6355C43.3945 95.5841 43.5872 95.6118 43.7563 95.7027L86.6792 120.609C86.8404 120.704 86.9662 120.862 87.0134 121.048C87.0645 121.233 87.037 121.431 86.9426 121.593L80.3249 133.082C80.1912 133.311 79.9513 133.441 79.7036 133.441V133.441ZM37.7834 107.555L79.4402 131.733L85.3344 121.502L43.6619 97.3236L37.7873 107.555H37.7834Z" fill="#989898"/>
<path d="M43.4183 85.5029L86.3216 110.405L79.7274 121.885L36.8281 96.9913L43.4183 85.5029Z" fill="white"/>
<path d="M79.7271 122.613C79.6013 122.613 79.4755 122.577 79.3693 122.518L36.4661 97.6158C36.124 97.4181 36.006 96.9754 36.2105 96.6314L42.7968 85.143C42.8911 84.973 43.0484 84.8544 43.2332 84.807C43.418 84.7556 43.6147 84.7912 43.7798 84.8782L86.6791 109.78C87.0212 109.978 87.1391 110.421 86.9425 110.765L80.3484 122.253C80.254 122.415 80.0967 122.542 79.9119 122.585C79.849 122.601 79.79 122.613 79.7271 122.613ZM37.8069 96.7263L79.4637 120.897L85.3343 110.67L43.6815 86.4911L37.803 96.7223L37.8069 96.7263Z" fill="#989898"/>
<path d="M43.4183 74.6748L86.3216 99.5808L79.7274 111.061L36.8281 86.1593L43.4183 74.6748Z" fill="white"/>
<path d="M79.7271 111.789C79.6013 111.789 79.4755 111.753 79.3693 111.694L36.4661 86.7879C36.124 86.5902 36.006 86.1474 36.2105 85.7995L42.7968 74.319C42.8911 74.149 43.0484 74.0304 43.2332 73.983C43.418 73.9316 43.6147 73.9593 43.7798 74.0542L86.6791 98.9562C87.0212 99.1579 87.1391 99.6046 86.9425 99.9446L80.3484 111.425C80.254 111.595 80.0967 111.718 79.9119 111.761C79.849 111.777 79.79 111.789 79.7271 111.789ZM37.8069 85.8984L79.4637 110.077L85.3343 99.8497L43.6815 75.6671L37.803 85.8984H37.8069Z" fill="#989898"/>
<path d="M43.4183 63.8506L86.3216 88.7527L79.7274 100.233L36.8281 75.3311L43.4183 63.8506Z" fill="white"/>
<path d="M79.7271 100.961C79.6013 100.961 79.4755 100.925 79.3693 100.866L36.4661 75.9636C36.124 75.762 36.006 75.3153 36.2105 74.9753L42.7968 63.4948C42.8911 63.3248 43.0484 63.2062 43.2332 63.1588C43.418 63.1074 43.6147 63.1351 43.7798 63.2299L86.6791 88.1281C87.0212 88.3297 87.1391 88.7764 86.9425 89.1164L80.3484 100.597C80.254 100.767 80.0967 100.889 79.9119 100.933C79.849 100.949 79.79 100.961 79.7271 100.961ZM37.8069 75.0702L79.4637 99.2488L85.3343 89.0215L43.6776 64.8429L37.8069 75.0702Z" fill="#989898"/>
<path d="M57.6564 58.1421C23.3409 51.5005 51.2038 62.7635 16.8765 56.118V99.4268L36.191 110.65C36.191 90.2234 36.191 117.592 36.191 64.0958C62.5125 79.3676 52.7333 73.6866 79.0903 88.9979C79.0903 142.491 79.0903 115.133 79.0903 135.552C87.5639 140.455 65.5913 127.705 98.4284 146.776V103.471C64.046 70.184 91.9797 91.3422 57.6564 58.1421V58.1421Z" fill="white"/>
<path d="M98.4282 147.503C98.3063 147.503 98.1844 147.468 98.0704 147.408L80.8281 137.391C80.8006 137.375 80.6669 137.3 80.4939 137.201C80.1518 137.011 79.6091 136.695 78.7323 136.189C78.5082 136.058 78.3745 135.817 78.3745 135.56V89.4208L36.9143 65.3489V110.654C36.9143 110.911 36.7728 111.148 36.5526 111.279C36.3363 111.409 36.0571 111.409 35.8369 111.279L16.5146 100.055C16.2904 99.9248 16.1567 99.6916 16.1567 99.4306V56.1218C16.1567 55.9084 16.2511 55.6988 16.4202 55.5644C16.5814 55.43 16.8016 55.3667 17.0139 55.4142C24.5675 56.8769 29.7264 57.5846 32.7778 57.5846C35.4005 57.5846 36.1043 57.0825 36.8553 56.5448C37.7125 55.9321 38.6838 55.2402 41.7705 55.2402C44.8572 55.2402 50.0476 55.936 57.7938 57.4383C57.9275 57.462 58.0573 57.5292 58.1556 57.6241C75.3979 74.2993 76.9786 77.2801 78.6576 80.4349C80.2108 83.3643 81.819 86.3886 98.9355 102.953C99.077 103.087 99.1517 103.277 99.1517 103.475V146.78C99.1517 147.037 99.0102 147.282 98.7939 147.408C98.6838 147.472 98.558 147.503 98.4321 147.503H98.4282ZM80.4192 135.481L97.7126 145.523V103.779C80.6394 87.2386 78.9839 84.1273 77.3836 81.1148C75.8383 78.2091 74.2418 75.2006 57.3062 58.8101C49.8746 57.375 44.7903 56.6793 41.7666 56.6793C39.1399 56.6793 38.4321 57.1853 37.685 57.719C36.8278 58.3318 35.8566 59.0275 32.7738 59.0275C29.6911 59.0275 24.8664 58.3752 17.592 56.9916V99.0076L35.4712 109.393V64.0918C35.4712 63.8348 35.6128 63.5897 35.833 63.4632C36.0532 63.3327 36.3324 63.3327 36.5486 63.4632L79.4479 88.3652C79.6721 88.4957 79.8097 88.7369 79.8097 88.9938V135.133C79.8097 135.133 79.849 135.157 79.8647 135.161C79.8923 135.177 79.9198 135.189 79.9552 135.212H79.9591L80.2619 135.386C80.3051 135.414 80.3562 135.442 80.4192 135.477V135.481Z" fill="#989898"/>
<path d="M86.1801 2.89014C75.701 8.96642 13.0115 45.3687 2.87842 51.2513L52.9853 55.4339C63.1419 49.5474 125.855 13.1293 136.287 7.07276L86.1801 2.89014Z" fill="white"/>
<path d="M52.9849 56.1574C52.9849 56.1574 52.9456 56.1574 52.9298 56.1535L2.823 51.9709C2.50843 51.9432 2.24891 51.7139 2.17813 51.4095C2.11128 51.1011 2.24498 50.7809 2.52023 50.6228L41.5778 27.9543C60.6132 16.9008 80.3445 5.44797 85.8258 2.26554C85.9477 2.19833 86.0971 2.16276 86.2387 2.17462L136.346 6.35724C136.664 6.38492 136.92 6.61422 136.99 6.91862C137.061 7.22698 136.924 7.5472 136.648 7.70533L53.3506 56.0665C53.2405 56.1298 53.1146 56.1614 52.9888 56.1614L52.9849 56.1574ZM5.23338 50.7216L52.8237 54.6908L133.939 7.60254L86.3409 3.6334C80.6079 6.95816 61.1125 18.2726 42.2896 29.2036L5.22945 50.7216H5.23338Z" fill="#989898"/>
<path d="M2.87842 51.2515V56.6636L52.9853 60.8502V55.4341L2.87842 51.2515Z" fill="white"/>
<path d="M52.9851 61.5735C52.9851 61.5735 52.9458 61.5735 52.93 61.5695L2.82319 57.3869C2.44964 57.3513 2.1626 57.039 2.1626 56.6674V51.2513C2.1626 51.0418 2.24517 50.852 2.39065 50.7176C2.54007 50.5753 2.74455 50.516 2.93722 50.5278L53.0441 54.7184C53.4176 54.7461 53.7047 55.0623 53.7047 55.4379V60.854C53.7047 61.0556 53.6221 61.2493 53.4766 61.3877C53.3429 61.5102 53.1699 61.5774 52.9851 61.5774V61.5735ZM3.59781 55.9953L52.2694 60.0593V56.1021L3.59781 52.0301V55.9953V55.9953Z" fill="#989898"/>
<path d="M98.4282 146.776V103.471L172.427 60.522V103.831L98.4282 146.776Z" fill="white"/>
<path d="M98.4285 147.504C98.3066 147.504 98.1847 147.468 98.0707 147.409C97.8466 147.278 97.7129 147.037 97.7129 146.78V103.475C97.7129 103.218 97.8466 102.973 98.0707 102.847L172.069 59.9016C172.285 59.7711 172.561 59.7711 172.785 59.9016C173.009 60.032 173.142 60.2732 173.142 60.5262V103.835C173.142 104.092 173.009 104.337 172.785 104.464L98.7903 147.409C98.6802 147.472 98.5544 147.504 98.4285 147.504ZM99.1481 103.89V145.531L171.703 103.42V61.7794L99.1481 103.89V103.89Z" fill="#989898"/>
<path d="M136.29 7.07275C125.811 13.1569 63.1218 49.5553 52.9888 55.4339L103.096 109.429C115.033 102.502 173.614 68.5037 186.421 61.0674L136.29 7.07275V7.07275Z" fill="white"/>
<path d="M103.092 110.148C102.903 110.148 102.706 110.069 102.565 109.923L52.458 55.9284C52.3125 55.7663 52.2456 55.5449 52.2732 55.3275C52.3085 55.11 52.4383 54.9163 52.627 54.8096L135.933 6.44843C136.216 6.27843 136.585 6.33773 136.813 6.58284L186.944 60.5696C187.093 60.7277 187.16 60.9531 187.129 61.1705C187.097 61.3879 186.967 61.5817 186.775 61.6884L103.453 110.05C103.343 110.117 103.214 110.144 103.092 110.144V110.148ZM54.1291 55.6082L103.229 108.516L185.269 60.8938L136.153 7.99023L54.1291 55.6082V55.6082Z" fill="#989898"/>
<path d="M181.754 63.7715L107.763 106.717L103.1 109.429V114.837L107.763 112.133L181.754 69.1875L186.417 66.4834V61.0674L181.754 63.7715Z" fill="white"/>
<path d="M103.092 115.561C102.97 115.561 102.844 115.525 102.734 115.466C102.51 115.335 102.376 115.094 102.376 114.837V109.429C102.376 109.172 102.51 108.927 102.734 108.8L186.06 60.4392C186.276 60.3087 186.559 60.3087 186.775 60.4392C186.999 60.5696 187.137 60.8108 187.137 61.0677V66.4838C187.137 66.7408 186.995 66.978 186.775 67.1084L103.454 115.47C103.344 115.533 103.214 115.564 103.092 115.564V115.561ZM103.812 109.844V113.588L185.702 66.0608V62.317L103.812 109.844Z" fill="#989898"/>
<path d="M52.9849 55.4341V60.8501L103.1 114.837V109.429L52.9849 55.4341Z" fill="white"/>
<path d="M103.1 115.561C102.903 115.561 102.707 115.481 102.573 115.331L52.4583 61.3445C52.3364 61.2101 52.2695 61.0361 52.2695 60.8503V55.4342C52.2695 55.1377 52.4465 54.8729 52.7217 54.7582C52.997 54.6515 53.3155 54.7187 53.5121 54.9401L103.627 108.935C103.749 109.069 103.816 109.243 103.816 109.429V114.837C103.816 115.134 103.635 115.406 103.363 115.513C103.281 115.549 103.182 115.564 103.1 115.564V115.561ZM53.7087 60.5617L102.38 113.003V109.714L53.7087 57.2725V60.5617V60.5617Z" fill="#989898"/>
<path d="M185.434 78.2884C179.241 67.4918 170.988 58.7273 162.199 53.6077C153.25 48.3932 144.682 47.567 138.233 51.2752L119.143 62.3564C119.143 62.3564 119.131 62.3683 119.123 62.3722C119.119 62.3722 119.115 62.3762 119.107 62.3801C112.659 66.124 109.1 73.912 109.088 84.3172C109.077 91.1763 110.634 98.7904 113.579 106.302L137.993 176.39C138.725 178.486 140.195 180.375 141.835 181.328C142.598 181.771 143.357 181.992 144.08 181.992C144.627 181.992 145.13 181.862 145.586 181.605C145.594 181.601 145.606 181.601 145.614 181.593H145.618L164.708 170.512C165.152 170.247 165.522 169.875 165.797 169.409L190.389 127.796C190.994 126.93 191.568 125.97 192.111 124.886C192.225 124.689 192.327 124.467 192.355 124.341C197.612 112.872 194.895 94.7936 185.434 78.2805V78.2884Z" fill="#FF4D00" stroke="#FF4D00" stroke-width="5" stroke-miterlimit="10"/>
<path d="M184.463 78.8496C178.368 68.223 170.268 59.6047 161.641 54.58C153.01 49.5553 144.898 48.7291 138.792 52.2515L119.701 63.3327C125.808 59.8103 133.924 60.6366 142.551 65.6612C151.178 70.6859 159.282 79.3042 165.377 89.9308C174.896 106.547 177.181 124.202 172.254 134.955C172.199 135.113 172.136 135.268 172.053 135.402L171.99 135.513C171.511 136.477 170.98 137.391 170.382 138.229L145.744 179.921C145.563 180.229 145.327 180.466 145.055 180.624L164.146 169.543C164.421 169.385 164.653 169.148 164.838 168.839L189.476 127.148C190.07 126.305 190.605 125.396 191.085 124.432L191.148 124.321C191.23 124.182 191.293 124.032 191.348 123.874C196.275 113.121 193.99 95.4654 184.471 78.8496H184.463Z" fill="white"/>
<path d="M145.051 181.747C144.666 181.747 144.292 181.546 144.084 181.186C143.777 180.648 143.958 179.964 144.489 179.652C144.607 179.581 144.697 179.486 144.78 179.348L169.419 137.652C170.005 136.818 170.516 135.952 170.984 135.011C170.995 134.971 171.216 134.525 171.231 134.489C176.19 123.661 173.512 106.393 164.397 90.4923C158.401 80.0278 150.438 71.5598 141.984 66.6339C133.747 61.8385 125.992 61.0083 120.248 64.3054C119.717 64.6138 119.029 64.428 118.726 63.8943C118.419 63.3527 118.604 62.6687 119.135 62.3564L138.225 51.2752C144.674 47.567 153.242 48.3932 162.191 53.6077C170.98 58.7233 179.229 67.4918 185.426 78.2884C194.887 94.8015 197.604 112.876 192.347 124.349C192.315 124.475 192.217 124.697 192.103 124.894C191.556 125.977 190.986 126.938 190.381 127.804L165.789 169.417C165.514 169.883 165.148 170.251 164.704 170.52L145.614 181.597H145.61C145.437 181.704 145.244 181.751 145.051 181.751V181.747ZM128.073 60.0595C132.775 60.0595 137.832 61.6172 143.109 64.6849C151.897 69.8045 160.147 78.573 166.34 89.3696C175.8 105.883 178.518 123.957 173.264 135.43C173.229 135.549 173.134 135.766 173.017 135.968C172.462 137.067 171.896 138.031 171.29 138.877L148.614 177.256L163.579 168.571C163.694 168.507 163.788 168.405 163.87 168.266L188.509 126.574C189.103 125.728 189.614 124.863 190.078 123.934C190.09 123.894 190.31 123.443 190.322 123.408C195.288 112.58 192.606 95.3115 183.496 79.4111C177.499 68.9466 169.533 60.4786 161.083 55.5567C152.841 50.7494 145.083 49.9232 139.346 53.2282L127.561 60.0714C127.73 60.0674 127.903 60.0635 128.073 60.0635V60.0595Z" fill="#FF671D"/>
<path d="M142.551 65.6611C133.924 60.6364 125.808 59.8101 119.701 63.3326C119.689 63.3405 119.678 63.3444 119.666 63.3523C113.575 66.8866 110.217 74.3268 110.205 84.3169C110.197 91.1166 111.735 98.5371 114.637 105.93L139.051 176.022C139.688 177.857 140.982 179.533 142.393 180.351C143.408 180.94 144.359 181.023 145.051 180.624C145.327 180.462 145.559 180.229 145.74 179.92L170.378 138.232C170.976 137.39 171.507 136.481 171.986 135.513L172.049 135.402C172.132 135.264 172.195 135.113 172.25 134.955C177.177 124.202 174.892 106.546 165.373 89.9306C159.278 79.3041 151.178 70.6858 142.547 65.6611H142.551Z" fill="white"/>
<path d="M144.08 181.996C143.357 181.996 142.602 181.771 141.835 181.332C140.195 180.379 138.725 178.486 137.993 176.394L113.579 106.306C110.638 98.7982 109.077 91.1801 109.088 84.3211C109.1 73.9159 112.659 66.1278 119.107 62.384C125.635 58.6085 134.152 59.4743 143.109 64.6888C151.897 69.8084 160.147 78.5769 166.34 89.3734C175.801 105.887 178.518 123.961 173.264 135.43C173.233 135.544 173.135 135.766 173.017 135.971C172.462 137.07 171.896 138.035 171.29 138.881L146.699 180.498C146.424 180.964 146.058 181.336 145.614 181.597C145.15 181.866 144.635 182 144.076 182L144.08 181.996ZM128.081 62.3049C125.194 62.3049 122.564 62.9809 120.256 64.3053C114.499 67.6498 111.338 74.75 111.326 84.3171C111.314 90.8994 112.82 98.2289 115.675 105.515L140.109 175.647C140.655 177.232 141.772 178.691 142.956 179.375C143.852 179.893 144.222 179.802 144.497 179.644C144.611 179.577 144.702 179.482 144.784 179.343L169.423 137.648C170.009 136.813 170.52 135.948 170.988 135.007C170.999 134.963 171.216 134.521 171.235 134.481C176.194 123.657 173.516 106.385 164.401 90.4883C158.405 80.0238 150.442 71.5557 141.988 66.6299C137.061 63.7597 132.378 62.301 128.077 62.301L128.081 62.3049Z" fill="#FF671D"/>
<path d="M160.052 92.9984C155.377 84.8427 149.164 78.2288 142.539 74.3703C135.921 70.5158 129.689 69.8833 125.002 72.5873C120.311 75.2914 117.723 81.008 117.711 88.6893C117.704 92.5912 118.368 96.7659 119.638 101C119.874 101.783 120.13 102.569 120.401 103.348C120.661 104.088 120.936 104.827 121.223 105.562C122.257 108.148 123.496 110.725 124.943 113.247C129.618 121.403 135.839 128.021 142.456 131.876C149.078 135.734 155.306 136.363 159.993 133.658C161.488 132.797 162.75 131.638 163.784 130.223C164.051 129.851 164.303 129.46 164.547 129.057C164.783 128.658 165.003 128.238 165.207 127.804C169.147 119.585 167.433 105.882 160.048 92.9984H160.052Z" fill="white"/>
<path d="M153.564 136.434C149.912 136.434 145.987 135.228 141.898 132.852C135.115 128.903 128.749 122.139 123.971 113.813C122.536 111.299 121.262 108.666 120.189 105.989C119.89 105.23 119.607 104.475 119.347 103.72C119.068 102.925 118.805 102.127 118.569 101.324C117.251 96.944 116.587 92.6902 116.591 88.6934C116.603 80.597 119.394 74.5326 124.443 71.619C129.469 68.7212 136.157 69.3655 143.093 73.4019C149.88 77.3552 156.246 84.1194 161.02 92.4412C168.424 105.365 170.461 119.439 166.214 128.294C166.002 128.753 165.762 129.199 165.506 129.634C165.239 130.073 164.971 130.484 164.688 130.879C163.536 132.453 162.144 133.714 160.544 134.635C158.476 135.829 156.12 136.434 153.561 136.434H153.564ZM131.431 72.0657C129.26 72.0657 127.282 72.5717 125.556 73.568C121.231 76.0665 118.84 81.4351 118.828 88.6934C118.824 92.4728 119.457 96.5052 120.712 100.68C120.94 101.451 121.191 102.214 121.459 102.981C121.714 103.712 121.982 104.432 122.265 105.159C123.299 107.737 124.526 110.275 125.914 112.694C130.491 120.688 136.57 127.155 143.019 130.907C146.707 133.058 150.356 134.192 153.564 134.192C155.735 134.192 157.713 133.686 159.439 132.69C160.76 131.927 161.924 130.872 162.884 129.559C163.123 129.219 163.363 128.851 163.591 128.476C163.808 128.12 164.012 127.737 164.193 127.337C168.074 119.241 166.017 105.677 159.081 93.5679C154.504 85.5782 148.425 79.1105 141.977 75.3549C138.288 73.2042 134.643 72.0696 131.431 72.0696V72.0657Z" fill="#FF4D00"/>
<path d="M157.516 100.395C153.671 93.7021 147.383 90.0531 143.538 92.2828L142.488 92.8916L141.438 91.0613C137.596 84.3683 131.305 80.7193 127.463 82.949C123.618 85.1787 123.618 92.4805 127.463 99.1735L128.513 101L139.641 120.383C140.396 121.696 141.418 122.787 142.488 123.403C143.553 124.024 144.58 124.123 145.335 123.688L156.467 117.228L157.516 116.62C161.358 114.39 161.358 107.084 157.516 100.395V100.395Z" fill="#FF4D00"/>
</svg>
