<svg width="112" height="112" viewBox="0 0 112 112" fill="none" xmlns="http://www.w3.org/2000/svg">
<mask id="mask0_973_3926" style="mask-type:alpha" maskUnits="userSpaceOnUse" x="0" y="0" width="112" height="112">
<circle cx="56" cy="56" r="56" fill="#D9D9D9"/>
</mask>
<g mask="url(#mask0_973_3926)">
<path d="M46.5898 48.7138C46.5898 40.4674 46.5898 31.8626 46.5898 23.2546C46.5898 22.2882 46.5514 21.3186 46.6122 20.3554C46.737 18.3746 47.3002 17.8882 49.345 17.8946C57.7578 17.917 66.1706 17.9394 74.5834 17.965C75.0666 17.965 75.5498 17.9682 76.033 17.9778C77.1146 17.9938 78.4074 17.9682 78.5738 19.2994C78.6762 20.1026 78.2506 21.1778 77.7002 21.821C76.321 23.4338 74.7338 24.8674 73.2394 26.381C72.769 26.8578 72.321 27.3538 71.7066 28.0066C73.5658 29.9074 75.3834 31.7538 77.1882 33.6162C77.6554 34.0994 78.1962 34.5634 78.5002 35.1426C79.169 36.4162 78.5226 37.7218 77.0922 37.9714C76.2442 38.1186 75.3578 38.061 74.4874 38.061C67.6202 38.0642 60.753 38.0578 53.8858 38.0674C52.9386 38.0674 51.9914 38.1506 50.705 38.2082C50.705 41.8082 50.6922 45.2546 50.7242 48.6978C50.7242 49.0402 50.9034 49.5298 51.1626 49.693C53.985 51.4754 55.3706 54.4514 57.1946 57.0242C69.8954 74.9186 82.5258 92.8642 95.1722 110.794C95.729 111.584 96.3338 112.359 96.7498 113.223C97.9114 115.626 96.6186 118.263 94.0074 118.816C93.073 119.015 92.0842 119.015 91.121 119.015C62.785 119.027 34.4458 119.031 6.10979 119.031C5.53059 119.031 4.94819 119.043 4.36899 118.995C0.378592 118.656 -1.21501 115.6 1.01219 112.288C4.03299 107.799 7.20419 103.408 10.3274 98.9858C21.0858 83.7442 31.841 68.4994 42.6346 53.2834C43.6778 51.8114 44.9994 50.5346 46.5834 48.7138H46.5898ZM3.98178 114.928H93.1946C84.6634 102.835 76.3946 91.1106 67.7482 78.8546C65.2586 81.5234 63.0762 83.9682 60.7754 86.2946C59.1498 87.9362 58.2762 87.8946 56.5994 86.3394C55.3962 85.2226 54.273 84.0162 53.1018 82.8642C51.6138 81.4018 50.113 79.9522 48.3466 78.2306C45.8602 80.8322 43.617 83.2258 41.3226 85.565C38.769 88.1666 38.2954 88.1506 35.7034 85.6258C33.5818 83.5618 31.4634 81.4946 29.1466 79.2354C20.7114 91.197 12.4938 102.851 3.97859 114.925L3.98178 114.928ZM38.5226 82.6722C41.1658 80.0386 43.6746 77.517 46.209 75.0274C48.3402 72.9314 48.8522 72.9058 50.945 75.0274C53.4506 77.5618 55.8762 80.1762 58.2442 82.6594C60.8074 80.173 63.0666 77.981 65.4026 75.7122C65.0634 75.1746 64.785 74.6786 64.4586 74.2146C60.6186 68.7682 56.7722 63.325 52.929 57.8786C52.0938 56.6946 51.345 55.4402 50.4202 54.333C49.1946 52.8706 48.065 52.9026 46.785 54.2946C46.4618 54.6498 46.1994 55.0626 45.921 55.4562C41.6266 61.5298 37.329 67.6002 33.0506 73.6802C32.5642 74.3714 32.1802 75.133 31.857 75.6802C34.1258 78.0578 36.2346 80.2722 38.5194 82.669L38.5226 82.6722ZM50.9354 21.9938V33.9202H71.793C70.4586 32.541 69.473 31.5266 68.4906 30.5026C66.3114 28.2338 66.3242 27.7954 68.5002 25.533C69.5018 24.493 70.4458 23.3986 71.7226 21.9938H50.9354V21.9938Z" fill="#FF671D"/>
<path d="M56 112C25.121 112 0 86.879 0 56C0 25.121 25.121 0 56 0C86.879 0 112 25.121 112 56C112 86.879 86.879 112 56 112ZM56 3.54043C27.0747 3.54043 3.54043 27.0747 3.54043 56C3.54043 84.9253 27.0747 108.46 56 108.46C84.9253 108.46 108.46 84.9253 108.46 56C108.46 27.0747 84.9253 3.54043 56 3.54043Z" fill="#FF671D"/>
</g>
</svg>
