<svg width="112" height="112" viewBox="0 0 112 112" fill="none" xmlns="http://www.w3.org/2000/svg">
<path d="M74.2429 83.7796H37.6412C37.403 85.0895 37.1069 86.4156 36.9331 87.7577C36.5276 90.8894 34.3518 92.8978 31.2974 92.8817C28.1335 92.8656 25.6327 90.4645 25.9224 87.32C26.1573 84.7516 26.6755 82.167 27.4158 79.692C29.6076 72.3761 34.178 66.6085 39.7526 61.5714C41.4938 59.9975 43.351 58.5556 45.1566 57.0525C45.5396 56.7339 45.929 56.4152 46.4376 55.9936C45.4656 55.2308 44.5966 54.5549 43.734 53.8661C38.5521 49.7335 33.8658 45.1502 30.4928 39.3664C28.1239 35.3014 26.653 30.9305 25.99 26.2829C25.932 25.8806 25.9127 25.4686 25.8934 25.0631C25.7454 21.7769 27.7537 19.4241 30.953 19.1248C33.9173 18.848 36.4471 20.9723 36.9042 24.0846C37.1005 25.4332 37.3548 26.7754 37.5962 28.1915H74.3201C74.539 27.1004 74.761 26.019 74.9735 24.9343C75.1119 24.2327 75.1537 23.5053 75.3726 22.8326C76.2673 20.0904 79.0417 18.6259 81.9867 19.2857C84.6099 19.8747 86.3447 22.3466 86.0808 25.121C85.26 33.7049 81.5458 40.9564 75.6268 47.0717C72.9747 49.8139 69.9621 52.2085 67.1041 54.7512C66.6535 55.1535 66.1546 55.5044 65.5237 55.9968C66.0838 56.4538 66.5311 56.8401 67.0011 57.2038C71.7517 60.8665 76.1644 64.8704 79.6436 69.8045C83.2742 74.9542 85.5014 80.635 86.0711 86.937C86.335 89.8594 84.4361 92.3925 81.6713 92.8205C78.501 93.3098 75.8747 91.6007 75.2245 88.5849C74.9863 87.4906 74.8576 86.3705 74.6484 85.2698C74.5551 84.7805 74.3877 84.3074 74.2396 83.7796H74.2429ZM28.9124 86.9917C28.8448 89.0741 30.232 90.2425 32.0602 89.779C33.1062 89.5151 33.7274 88.6621 33.9044 87.246C34.4033 83.2421 35.6908 79.5214 37.8021 76.0711C40.5894 71.5136 44.3198 67.8251 48.5264 64.6322C53.644 60.7474 58.9192 57.0622 64.0754 53.2288C69.0481 49.5307 73.6764 45.4592 77.2587 40.332C80.4483 35.7713 82.4245 30.7471 83.0392 25.2047C83.2838 23 81.5587 21.5677 79.6243 22.3498C78.53 22.7908 78.176 23.7241 78.0537 24.7831C77.2812 31.497 74.172 37.0491 69.5985 41.8834C65.6814 46.0257 61.0467 49.2893 56.4924 52.6559C51.9832 55.9904 47.416 59.2604 43.0355 62.759C39.1893 65.8296 35.9418 69.5084 33.383 73.7505C30.8951 77.8735 29.3984 82.3344 28.9124 86.9949V86.9917ZM39.0123 80.4548H73.0391C71.9158 77.8863 70.4417 75.7653 68.7359 73.8084C68.4945 73.5316 67.9151 73.4447 67.4903 73.4415C59.8397 73.419 52.1924 73.435 44.5418 73.4125C43.7404 73.4125 43.1804 73.6829 42.7491 74.3298C41.6805 75.9423 40.5894 77.5387 39.537 79.1641C39.302 79.5278 39.2022 79.9752 39.0123 80.4548ZM72.9072 31.6193H39.067C39.1507 31.9219 39.1636 32.1343 39.2634 32.292C40.509 34.2135 41.732 36.1543 43.0613 38.0146C43.322 38.3783 44.014 38.6036 44.5064 38.6068C52.1666 38.6422 59.8269 38.6262 67.4871 38.6422C68.1565 38.6422 68.6683 38.4717 69.0513 37.902C70.181 36.2058 71.3397 34.5289 72.4565 32.8231C72.6658 32.5044 72.7366 32.0957 72.9072 31.6193V31.6193ZM58.6746 60.9534C59.3441 61.462 59.7979 61.787 60.226 62.1346C62.524 63.995 64.8897 65.7813 67.0976 67.7414C71.2689 71.446 74.7063 75.7331 76.5506 81.0727C77.2619 83.1262 77.6063 85.3116 78.0504 87.4487C78.4045 89.161 79.4312 90.0333 81.018 89.824C82.4631 89.6342 83.2806 88.4851 83.0006 86.7825C82.6787 84.8256 82.344 82.8558 81.7904 80.9569C80.1586 75.3437 76.9465 70.651 72.9393 66.4797C69.8978 63.3094 66.5118 60.535 62.8877 57.9408C61.5198 58.9161 60.2034 59.8559 58.6682 60.9502L58.6746 60.9534ZM53.2996 51.1078C52.7878 50.7087 52.4338 50.4319 52.083 50.1551C50.2419 48.7067 48.3623 47.3034 46.5663 45.7971C39.8073 40.1228 34.7896 33.4088 33.8336 24.281C33.6856 22.8809 32.4464 22.0247 31.1107 22.1535C29.7493 22.2854 28.7933 23.3154 28.9446 24.7895C29.112 26.4535 29.4017 28.1207 29.8008 29.7461C30.8565 34.0622 32.8681 37.9277 35.5459 41.4617C39.3084 46.4312 44.014 50.3836 49.0639 54.0882C50.4801 53.0936 51.8416 52.1377 53.3028 51.1078H53.2996ZM56.0869 62.8942C52.9327 64.6741 47.8312 68.8486 47.2293 70.107H65.1729C62.2086 67.3262 59.1799 65.115 56.0901 62.8942H56.0869ZM56 49.2153C59.1381 46.9687 62.1442 44.7414 64.9605 42.1441C63.7921 41.7578 48.5908 41.6967 46.9397 42.0732C49.772 44.706 52.7717 46.9333 56 49.2185V49.2153Z" fill="#FF671D"/>
<path d="M56 112C25.121 112 0 86.879 0 56C0 25.121 25.121 0 56 0C86.879 0 112 25.121 112 56C112 86.879 86.879 112 56 112ZM56 3.54043C27.0747 3.54043 3.54043 27.0747 3.54043 56C3.54043 84.9253 27.0747 108.46 56 108.46C84.9253 108.46 108.46 84.9253 108.46 56C108.46 27.0747 84.9253 3.54043 56 3.54043Z" fill="#FF671D"/>
</svg>
